<svg width="996" height="265" viewBox="0 0 996 265" fill="none" xmlns="http://www.w3.org/2000/svg">
<path d="M158.897 194.505C155.163 194.505 151.681 194.031 148.449 193.084C145.217 192.136 142.403 190.855 140.007 189.239C137.611 187.567 135.716 185.617 134.323 183.388C132.986 181.103 132.317 178.679 132.317 176.116C132.317 174.611 132.512 173.246 132.902 172.02C133.348 170.739 133.822 169.541 134.323 168.426C134.88 167.312 135.354 166.197 135.744 165.083C136.19 163.913 136.413 162.687 136.413 161.405C136.413 160.402 136.273 159.26 135.995 157.978C135.772 156.697 135.382 155.498 134.825 154.384C134.323 153.214 133.627 152.239 132.735 151.459C131.843 150.678 130.757 150.288 129.475 150.288C127.971 150.288 126.661 150.567 125.547 151.124C124.488 151.681 123.596 152.434 122.872 153.381C122.148 154.273 121.618 155.331 121.284 156.557C120.95 157.783 120.782 159.093 120.782 160.486C120.782 161.879 121.117 163.244 121.785 164.581C122.51 165.863 123.29 167.2 124.126 168.593C124.962 169.931 125.714 171.38 126.383 172.94C127.107 174.5 127.469 176.227 127.469 178.122C127.469 179.961 126.605 181.855 124.878 183.806C123.206 185.7 120.922 187.428 118.024 188.988C115.127 190.492 111.755 191.746 107.91 192.749C104.121 193.697 100.109 194.17 95.8743 194.17C87.1815 194.17 80.8012 191.83 76.7334 187.149C72.6657 182.468 70.6318 175.113 70.6318 165.083C70.6318 157.727 71.6348 150.372 73.6408 143.017C75.7026 135.605 78.4887 128.501 81.9993 121.703C85.5098 114.849 89.6611 108.496 94.4533 102.645C99.2455 96.7387 104.4 91.6122 109.916 87.2658C115.433 82.8637 121.172 79.4367 127.135 76.9849C133.153 74.4774 139.143 73.2236 145.105 73.2236C148.783 73.2236 152.544 73.7251 156.389 74.7282C160.234 75.6755 163.912 77.0685 167.422 78.9074C176.728 83.811 183.638 91.1943 188.151 101.057C192.665 110.864 194.922 123.43 194.922 138.754C194.922 147.781 194.142 155.777 192.581 162.742C191.021 169.652 188.709 175.475 185.644 180.212C182.579 184.892 178.818 188.459 174.36 190.91C169.902 193.306 164.748 194.505 158.897 194.505ZM140.926 121.368C146.777 121.368 149.703 117.691 149.703 110.335C149.703 107.159 149.173 104.679 148.114 102.896C147.056 101.113 145.635 100.221 143.852 100.221C142.626 100.221 141.344 100.639 140.007 101.475C138.725 102.311 137.527 103.398 136.413 104.735C135.354 106.072 134.49 107.577 133.822 109.248C133.153 110.864 132.819 112.48 132.819 114.096C132.819 116.381 133.543 118.164 134.992 119.446C136.441 120.727 138.419 121.368 140.926 121.368ZM259.7 107.493C262.541 107.493 264.631 106.88 265.968 105.654C267.306 104.373 267.974 102.311 267.974 99.4691C267.974 98.6333 267.863 97.7139 267.64 96.7108C267.417 95.7078 267.083 94.7884 266.637 93.9526C266.191 93.1167 265.634 92.4202 264.965 91.863C264.297 91.3057 263.489 91.0271 262.541 91.0271C261.316 91.0271 260.173 91.3057 259.114 91.863C258.111 92.4202 257.22 93.1724 256.44 94.1197C255.66 95.0113 255.047 96.07 254.601 97.2959C254.155 98.5218 253.932 99.8035 253.932 101.141C253.932 103.035 254.378 104.568 255.27 105.738C256.161 106.908 257.638 107.493 259.7 107.493ZM239.221 193.752C237.104 193.752 234.736 193.669 232.117 193.502C229.498 193.39 226.823 193.139 224.093 192.749C221.362 192.303 218.66 191.691 215.985 190.91C213.366 190.13 210.942 189.099 208.713 187.818C206.54 186.48 204.673 184.892 203.113 183.053C201.553 181.159 200.522 178.93 200.02 176.367C199.63 174.584 199.38 172.745 199.268 170.85C199.212 168.9 199.184 167.005 199.184 165.166C199.184 160.04 199.519 154.941 200.188 149.87C200.912 144.8 201.72 139.729 202.611 134.658C203.67 128.919 204.868 123.374 206.206 118.025C207.599 112.675 209.298 107.66 211.304 102.98C213.31 98.2989 215.706 94.0083 218.492 90.1077C221.279 86.2071 224.622 82.8637 228.523 80.0776C232.423 77.2914 236.965 75.1461 242.147 73.6416C247.329 72.0813 253.264 71.3012 259.95 71.3012C262.569 71.3012 265.55 71.5241 268.894 71.9699C272.237 72.4157 275.636 73.1401 279.091 74.1431C282.546 75.0904 285.917 76.3163 289.205 77.8208C292.548 79.2696 295.502 81.0248 298.065 83.0866C300.628 85.1483 302.69 87.5166 304.25 90.1913C305.866 92.866 306.674 95.875 306.674 99.2184C306.674 103.453 306.005 106.992 304.668 109.834C303.331 112.62 301.659 114.932 299.653 116.771C297.647 118.554 295.446 119.975 293.05 121.034C290.709 122.037 288.536 122.873 286.53 123.541C284.524 124.154 282.852 124.739 281.515 125.297C280.178 125.798 279.509 126.467 279.509 127.303C279.509 128.139 280.345 128.724 282.017 129.058C283.688 129.392 285.778 129.782 288.285 130.228C290.793 130.618 293.523 131.203 296.477 131.983C299.43 132.764 302.16 133.989 304.668 135.661C307.175 137.277 309.265 139.534 310.937 142.431C312.608 145.273 313.444 148.979 313.444 153.548C313.444 158.73 312.163 163.328 309.599 167.34C307.036 171.352 303.665 174.862 299.486 177.871C295.306 180.825 290.542 183.332 285.193 185.394C279.899 187.4 274.494 189.044 268.977 190.325C263.517 191.551 258.167 192.443 252.929 193C247.747 193.502 243.178 193.752 239.221 193.752ZM260.201 168.844C261.427 168.844 262.625 168.482 263.795 167.758C265.021 167.033 266.108 166.142 267.055 165.083C268.002 163.968 268.755 162.798 269.312 161.572C269.925 160.346 270.231 159.204 270.231 158.145C270.231 156.697 270.036 155.359 269.646 154.133C269.312 152.852 268.727 151.737 267.891 150.79C267.111 149.843 266.08 149.09 264.798 148.533C263.517 147.976 261.928 147.697 260.034 147.697C258.919 147.697 257.889 148.059 256.941 148.784C256.05 149.453 255.27 150.288 254.601 151.291C253.988 152.294 253.514 153.381 253.18 154.551C252.846 155.721 252.678 156.808 252.678 157.811C252.678 158.981 252.762 160.207 252.929 161.489C253.096 162.77 253.431 163.968 253.932 165.083C254.489 166.142 255.27 167.033 256.273 167.758C257.276 168.482 258.585 168.844 260.201 168.844ZM365.267 193C358.413 193 351.949 192.136 345.875 190.409C339.857 188.626 334.563 185.951 329.994 182.385C325.48 178.819 321.914 174.305 319.295 168.844C316.676 163.383 315.367 156.947 315.367 149.536C315.367 143.351 316.119 137.11 317.624 130.813C319.128 124.517 321.273 118.471 324.06 112.675C326.846 106.825 330.245 101.364 334.257 96.2929C338.269 91.1664 342.755 86.7086 347.714 82.9194C352.673 79.1303 358.078 76.1491 363.929 73.9759C369.836 71.8027 376.077 70.7161 382.652 70.7161C390.286 70.7161 397.196 72.0813 403.381 74.8117C409.622 77.5422 414.944 81.3035 419.346 86.0956C423.803 90.8878 427.23 96.5437 429.627 103.063C432.023 109.527 433.221 116.548 433.221 124.127C433.221 134.157 431.549 143.379 428.206 151.793C424.918 160.207 420.265 167.479 414.247 173.608C408.285 179.682 401.124 184.447 392.766 187.901C384.463 191.3 375.297 193 365.267 193ZM371.619 151.709C373.625 151.709 375.352 151.236 376.801 150.288C378.306 149.341 379.56 148.115 380.563 146.611C381.621 145.106 382.457 143.379 383.07 141.428C383.739 139.478 384.24 137.5 384.575 135.494C384.965 133.488 385.215 131.538 385.327 129.643C385.494 127.693 385.578 125.993 385.578 124.544C385.578 123.486 385.522 122.12 385.41 120.449C385.299 118.721 385.02 117.05 384.575 115.434C384.185 113.762 383.544 112.341 382.652 111.171C381.761 110.001 380.563 109.416 379.058 109.416C377.275 109.416 375.659 109.917 374.21 110.92C372.817 111.867 371.563 113.149 370.449 114.765C369.39 116.381 368.471 118.22 367.691 120.282C366.91 122.288 366.27 124.322 365.768 126.383C365.267 128.445 364.904 130.451 364.681 132.401C364.459 134.352 364.347 136.023 364.347 137.416C364.347 138.587 364.403 140.008 364.514 141.679C364.681 143.295 365.016 144.855 365.517 146.36C366.019 147.809 366.743 149.062 367.691 150.121C368.638 151.18 369.947 151.709 371.619 151.709ZM488.303 193C480.167 193 473.035 192.136 466.905 190.409C460.776 188.626 455.649 185.617 451.526 181.382C447.458 177.091 444.393 171.407 442.331 164.331C440.27 157.198 439.239 148.255 439.239 137.5C439.239 133.934 439.545 129.894 440.158 125.38C440.771 120.811 441.718 116.158 443 111.422C444.282 106.685 445.925 102.032 447.931 97.4631C449.938 92.8938 452.334 88.8261 455.12 85.2598C457.906 81.6935 461.11 78.8238 464.732 76.6506C468.354 74.4774 472.394 73.3908 476.852 73.3908C479.861 73.3908 482.842 73.948 485.795 75.0625C488.749 76.1212 491.395 77.5979 493.736 79.4925C496.076 81.387 497.971 83.616 499.419 86.1792C500.868 88.7425 501.593 91.4729 501.593 94.3705C501.593 96.7666 501.258 99.3298 500.59 102.06C499.977 104.735 499.197 107.493 498.249 110.335C497.302 113.121 496.271 115.963 495.157 118.861C494.042 121.703 493.011 124.517 492.064 127.303C491.117 130.089 490.309 132.819 489.64 135.494C489.027 138.169 488.721 140.704 488.721 143.1C488.721 144.828 488.944 146.499 489.389 148.115C489.891 149.675 490.643 151.069 491.646 152.294C492.649 153.52 493.903 154.495 495.407 155.22C496.968 155.944 498.779 156.306 500.84 156.306C502.958 156.306 504.713 155.694 506.106 154.468C507.499 153.186 508.642 151.542 509.533 149.536C510.425 147.474 511.066 145.19 511.456 142.682C511.901 140.119 512.208 137.556 512.375 134.992C512.542 132.429 512.626 129.977 512.626 127.637C512.626 125.297 512.626 123.346 512.626 121.786V96.6273C512.626 93.2839 513.072 90.2191 513.963 87.433C514.855 84.5911 516.136 82.1393 517.808 80.0776C519.535 77.9601 521.653 76.3163 524.16 75.1461C526.724 73.9759 529.649 73.3908 532.937 73.3908C535.946 73.3908 538.565 73.8923 540.794 74.8953C543.078 75.8983 545.001 77.2636 546.561 78.991C548.177 80.7184 549.514 82.7244 550.573 85.009C551.632 87.238 552.44 89.6062 552.997 92.1137C553.61 94.6212 554.028 97.1566 554.251 99.7199C554.529 102.283 554.669 104.763 554.669 107.159C554.669 119.697 553.303 131.231 550.573 141.763C547.843 152.294 543.719 161.349 538.203 168.928C532.686 176.506 525.776 182.413 517.474 186.648C509.171 190.883 499.447 193 488.303 193ZM599.637 192.749C596.795 192.749 594.065 192.387 591.446 191.663C588.827 190.883 586.486 189.74 584.425 188.236C582.419 186.675 580.803 184.753 579.577 182.468C578.407 180.128 577.822 177.398 577.822 174.277C577.822 170.878 578.128 167.423 578.741 163.913C579.41 160.402 580.218 156.947 581.165 153.548C582.168 150.093 583.227 146.778 584.341 143.602C585.456 140.37 586.486 137.389 587.434 134.658C588.437 131.872 589.245 129.392 589.858 127.219C590.526 124.99 590.861 123.179 590.861 121.786C590.861 119.39 590.359 117.663 589.356 116.604C588.409 115.489 587.127 114.932 585.511 114.932C583.004 114.932 580.552 114.904 578.156 114.849C575.816 114.737 573.085 114.681 569.965 114.681C568.07 114.681 566.343 114.375 564.782 113.762C563.278 113.093 561.996 112.202 560.938 111.087C559.879 109.917 559.071 108.552 558.514 106.992C557.956 105.376 557.678 103.648 557.678 101.809C557.678 94.8998 559.015 89.5226 561.69 85.6777C564.42 81.8328 568.349 78.991 573.475 77.1521C578.602 75.3133 584.871 74.1988 592.282 73.8087C599.693 73.4187 608.135 73.2236 617.608 73.2236C623.904 73.2236 629.393 73.363 634.074 73.6416C638.81 73.8645 642.85 74.3102 646.194 74.9789C649.537 75.6476 652.295 76.567 654.468 77.7372C656.642 78.9074 658.341 80.4119 659.567 82.2508C660.849 84.0896 661.74 86.2907 662.242 88.8539C662.743 91.4172 662.994 94.4541 662.994 97.9646C662.994 100.361 662.548 102.59 661.657 104.651C660.765 106.713 659.539 108.524 657.979 110.084C656.474 111.589 654.663 112.787 652.546 113.678C650.484 114.514 648.255 114.932 645.859 114.932C645.358 114.932 644.717 114.877 643.937 114.765C643.157 114.598 642.293 114.431 641.346 114.264C640.398 114.041 639.423 113.873 638.42 113.762C637.473 113.595 636.526 113.511 635.578 113.511C634.13 113.511 632.904 113.79 631.901 114.347C630.953 114.849 630.48 115.852 630.48 117.356C630.48 118.248 630.619 119.334 630.898 120.616C631.176 121.842 631.483 123.319 631.817 125.046C632.207 126.718 632.541 128.696 632.82 130.98C633.099 133.265 633.238 135.912 633.238 138.921C633.238 141.93 633.127 145.357 632.904 149.202C632.681 152.991 632.179 156.892 631.399 160.904C630.619 164.916 629.505 168.816 628.056 172.605C626.607 176.395 624.629 179.794 622.121 182.803C619.614 185.812 616.521 188.236 612.843 190.075C609.221 191.858 604.819 192.749 599.637 192.749ZM761.122 193C752.986 193 745.854 192.136 739.724 190.409C733.595 188.626 728.468 185.617 724.345 181.382C720.277 177.091 717.212 171.407 715.151 164.331C713.089 157.198 712.058 148.255 712.058 137.5C712.058 133.934 712.364 129.894 712.977 125.38C713.59 120.811 714.538 116.158 715.819 111.422C717.101 106.685 718.745 102.032 720.751 97.4631C722.757 92.8938 725.153 88.8261 727.939 85.2598C730.725 81.6935 733.929 78.8238 737.551 76.6506C741.173 74.4774 745.213 73.3908 749.671 73.3908C752.68 73.3908 755.661 73.948 758.614 75.0625C761.568 76.1212 764.215 77.5979 766.555 79.4925C768.895 81.387 770.79 83.616 772.239 86.1792C773.688 88.7425 774.412 91.4729 774.412 94.3705C774.412 96.7666 774.078 99.3298 773.409 102.06C772.796 104.735 772.016 107.493 771.069 110.335C770.121 113.121 769.09 115.963 767.976 118.861C766.861 121.703 765.831 124.517 764.883 127.303C763.936 130.089 763.128 132.819 762.459 135.494C761.846 138.169 761.54 140.704 761.54 143.1C761.54 144.828 761.763 146.499 762.209 148.115C762.71 149.675 763.462 151.069 764.465 152.294C765.468 153.52 766.722 154.495 768.227 155.22C769.787 155.944 771.598 156.306 773.66 156.306C775.777 156.306 777.532 155.694 778.925 154.468C780.319 153.186 781.461 151.542 782.352 149.536C783.244 147.474 783.885 145.19 784.275 142.682C784.721 140.119 785.027 137.556 785.194 134.992C785.361 132.429 785.445 129.977 785.445 127.637C785.445 125.297 785.445 123.346 785.445 121.786V96.6273C785.445 93.2839 785.891 90.2191 786.782 87.433C787.674 84.5911 788.956 82.1393 790.627 80.0776C792.355 77.9601 794.472 76.3163 796.98 75.1461C799.543 73.9759 802.468 73.3908 805.756 73.3908C808.765 73.3908 811.384 73.8923 813.613 74.8953C815.898 75.8983 817.82 77.2636 819.38 78.991C820.996 80.7184 822.334 82.7244 823.392 85.009C824.451 87.238 825.259 89.6062 825.816 92.1137C826.429 94.6212 826.847 97.1566 827.07 99.7199C827.349 102.283 827.488 104.763 827.488 107.159C827.488 119.697 826.123 131.231 823.392 141.763C820.662 152.294 816.538 161.349 811.022 168.928C805.505 176.506 798.596 182.413 790.293 186.648C781.99 190.883 772.267 193 761.122 193ZM862.593 193C860.03 193 857.3 192.833 854.402 192.498C851.505 192.164 848.635 191.607 845.793 190.827C843.007 189.991 840.304 188.96 837.685 187.734C835.066 186.453 832.754 184.892 830.748 183.053C828.797 181.159 827.237 178.986 826.067 176.534C824.897 174.026 824.312 171.184 824.312 168.008C824.312 165.055 824.702 162.631 825.482 160.736C826.262 158.786 827.377 157.226 828.825 156.056C830.274 154.886 832.057 154.078 834.175 153.632C836.292 153.13 838.716 152.88 841.447 152.88C843.675 152.88 845.877 153.075 848.05 153.465C850.223 153.855 852.368 154.273 854.486 154.718C856.659 155.164 858.832 155.582 861.005 155.972C863.178 156.362 865.38 156.557 867.608 156.557C869.002 156.557 870.367 156.223 871.704 155.554C873.097 154.886 874.323 154.022 875.382 152.963C876.496 151.904 877.388 150.706 878.056 149.369C878.725 147.976 879.059 146.583 879.059 145.19C879.059 143.407 878.725 141.735 878.056 140.175C877.555 139.005 876.552 138.169 875.047 137.667C873.543 137.11 871.704 136.72 869.531 136.497C867.358 136.218 864.962 136.023 862.343 135.912C859.779 135.8 857.16 135.578 854.486 135.243C851.867 134.853 849.303 134.268 846.796 133.488C844.344 132.652 842.171 131.426 840.276 129.81C838.382 128.194 836.849 126.105 835.679 123.541C834.509 120.922 833.924 117.635 833.924 113.678C833.924 109.276 834.593 105.236 835.93 101.559C837.323 97.8253 839.19 94.4541 841.53 91.445C843.926 88.436 846.712 85.817 849.889 83.5881C853.12 81.3035 856.575 79.4089 860.253 77.9044C863.986 76.3441 867.831 75.1739 871.788 74.3938C875.8 73.6137 879.784 73.2236 883.74 73.2236C886.081 73.2236 888.727 73.3908 891.681 73.7251C894.634 74.0595 897.643 74.5889 900.708 75.3133C903.828 76.0376 906.865 77.0128 909.819 78.2387C912.772 79.4089 915.391 80.8577 917.675 82.5851C920.016 84.3125 921.883 86.3464 923.276 88.6867C924.724 91.0271 925.449 93.7018 925.449 96.7108C925.449 100.054 924.697 102.952 923.192 105.404C921.743 107.855 919.821 109.889 917.425 111.505C915.084 113.121 912.438 114.347 909.484 115.183C906.587 115.963 903.661 116.353 900.708 116.353C898.256 116.353 895.832 116.158 893.436 115.768C891.04 115.378 888.644 114.96 886.248 114.514C883.852 114.069 881.456 113.651 879.059 113.261C876.663 112.87 874.239 112.675 871.788 112.675C871.398 112.675 870.868 112.787 870.2 113.01C869.587 113.177 868.974 113.428 868.361 113.762C867.803 114.041 867.302 114.403 866.856 114.849C866.466 115.294 866.271 115.768 866.271 116.27C866.271 116.492 866.383 116.827 866.605 117.273C866.884 117.663 867.107 117.913 867.274 118.025C868.389 118.972 870.032 119.697 872.206 120.198C874.434 120.7 876.998 121.145 879.895 121.535C882.793 121.925 885.913 122.343 889.257 122.789C892.6 123.179 895.916 123.764 899.203 124.544C902.491 125.269 905.667 126.272 908.732 127.553C911.797 128.779 914.499 130.423 916.84 132.485C919.236 134.491 921.13 136.998 922.523 140.008C923.916 142.961 924.613 146.555 924.613 150.79C924.613 156.084 923.666 160.82 921.771 164.999C919.932 169.123 917.425 172.745 914.249 175.865C911.128 178.986 907.478 181.633 903.299 183.806C899.175 185.979 894.801 187.762 890.176 189.155C885.607 190.492 880.954 191.468 876.218 192.081C871.481 192.694 866.94 193 862.593 193Z" fill="#E8D5FF"/>
<g filter="url(#filter0_f_1703_19)">
<path d="M158.897 194.505C155.163 194.505 151.681 194.031 148.449 193.084C145.217 192.136 142.403 190.855 140.007 189.239C137.611 187.567 135.716 185.617 134.323 183.388C132.986 181.103 132.317 178.679 132.317 176.116C132.317 174.611 132.512 173.246 132.902 172.02C133.348 170.739 133.822 169.541 134.323 168.426C134.88 167.312 135.354 166.197 135.744 165.083C136.19 163.913 136.413 162.687 136.413 161.405C136.413 160.402 136.273 159.26 135.995 157.978C135.772 156.697 135.382 155.498 134.825 154.384C134.323 153.214 133.627 152.239 132.735 151.459C131.843 150.678 130.757 150.288 129.475 150.288C127.971 150.288 126.661 150.567 125.547 151.124C124.488 151.681 123.596 152.434 122.872 153.381C122.148 154.273 121.618 155.331 121.284 156.557C120.95 157.783 120.782 159.093 120.782 160.486C120.782 161.879 121.117 163.244 121.785 164.581C122.51 165.863 123.29 167.2 124.126 168.593C124.962 169.931 125.714 171.38 126.383 172.94C127.107 174.5 127.469 176.227 127.469 178.122C127.469 179.961 126.605 181.855 124.878 183.806C123.206 185.7 120.922 187.428 118.024 188.988C115.127 190.492 111.755 191.746 107.91 192.749C104.121 193.697 100.109 194.17 95.8743 194.17C87.1815 194.17 80.8012 191.83 76.7334 187.149C72.6657 182.468 70.6318 175.113 70.6318 165.083C70.6318 157.727 71.6348 150.372 73.6408 143.017C75.7026 135.605 78.4887 128.501 81.9993 121.703C85.5098 114.849 89.6611 108.496 94.4533 102.645C99.2455 96.7387 104.4 91.6122 109.916 87.2658C115.433 82.8637 121.172 79.4367 127.135 76.9849C133.153 74.4774 139.143 73.2236 145.105 73.2236C148.783 73.2236 152.544 73.7251 156.389 74.7282C160.234 75.6755 163.912 77.0685 167.422 78.9074C176.728 83.811 183.638 91.1943 188.151 101.057C192.665 110.864 194.922 123.43 194.922 138.754C194.922 147.781 194.142 155.777 192.581 162.742C191.021 169.652 188.709 175.475 185.644 180.212C182.579 184.892 178.818 188.459 174.36 190.91C169.902 193.306 164.748 194.505 158.897 194.505ZM140.926 121.368C146.777 121.368 149.703 117.691 149.703 110.335C149.703 107.159 149.173 104.679 148.114 102.896C147.056 101.113 145.635 100.221 143.852 100.221C142.626 100.221 141.344 100.639 140.007 101.475C138.725 102.311 137.527 103.398 136.413 104.735C135.354 106.072 134.49 107.577 133.822 109.248C133.153 110.864 132.819 112.48 132.819 114.096C132.819 116.381 133.543 118.164 134.992 119.446C136.441 120.727 138.419 121.368 140.926 121.368ZM259.7 107.493C262.541 107.493 264.631 106.88 265.968 105.654C267.306 104.373 267.974 102.311 267.974 99.4691C267.974 98.6333 267.863 97.7139 267.64 96.7108C267.417 95.7078 267.083 94.7884 266.637 93.9526C266.191 93.1167 265.634 92.4202 264.965 91.863C264.297 91.3057 263.489 91.0271 262.541 91.0271C261.316 91.0271 260.173 91.3057 259.114 91.863C258.111 92.4202 257.22 93.1724 256.44 94.1197C255.66 95.0113 255.047 96.07 254.601 97.2959C254.155 98.5218 253.932 99.8035 253.932 101.141C253.932 103.035 254.378 104.568 255.27 105.738C256.161 106.908 257.638 107.493 259.7 107.493ZM239.221 193.752C237.104 193.752 234.736 193.669 232.117 193.502C229.498 193.39 226.823 193.139 224.093 192.749C221.362 192.303 218.66 191.691 215.985 190.91C213.366 190.13 210.942 189.099 208.713 187.818C206.54 186.48 204.673 184.892 203.113 183.053C201.553 181.159 200.522 178.93 200.02 176.367C199.63 174.584 199.38 172.745 199.268 170.85C199.212 168.9 199.184 167.005 199.184 165.166C199.184 160.04 199.519 154.941 200.188 149.87C200.912 144.8 201.72 139.729 202.611 134.658C203.67 128.919 204.868 123.374 206.206 118.025C207.599 112.675 209.298 107.66 211.304 102.98C213.31 98.2989 215.706 94.0083 218.492 90.1077C221.279 86.2071 224.622 82.8637 228.523 80.0776C232.423 77.2914 236.965 75.1461 242.147 73.6416C247.329 72.0813 253.264 71.3012 259.95 71.3012C262.569 71.3012 265.55 71.5241 268.894 71.9699C272.237 72.4157 275.636 73.1401 279.091 74.1431C282.546 75.0904 285.917 76.3163 289.205 77.8208C292.548 79.2696 295.502 81.0248 298.065 83.0866C300.628 85.1483 302.69 87.5166 304.25 90.1913C305.866 92.866 306.674 95.875 306.674 99.2184C306.674 103.453 306.005 106.992 304.668 109.834C303.331 112.62 301.659 114.932 299.653 116.771C297.647 118.554 295.446 119.975 293.05 121.034C290.709 122.037 288.536 122.873 286.53 123.541C284.524 124.154 282.852 124.739 281.515 125.297C280.178 125.798 279.509 126.467 279.509 127.303C279.509 128.139 280.345 128.724 282.017 129.058C283.688 129.392 285.778 129.782 288.285 130.228C290.793 130.618 293.523 131.203 296.477 131.983C299.43 132.764 302.16 133.989 304.668 135.661C307.175 137.277 309.265 139.534 310.937 142.431C312.608 145.273 313.444 148.979 313.444 153.548C313.444 158.73 312.163 163.328 309.599 167.34C307.036 171.352 303.665 174.862 299.486 177.871C295.306 180.825 290.542 183.332 285.193 185.394C279.899 187.4 274.494 189.044 268.977 190.325C263.517 191.551 258.167 192.443 252.929 193C247.747 193.502 243.178 193.752 239.221 193.752ZM260.201 168.844C261.427 168.844 262.625 168.482 263.795 167.758C265.021 167.033 266.108 166.142 267.055 165.083C268.002 163.968 268.755 162.798 269.312 161.572C269.925 160.346 270.231 159.204 270.231 158.145C270.231 156.697 270.036 155.359 269.646 154.133C269.312 152.852 268.727 151.737 267.891 150.79C267.111 149.843 266.08 149.09 264.798 148.533C263.517 147.976 261.928 147.697 260.034 147.697C258.919 147.697 257.889 148.059 256.941 148.784C256.05 149.453 255.27 150.288 254.601 151.291C253.988 152.294 253.514 153.381 253.18 154.551C252.846 155.721 252.678 156.808 252.678 157.811C252.678 158.981 252.762 160.207 252.929 161.489C253.096 162.77 253.431 163.968 253.932 165.083C254.489 166.142 255.27 167.033 256.273 167.758C257.276 168.482 258.585 168.844 260.201 168.844ZM365.267 193C358.413 193 351.949 192.136 345.875 190.409C339.857 188.626 334.563 185.951 329.994 182.385C325.48 178.819 321.914 174.305 319.295 168.844C316.676 163.383 315.367 156.947 315.367 149.536C315.367 143.351 316.119 137.11 317.624 130.813C319.128 124.517 321.273 118.471 324.06 112.675C326.846 106.825 330.245 101.364 334.257 96.2929C338.269 91.1664 342.755 86.7086 347.714 82.9194C352.673 79.1303 358.078 76.1491 363.929 73.9759C369.836 71.8027 376.077 70.7161 382.652 70.7161C390.286 70.7161 397.196 72.0813 403.381 74.8117C409.622 77.5422 414.944 81.3035 419.346 86.0956C423.803 90.8878 427.23 96.5437 429.627 103.063C432.023 109.527 433.221 116.548 433.221 124.127C433.221 134.157 431.549 143.379 428.206 151.793C424.918 160.207 420.265 167.479 414.247 173.608C408.285 179.682 401.124 184.447 392.766 187.901C384.463 191.3 375.297 193 365.267 193ZM371.619 151.709C373.625 151.709 375.352 151.236 376.801 150.288C378.306 149.341 379.56 148.115 380.563 146.611C381.621 145.106 382.457 143.379 383.07 141.428C383.739 139.478 384.24 137.5 384.575 135.494C384.965 133.488 385.215 131.538 385.327 129.643C385.494 127.693 385.578 125.993 385.578 124.544C385.578 123.486 385.522 122.12 385.41 120.449C385.299 118.721 385.02 117.05 384.575 115.434C384.185 113.762 383.544 112.341 382.652 111.171C381.761 110.001 380.563 109.416 379.058 109.416C377.275 109.416 375.659 109.917 374.21 110.92C372.817 111.867 371.563 113.149 370.449 114.765C369.39 116.381 368.471 118.22 367.691 120.282C366.91 122.288 366.27 124.322 365.768 126.383C365.267 128.445 364.904 130.451 364.681 132.401C364.459 134.352 364.347 136.023 364.347 137.416C364.347 138.587 364.403 140.008 364.514 141.679C364.681 143.295 365.016 144.855 365.517 146.36C366.019 147.809 366.743 149.062 367.691 150.121C368.638 151.18 369.947 151.709 371.619 151.709ZM488.303 193C480.167 193 473.035 192.136 466.905 190.409C460.776 188.626 455.649 185.617 451.526 181.382C447.458 177.091 444.393 171.407 442.331 164.331C440.27 157.198 439.239 148.255 439.239 137.5C439.239 133.934 439.545 129.894 440.158 125.38C440.771 120.811 441.718 116.158 443 111.422C444.282 106.685 445.925 102.032 447.931 97.4631C449.938 92.8938 452.334 88.8261 455.12 85.2598C457.906 81.6935 461.11 78.8238 464.732 76.6506C468.354 74.4774 472.394 73.3908 476.852 73.3908C479.861 73.3908 482.842 73.948 485.795 75.0625C488.749 76.1212 491.395 77.5979 493.736 79.4925C496.076 81.387 497.971 83.616 499.419 86.1792C500.868 88.7425 501.593 91.4729 501.593 94.3705C501.593 96.7666 501.258 99.3298 500.59 102.06C499.977 104.735 499.197 107.493 498.249 110.335C497.302 113.121 496.271 115.963 495.157 118.861C494.042 121.703 493.011 124.517 492.064 127.303C491.117 130.089 490.309 132.819 489.64 135.494C489.027 138.169 488.721 140.704 488.721 143.1C488.721 144.828 488.944 146.499 489.389 148.115C489.891 149.675 490.643 151.069 491.646 152.294C492.649 153.52 493.903 154.495 495.407 155.22C496.968 155.944 498.779 156.306 500.84 156.306C502.958 156.306 504.713 155.694 506.106 154.468C507.499 153.186 508.642 151.542 509.533 149.536C510.425 147.474 511.066 145.19 511.456 142.682C511.901 140.119 512.208 137.556 512.375 134.992C512.542 132.429 512.626 129.977 512.626 127.637C512.626 125.297 512.626 123.346 512.626 121.786V96.6273C512.626 93.2839 513.072 90.2191 513.963 87.433C514.855 84.5911 516.136 82.1393 517.808 80.0776C519.535 77.9601 521.653 76.3163 524.16 75.1461C526.724 73.9759 529.649 73.3908 532.937 73.3908C535.946 73.3908 538.565 73.8923 540.794 74.8953C543.078 75.8983 545.001 77.2636 546.561 78.991C548.177 80.7184 549.514 82.7244 550.573 85.009C551.632 87.238 552.44 89.6062 552.997 92.1137C553.61 94.6212 554.028 97.1566 554.251 99.7199C554.529 102.283 554.669 104.763 554.669 107.159C554.669 119.697 553.303 131.231 550.573 141.763C547.843 152.294 543.719 161.349 538.203 168.928C532.686 176.506 525.776 182.413 517.474 186.648C509.171 190.883 499.447 193 488.303 193ZM599.637 192.749C596.795 192.749 594.065 192.387 591.446 191.663C588.827 190.883 586.486 189.74 584.425 188.236C582.419 186.675 580.803 184.753 579.577 182.468C578.407 180.128 577.822 177.398 577.822 174.277C577.822 170.878 578.128 167.423 578.741 163.913C579.41 160.402 580.218 156.947 581.165 153.548C582.168 150.093 583.227 146.778 584.341 143.602C585.456 140.37 586.486 137.389 587.434 134.658C588.437 131.872 589.245 129.392 589.858 127.219C590.526 124.99 590.861 123.179 590.861 121.786C590.861 119.39 590.359 117.663 589.356 116.604C588.409 115.489 587.127 114.932 585.511 114.932C583.004 114.932 580.552 114.904 578.156 114.849C575.816 114.737 573.085 114.681 569.965 114.681C568.07 114.681 566.343 114.375 564.782 113.762C563.278 113.093 561.996 112.202 560.938 111.087C559.879 109.917 559.071 108.552 558.514 106.992C557.956 105.376 557.678 103.648 557.678 101.809C557.678 94.8998 559.015 89.5226 561.69 85.6777C564.42 81.8328 568.349 78.991 573.475 77.1521C578.602 75.3133 584.871 74.1988 592.282 73.8087C599.693 73.4187 608.135 73.2236 617.608 73.2236C623.904 73.2236 629.393 73.363 634.074 73.6416C638.81 73.8645 642.85 74.3102 646.194 74.9789C649.537 75.6476 652.295 76.567 654.468 77.7372C656.642 78.9074 658.341 80.4119 659.567 82.2508C660.849 84.0896 661.74 86.2907 662.242 88.8539C662.743 91.4172 662.994 94.4541 662.994 97.9646C662.994 100.361 662.548 102.59 661.657 104.651C660.765 106.713 659.539 108.524 657.979 110.084C656.474 111.589 654.663 112.787 652.546 113.678C650.484 114.514 648.255 114.932 645.859 114.932C645.358 114.932 644.717 114.877 643.937 114.765C643.157 114.598 642.293 114.431 641.346 114.264C640.398 114.041 639.423 113.873 638.42 113.762C637.473 113.595 636.526 113.511 635.578 113.511C634.13 113.511 632.904 113.79 631.901 114.347C630.953 114.849 630.48 115.852 630.48 117.356C630.48 118.248 630.619 119.334 630.898 120.616C631.176 121.842 631.483 123.319 631.817 125.046C632.207 126.718 632.541 128.696 632.82 130.98C633.099 133.265 633.238 135.912 633.238 138.921C633.238 141.93 633.127 145.357 632.904 149.202C632.681 152.991 632.179 156.892 631.399 160.904C630.619 164.916 629.505 168.816 628.056 172.605C626.607 176.395 624.629 179.794 622.121 182.803C619.614 185.812 616.521 188.236 612.843 190.075C609.221 191.858 604.819 192.749 599.637 192.749ZM761.122 193C752.986 193 745.854 192.136 739.724 190.409C733.595 188.626 728.468 185.617 724.345 181.382C720.277 177.091 717.212 171.407 715.151 164.331C713.089 157.198 712.058 148.255 712.058 137.5C712.058 133.934 712.364 129.894 712.977 125.38C713.59 120.811 714.538 116.158 715.819 111.422C717.101 106.685 718.745 102.032 720.751 97.4631C722.757 92.8938 725.153 88.8261 727.939 85.2598C730.725 81.6935 733.929 78.8238 737.551 76.6506C741.173 74.4774 745.213 73.3908 749.671 73.3908C752.68 73.3908 755.661 73.948 758.614 75.0625C761.568 76.1212 764.215 77.5979 766.555 79.4925C768.895 81.387 770.79 83.616 772.239 86.1792C773.688 88.7425 774.412 91.4729 774.412 94.3705C774.412 96.7666 774.078 99.3298 773.409 102.06C772.796 104.735 772.016 107.493 771.069 110.335C770.121 113.121 769.09 115.963 767.976 118.861C766.861 121.703 765.831 124.517 764.883 127.303C763.936 130.089 763.128 132.819 762.459 135.494C761.846 138.169 761.54 140.704 761.54 143.1C761.54 144.828 761.763 146.499 762.209 148.115C762.71 149.675 763.462 151.069 764.465 152.294C765.468 153.52 766.722 154.495 768.227 155.22C769.787 155.944 771.598 156.306 773.66 156.306C775.777 156.306 777.532 155.694 778.925 154.468C780.319 153.186 781.461 151.542 782.352 149.536C783.244 147.474 783.885 145.19 784.275 142.682C784.721 140.119 785.027 137.556 785.194 134.992C785.361 132.429 785.445 129.977 785.445 127.637C785.445 125.297 785.445 123.346 785.445 121.786V96.6273C785.445 93.2839 785.891 90.2191 786.782 87.433C787.674 84.5911 788.956 82.1393 790.627 80.0776C792.355 77.9601 794.472 76.3163 796.98 75.1461C799.543 73.9759 802.468 73.3908 805.756 73.3908C808.765 73.3908 811.384 73.8923 813.613 74.8953C815.898 75.8983 817.82 77.2636 819.38 78.991C820.996 80.7184 822.334 82.7244 823.392 85.009C824.451 87.238 825.259 89.6062 825.816 92.1137C826.429 94.6212 826.847 97.1566 827.07 99.7199C827.349 102.283 827.488 104.763 827.488 107.159C827.488 119.697 826.123 131.231 823.392 141.763C820.662 152.294 816.538 161.349 811.022 168.928C805.505 176.506 798.596 182.413 790.293 186.648C781.99 190.883 772.267 193 761.122 193ZM862.593 193C860.03 193 857.3 192.833 854.402 192.498C851.505 192.164 848.635 191.607 845.793 190.827C843.007 189.991 840.304 188.96 837.685 187.734C835.066 186.453 832.754 184.892 830.748 183.053C828.797 181.159 827.237 178.986 826.067 176.534C824.897 174.026 824.312 171.184 824.312 168.008C824.312 165.055 824.702 162.631 825.482 160.736C826.262 158.786 827.377 157.226 828.825 156.056C830.274 154.886 832.057 154.078 834.175 153.632C836.292 153.13 838.716 152.88 841.447 152.88C843.675 152.88 845.877 153.075 848.05 153.465C850.223 153.855 852.368 154.273 854.486 154.718C856.659 155.164 858.832 155.582 861.005 155.972C863.178 156.362 865.38 156.557 867.608 156.557C869.002 156.557 870.367 156.223 871.704 155.554C873.097 154.886 874.323 154.022 875.382 152.963C876.496 151.904 877.388 150.706 878.056 149.369C878.725 147.976 879.059 146.583 879.059 145.19C879.059 143.407 878.725 141.735 878.056 140.175C877.555 139.005 876.552 138.169 875.047 137.667C873.543 137.11 871.704 136.72 869.531 136.497C867.358 136.218 864.962 136.023 862.343 135.912C859.779 135.8 857.16 135.578 854.486 135.243C851.867 134.853 849.303 134.268 846.796 133.488C844.344 132.652 842.171 131.426 840.276 129.81C838.382 128.194 836.849 126.105 835.679 123.541C834.509 120.922 833.924 117.635 833.924 113.678C833.924 109.276 834.593 105.236 835.93 101.559C837.323 97.8253 839.19 94.4541 841.53 91.445C843.926 88.436 846.712 85.817 849.889 83.5881C853.12 81.3035 856.575 79.4089 860.253 77.9044C863.986 76.3441 867.831 75.1739 871.788 74.3938C875.8 73.6137 879.784 73.2236 883.74 73.2236C886.081 73.2236 888.727 73.3908 891.681 73.7251C894.634 74.0595 897.643 74.5889 900.708 75.3133C903.828 76.0376 906.865 77.0128 909.819 78.2387C912.772 79.4089 915.391 80.8577 917.675 82.5851C920.016 84.3125 921.883 86.3464 923.276 88.6867C924.724 91.0271 925.449 93.7018 925.449 96.7108C925.449 100.054 924.697 102.952 923.192 105.404C921.743 107.855 919.821 109.889 917.425 111.505C915.084 113.121 912.438 114.347 909.484 115.183C906.587 115.963 903.661 116.353 900.708 116.353C898.256 116.353 895.832 116.158 893.436 115.768C891.04 115.378 888.644 114.96 886.248 114.514C883.852 114.069 881.456 113.651 879.059 113.261C876.663 112.87 874.239 112.675 871.788 112.675C871.398 112.675 870.868 112.787 870.2 113.01C869.587 113.177 868.974 113.428 868.361 113.762C867.803 114.041 867.302 114.403 866.856 114.849C866.466 115.294 866.271 115.768 866.271 116.27C866.271 116.492 866.383 116.827 866.605 117.273C866.884 117.663 867.107 117.913 867.274 118.025C868.389 118.972 870.032 119.697 872.206 120.198C874.434 120.7 876.998 121.145 879.895 121.535C882.793 121.925 885.913 122.343 889.257 122.789C892.6 123.179 895.916 123.764 899.203 124.544C902.491 125.269 905.667 126.272 908.732 127.553C911.797 128.779 914.499 130.423 916.84 132.485C919.236 134.491 921.13 136.998 922.523 140.008C923.916 142.961 924.613 146.555 924.613 150.79C924.613 156.084 923.666 160.82 921.771 164.999C919.932 169.123 917.425 172.745 914.249 175.865C911.128 178.986 907.478 181.633 903.299 183.806C899.175 185.979 894.801 187.762 890.176 189.155C885.607 190.492 880.954 191.468 876.218 192.081C871.481 192.694 866.94 193 862.593 193Z" fill="white" fill-opacity="0.69"/>
</g>
<defs>
<filter id="filter0_f_1703_19" x="0.631836" y="0.71582" width="994.817" height="263.789" filterUnits="userSpaceOnUse" color-interpolation-filters="sRGB">
<feFlood flood-opacity="0" result="BackgroundImageFix"/>
<feBlend mode="normal" in="SourceGraphic" in2="BackgroundImageFix" result="shape"/>
<feGaussianBlur stdDeviation="35" result="effect1_foregroundBlur_1703_19"/>
</filter>
</defs>
</svg>
