<svg width="1503" height="296" viewBox="0 0 1503 296" fill="none" xmlns="http://www.w3.org/2000/svg">
<path d="M88.1703 237.8C80.4821 239.053 73.1715 239.003 66.2386 237.647C59.3056 236.292 53.0573 233.8 47.4937 230.17C41.9807 226.47 37.3438 221.664 33.583 215.752C29.8222 209.84 27.3001 202.949 26.0167 195.079C24.8715 188.057 24.6535 181.194 25.3626 174.491C26.0717 167.788 27.5813 161.42 29.8914 155.388C32.1917 149.295 35.2466 143.639 39.0564 138.418C42.8563 133.138 47.249 128.444 52.2347 124.337C57.2809 120.22 62.8743 116.791 69.0148 114.05C75.206 111.238 81.7825 109.264 88.7443 108.129C92.4371 107.527 96.2447 107.247 100.167 107.291C104.09 107.335 107.976 107.727 111.825 108.467C115.674 109.206 119.366 110.313 122.9 111.788C126.435 113.262 129.64 115.194 132.515 117.584C135.381 119.913 137.796 122.72 139.761 126.004C141.716 129.228 143.04 132.958 143.731 137.196C144.135 139.678 143.986 142.002 143.283 144.167C142.57 146.272 141.514 148.185 140.117 149.904C138.77 151.553 137.181 153.055 135.351 154.41C133.572 155.694 131.763 156.797 129.925 157.719C128.086 158.64 126.344 159.39 124.699 159.969C123.104 160.478 121.822 160.811 120.853 160.969C119.4 161.206 117.887 161.266 116.315 161.15C114.793 160.963 113.352 160.514 111.994 159.804C110.695 159.083 109.529 158.031 108.495 156.645C107.522 155.251 106.858 153.463 106.502 151.284C105.979 148.076 104.792 145.752 102.942 144.314C101.152 142.865 98.7134 142.393 95.626 142.897C92.8413 143.351 90.3468 144.441 88.1425 146.168C85.9889 147.824 84.1212 149.9 82.5394 152.395C80.9477 154.83 79.6222 157.563 78.5629 160.595C77.5543 163.556 76.7723 166.573 76.2171 169.647C75.6519 172.66 75.324 175.603 75.2333 178.477C75.1933 181.28 75.3509 183.771 75.7063 185.95C76.1012 188.372 76.8248 190.522 77.877 192.402C78.9293 194.281 80.149 195.853 81.5361 197.118C82.9838 198.374 84.5285 199.272 86.1703 199.812C87.8726 200.342 89.5713 200.469 91.2663 200.193C92.9614 199.916 94.7127 199.413 96.5202 198.683C98.3883 197.944 100.075 197.047 101.582 195.994C103.078 194.879 104.237 193.603 105.059 192.164C105.941 190.715 106.244 189.143 105.968 187.448C105.05 181.818 105.831 177.464 108.312 174.387C110.854 171.3 115.394 169.224 121.932 168.158C125.201 167.625 128.06 167.624 130.508 168.157C132.947 168.63 135.026 169.565 136.746 170.962C138.465 172.36 139.845 174.155 140.886 176.346C141.918 178.478 142.655 180.905 143.1 183.63C143.87 188.352 143.677 192.889 142.523 197.241C141.358 201.532 139.468 205.569 136.853 209.352C134.299 213.124 131.166 216.587 127.454 219.741C123.743 222.894 119.725 225.693 115.4 228.139C111.076 230.584 106.561 232.625 101.856 234.263C97.2121 235.89 92.6501 237.069 88.1703 237.8Z" fill="#B035E6"/>
<path d="M213.474 217.522C206.54 218.429 199.972 218.578 193.768 217.967C187.556 217.295 182.023 215.668 177.169 213.087C172.315 210.505 168.281 206.858 165.066 202.144C161.912 197.423 159.861 191.443 158.914 184.206C158.118 178.124 158.028 171.764 158.644 165.126C159.313 158.42 160.644 151.812 162.638 145.303C164.632 138.794 167.247 132.545 170.484 126.554C173.721 120.562 177.536 115.207 181.929 110.488C186.375 105.699 191.362 101.737 196.89 98.6012C202.41 95.4044 208.424 93.3802 214.932 92.5286C222.595 91.5257 229.574 91.9115 235.868 93.6859C242.163 95.4602 247.646 98.3615 252.318 102.39C256.989 106.418 260.769 111.429 263.657 117.422C266.597 123.347 268.553 130.02 269.524 137.439C270.352 143.765 270.46 150.029 269.849 156.233C269.299 162.429 268.032 168.348 266.049 173.99C264.126 179.623 261.54 184.91 258.289 189.852C255.091 194.724 251.271 199.09 246.827 202.95C242.436 206.742 237.437 209.901 231.829 212.429C226.282 214.949 220.164 216.647 213.474 217.522ZM211.324 171.316C214 170.965 216.108 169.823 217.649 167.89C219.19 165.956 220.322 163.735 221.046 161.228C221.761 158.66 222.161 156.041 222.244 153.37C222.32 150.638 222.238 148.36 222 146.535C221.912 145.866 221.75 144.867 221.514 143.537C221.27 142.146 220.879 140.805 220.339 139.515C219.851 138.156 219.24 137.03 218.504 136.136C217.761 135.182 216.842 134.776 215.747 134.92C214.409 135.095 213.161 135.722 212.003 136.802C210.906 137.873 209.91 139.241 209.014 140.904C208.171 142.499 207.417 144.299 206.752 146.304C206.078 148.248 205.53 150.206 205.108 152.179C204.739 154.083 204.483 155.911 204.341 157.661C204.199 159.412 204.199 160.835 204.343 161.929C204.462 162.842 204.662 163.898 204.943 165.099C205.216 166.238 205.602 167.301 206.103 168.287C206.664 169.265 207.357 170.072 208.182 170.706C208.999 171.28 210.047 171.483 211.324 171.316Z" fill="#B035E6"/>
<path d="M308.415 209.14C305.422 209.414 302.743 209.073 300.377 208.119C298.005 207.104 295.905 205.694 294.078 203.89C292.311 202.08 290.794 199.971 289.527 197.561C288.254 195.09 287.187 192.509 286.325 189.816C285.525 187.117 284.879 184.435 284.39 181.77C283.894 179.043 283.541 176.52 283.329 174.199C283.067 171.328 282.879 167.926 282.767 163.995C282.649 160.002 282.602 155.787 282.629 151.35C282.71 146.847 282.844 142.246 283.031 137.548C283.274 132.783 283.561 128.168 283.892 123.703C284.285 119.233 284.736 115.065 285.245 111.2C285.754 107.334 286.344 104.016 287.015 101.245C288.701 94.0694 291.939 88.3844 296.729 84.1898C301.52 79.9953 307.611 77.5606 315.002 76.8858C318.056 76.6069 320.658 76.7697 322.807 77.3742C324.951 77.9175 326.778 78.7054 328.289 79.7377C329.861 80.7644 331.139 81.9412 332.122 83.268C333.161 84.5282 334.039 85.7106 334.756 86.8154C335.534 87.9147 336.203 88.839 336.765 89.5885C337.381 90.2713 338.026 90.582 338.697 90.5207C339.736 90.4258 340.877 89.7673 342.12 88.5451C343.425 87.3174 345.054 85.9368 347.008 84.4033C348.962 82.8699 351.386 81.4168 354.278 80.044C357.171 78.6712 360.725 77.7924 364.939 77.4076C367.994 77.1287 370.723 77.3414 373.128 78.0457C375.588 78.6834 377.799 79.621 379.76 80.8586C381.715 82.0351 383.437 83.3561 384.926 84.8216C386.47 86.2204 387.825 87.5748 388.992 88.8849C390.214 90.1283 391.295 91.1691 392.234 92.0073C393.167 92.7844 394.031 93.1367 394.825 93.0642C395.435 93.0084 396.343 92.4944 397.548 91.5221C398.808 90.4831 400.293 89.2081 402.003 87.697C403.774 86.1802 405.686 84.5274 407.74 82.7385C409.855 80.944 412.042 79.266 414.302 77.7047C416.561 76.1434 418.843 74.8264 421.147 73.7537C423.507 72.6144 425.786 71.9443 427.985 71.7435C431.834 71.3922 435.346 71.749 438.523 72.8139C441.755 73.8122 444.696 75.3299 447.346 77.3669C449.996 79.4038 452.343 81.838 454.388 84.6693C456.432 87.5006 458.188 90.5431 459.656 93.7967C461.117 96.9892 462.282 100.301 463.15 103.733C464.017 107.164 464.599 110.499 464.895 113.736C465.263 117.768 465.414 121.788 465.349 125.798C465.284 129.807 465.097 133.828 464.787 137.859C464.517 141.641 464.241 145.701 463.959 150.038C463.672 154.314 463.169 158.579 462.448 162.833C461.789 167.081 460.811 171.205 459.513 175.204C458.215 179.203 456.417 182.785 454.119 185.951C451.883 189.112 449.043 191.743 445.601 193.843C442.153 195.882 437.956 197.128 433.008 197.58C430.259 197.831 427.51 197.743 424.761 197.316C422.068 196.823 419.616 195.938 417.405 194.662C415.25 193.319 413.428 191.576 411.939 189.433C410.511 187.285 409.654 184.653 409.37 181.538C408.957 177.017 408.917 172.525 409.248 168.06C409.574 163.534 409.964 159.033 410.417 154.557C410.871 150.081 411.263 145.61 411.595 141.145C411.921 136.619 411.877 132.096 411.464 127.576C411.364 126.477 411.18 125.139 410.913 123.562C410.64 121.923 410.19 120.363 409.562 118.881C408.995 117.393 408.206 116.171 407.195 115.217C406.239 114.195 404.967 113.757 403.379 113.902C401.608 114.064 400.264 114.864 399.348 116.303C398.433 117.741 397.809 119.677 397.477 122.109C397.144 124.542 397.032 127.354 397.138 130.547C397.245 133.74 397.435 137.172 397.709 140.843C398.043 144.508 398.395 148.356 398.763 152.387C399.125 156.358 399.394 160.306 399.567 164.232C399.775 169.202 399.343 173.922 398.273 178.393C397.203 182.864 395.472 186.841 393.08 190.324C390.683 193.745 387.585 196.584 383.788 198.84C379.984 201.035 375.456 202.373 370.203 202.852C367.882 203.064 365.211 202.815 362.19 202.106C359.224 201.329 356.377 200.173 353.65 198.635C350.979 197.032 348.648 195.12 346.659 192.899C344.726 190.612 343.634 188.094 343.383 185.345C343.098 182.23 343.269 179.042 343.895 175.782C344.577 172.456 345.473 169.11 346.582 165.744C347.691 162.378 348.92 158.971 350.268 155.522C351.677 152.067 352.936 148.657 354.046 145.291C355.155 141.926 356.023 138.613 356.649 135.353C357.331 132.026 357.529 128.805 357.245 125.69C357.156 124.713 356.989 123.558 356.744 122.225C356.56 120.887 356.199 119.626 355.66 118.444C355.176 117.195 354.498 116.179 353.626 115.396C352.809 114.547 351.698 114.186 350.294 114.314C348.889 114.443 347.528 115.398 346.213 117.181C344.959 118.959 343.78 121.222 342.676 123.972C341.566 126.66 340.543 129.617 339.605 132.844C338.729 136.065 337.936 139.186 337.227 142.208C336.578 145.223 336.057 147.95 335.664 150.388C335.271 152.826 335.033 154.603 334.95 155.719C334.729 158.696 334.48 162.045 334.204 165.765C333.989 169.481 333.593 173.243 333.017 177.053C332.441 180.862 331.615 184.633 330.539 188.366C329.458 192.037 327.943 195.347 325.995 198.297C324.108 201.24 321.746 203.704 318.909 205.688C316.067 207.61 312.569 208.761 308.415 209.14Z" fill="#B035E6"/>
<path d="M540.314 107.415C542.458 107.303 544.217 106.874 545.59 106.127C546.964 105.38 548.05 104.402 548.847 103.194C549.705 101.982 550.278 100.601 550.566 99.0504C550.854 97.5 550.955 95.8978 550.869 94.2439C550.818 93.2639 550.733 92.2241 550.614 91.1247C550.496 90.0254 550.229 89.0258 549.813 88.1261C549.398 87.2264 548.776 86.491 547.948 85.9199C547.181 85.3456 546.124 85.0935 544.776 85.1636C543.184 85.2465 541.773 85.8727 540.544 87.0422C539.373 88.1472 538.368 89.4893 537.529 91.0685C536.751 92.6444 536.162 94.3027 535.761 96.0433C535.421 97.7808 535.285 99.2927 535.352 100.579C535.384 101.192 535.512 101.891 535.737 102.678C535.963 103.465 536.278 104.216 536.684 104.932C537.09 105.648 537.582 106.267 538.162 106.79C538.8 107.248 539.518 107.456 540.314 107.415ZM516.892 192.011C512.359 192.247 508.309 191.721 504.741 190.432C501.173 189.144 498.006 187.312 495.242 184.938C492.535 182.499 490.206 179.641 488.255 176.365C486.303 173.088 484.679 169.61 483.382 165.931C482.081 162.191 481.084 158.373 480.39 154.478C479.693 150.522 479.249 146.707 479.058 143.031C478.717 136.477 479.08 129.886 480.148 123.259C481.277 116.628 483.033 110.241 485.416 104.098C487.86 97.9519 490.939 92.2025 494.653 86.85C498.367 81.4975 502.667 76.7901 507.554 72.7278C512.498 68.6011 518.008 65.3049 524.083 62.8392C530.216 60.309 536.836 58.859 543.941 58.4894C547.923 58.2822 551.957 58.5023 556.045 59.1495C560.19 59.7323 564.174 60.7534 567.997 62.2129C571.816 63.6111 575.411 65.4202 578.782 67.6403C582.214 69.8571 585.206 72.4653 587.757 75.465C590.367 78.4003 592.444 81.7317 593.989 85.4594C595.595 89.1838 596.513 93.2512 596.743 97.6615C596.924 101.153 596.618 104.701 595.822 108.304C595.024 111.847 593.823 115.318 592.218 118.718C590.672 122.054 588.749 125.225 586.448 128.231C584.209 131.235 581.675 133.885 578.847 136.182C576.015 138.417 572.946 140.235 569.641 141.636C566.336 143.036 562.907 143.828 559.354 144.013C555.801 144.198 552.494 143.787 549.432 142.779C546.431 141.768 543.763 140.648 541.426 139.418C539.086 138.127 537.153 136.969 535.625 135.943C534.095 134.855 532.992 134.329 532.319 134.364C531.829 134.39 531.604 134.801 531.646 135.597C531.741 137.435 532.517 139.36 533.973 141.372C535.49 143.382 537.103 145.447 538.81 147.57C540.578 149.689 542.199 151.908 543.671 154.227C545.201 156.481 546.031 158.864 546.161 161.375C546.4 165.969 545.695 170.121 544.046 173.831C542.457 177.537 540.258 180.723 537.449 183.387C534.697 185.987 531.517 188.026 527.909 189.503C524.301 190.981 520.628 191.817 516.892 192.011Z" fill="#B035E6"/>
<path d="M661.337 182.753C653.733 182.915 646.531 181.78 639.73 179.348C632.93 176.916 626.966 173.424 621.838 168.87C616.772 164.316 612.697 158.82 609.615 152.382C606.595 145.943 605.001 138.799 604.834 130.95C604.694 124.388 605.418 118.084 607.007 112.038C608.596 105.992 610.93 100.328 614.008 95.048C617.085 89.7676 620.818 84.9947 625.206 80.7294C629.654 76.4014 634.636 72.6755 640.152 69.5518C645.668 66.4281 651.66 63.9998 658.126 62.2669C664.591 60.4727 671.38 59.4998 678.494 59.3482C681.315 59.2881 684.296 59.562 687.438 60.1699C690.64 60.7152 693.818 61.5985 696.973 62.8196C700.128 64.0408 703.167 65.6018 706.091 67.5027C709.015 69.4037 711.579 71.6497 713.781 74.2409C716.045 76.8307 717.856 79.7677 719.214 83.0517C720.633 86.2731 721.384 89.8768 721.469 93.8628C721.588 99.4432 720.429 104.069 717.992 107.741C715.616 111.411 712.519 114.33 708.7 116.497C704.881 118.665 700.65 120.227 696.008 121.185C691.364 122.081 686.865 122.576 682.512 122.669C678.955 122.745 675.731 122.599 672.839 122.231C670.008 121.8 667.391 121.335 664.987 120.834C662.584 120.333 660.397 119.888 658.425 119.501C656.514 119.051 654.699 118.844 652.982 118.881C652.185 118.898 651.239 119.102 650.143 119.493C649.108 119.884 648.138 120.426 647.232 121.12C646.326 121.753 645.544 122.506 644.888 123.378C644.292 124.189 644.003 125.054 644.023 125.974C644.067 128.059 644.412 129.83 645.056 131.289C645.762 132.746 646.923 133.949 648.538 134.896C650.152 135.782 652.313 136.411 655.02 136.782C657.789 137.153 661.258 137.294 665.428 137.205C668.372 137.142 671.645 136.704 675.247 135.891C678.848 135.017 682.479 134.081 686.138 133.083C689.798 132.084 693.337 131.181 696.756 130.372C700.173 129.501 703.169 129.039 705.745 128.984C707.523 128.946 709.003 129.313 710.185 130.086C711.428 130.795 712.43 131.756 713.192 132.966C713.952 134.116 714.502 135.454 714.842 136.98C715.18 138.446 715.365 139.945 715.398 141.478C715.523 147.365 714.504 152.785 712.339 157.74C710.175 162.694 706.831 166.998 702.307 170.653C697.845 174.306 692.201 177.187 685.374 179.296C678.548 181.405 670.536 182.557 661.337 182.753ZM670.291 101.947C671.149 101.929 672.096 101.725 673.13 101.335C674.165 100.944 675.104 100.372 675.947 99.618C676.79 98.8639 677.476 97.9597 678.005 96.9054C678.595 95.7885 678.876 94.5555 678.847 93.2064C678.816 91.7347 678.269 90.55 677.207 89.6523C676.143 88.6934 674.569 88.2361 672.484 88.2805C671.564 88.3001 670.557 88.5363 669.462 88.9891C668.429 89.4406 667.43 90.0447 666.464 90.8015C665.499 91.5583 664.69 92.4651 664.037 93.5219C663.446 94.5775 663.164 95.7185 663.19 96.945C663.228 98.7233 663.961 100.027 665.39 100.855C666.879 101.621 668.512 101.985 670.291 101.947Z" fill="#B035E6"/>
<path d="M778.245 185.164C775.117 185.135 772.146 184.71 769.332 183.886C766.518 183.002 764.046 181.722 761.914 180.046C759.844 178.31 758.208 176.179 757.004 173.653C755.8 171.127 755.275 168.178 755.429 164.806C755.583 161.311 756.045 157.727 756.815 154.053C757.646 150.319 758.631 146.586 759.769 142.855C760.908 139.062 762.138 135.332 763.46 131.664C764.782 127.995 766.04 124.51 767.236 121.209C767.614 120.108 768.117 118.733 768.746 117.082C769.375 115.371 770.004 113.628 770.633 111.855C771.263 110.082 771.8 108.369 772.245 106.717C772.69 105.004 772.948 103.565 773.02 102.4C773.023 102.032 772.873 101.754 772.568 101.568C772.324 101.32 771.989 101.164 771.56 101.098C771.192 101.034 770.794 100.999 770.365 100.995C769.997 100.992 769.69 100.989 769.445 100.987C767.727 100.971 766.008 101.201 764.286 101.676C762.626 102.09 760.965 102.566 759.304 103.103C757.644 103.578 755.983 104.054 754.323 104.529C752.663 104.944 750.943 105.143 749.165 105.126C747.079 105.107 745.242 104.753 743.654 104.064C742.066 103.313 740.725 102.32 739.633 101.083C738.54 99.7848 737.726 98.2745 737.19 96.5521C736.715 94.8303 736.517 92.9883 736.596 91.0262C736.669 89.8 736.803 88.5438 736.999 87.2574C737.195 85.9098 737.545 84.5328 738.048 83.1266C738.613 81.721 739.332 80.286 740.204 78.8218C741.137 77.3582 742.316 75.8662 743.741 74.3457C747.333 70.5754 751.012 67.45 754.776 64.9695C758.602 62.4895 762.852 60.5347 767.527 59.1053C772.202 57.6758 777.486 56.7119 783.379 56.2137C789.272 55.6541 796.145 55.4101 803.996 55.4818C806.878 55.5081 810.066 55.6906 813.559 56.0292C817.115 56.307 820.698 56.8304 824.31 57.5995C827.984 58.3691 831.532 59.4136 834.955 60.733C838.378 61.991 841.399 63.6441 844.018 65.6922C846.638 67.679 848.701 70.0901 850.209 72.9255C851.717 75.6995 852.393 78.9567 852.236 82.697C852.151 85.3338 851.576 87.7821 850.513 90.042C849.449 92.3019 848.021 94.2517 846.227 95.8915C844.494 97.5318 842.459 98.8014 840.12 99.7001C837.842 100.599 835.384 101.037 832.747 101.013C831.765 101.004 830.877 100.904 830.081 100.713C829.347 100.522 828.613 100.331 827.878 100.14C827.205 99.9502 826.502 99.7598 825.767 99.5691C825.094 99.3789 824.298 99.2796 823.378 99.2712C821.599 99.255 820.214 99.7637 819.223 100.797C818.233 101.77 817.701 102.961 817.627 104.371C817.478 107.192 817.575 109.983 817.918 112.747C818.323 115.449 818.451 118.18 818.303 120.939C818.076 125.722 817.511 130.47 816.609 135.185C815.708 139.839 814.775 144.553 813.812 149.329C813.234 152.145 812.594 155.053 811.892 158.052C811.19 160.99 810.244 163.834 809.054 166.583C807.864 169.271 806.338 171.772 804.477 174.086C802.677 176.401 800.359 178.343 797.523 179.911C794.564 181.541 791.424 182.831 788.103 183.782C784.843 184.734 781.557 185.194 778.245 185.164Z" fill="#B035E6"/>
<path d="M878.071 187.339C875.067 187.243 872.045 186.747 869.005 185.852C865.966 184.957 863.215 183.641 860.755 181.905C858.356 180.172 856.43 178.023 854.978 175.461C853.526 172.898 852.856 169.87 852.968 166.375C852.983 165.885 852.999 165.394 853.015 164.904C853.094 164.354 853.172 163.835 853.249 163.347C853.855 159.745 854.546 155.41 855.322 150.341C856.1 145.211 857.1 139.874 858.32 134.328C859.541 128.783 861.067 123.309 862.897 117.905C864.729 112.441 867.002 107.573 869.716 103.303C872.493 98.9737 875.765 95.519 879.529 92.9394C883.296 90.2984 887.723 89.0594 892.812 89.2224C896.613 89.3441 899.719 90.088 902.13 91.4539C904.543 92.7586 906.389 94.5053 907.669 96.6942C909.011 98.8851 909.88 101.429 910.278 104.326C910.74 107.164 910.919 110.207 910.814 113.457C910.624 119.403 910.281 125.314 909.786 131.19C909.291 137.065 908.949 142.976 908.758 148.923C908.66 151.988 908.532 155.022 908.375 158.024C908.219 160.965 907.879 163.93 907.353 166.92C906.81 170.462 905.576 173.553 903.65 176.191C901.788 178.77 899.51 180.907 896.817 182.6C894.124 184.294 891.138 185.548 887.86 186.364C884.644 187.12 881.381 187.445 878.071 187.339ZM889.269 84.8745C886.878 84.7979 884.68 84.4514 882.674 83.8349C880.669 83.2183 878.949 82.3041 877.515 81.0921C876.083 79.8189 874.968 78.249 874.168 76.3823C873.371 74.4544 873.013 72.203 873.096 69.6281C873.243 65.0302 874.166 61.1322 875.864 57.934C877.625 54.6765 879.796 52.0458 882.376 50.0419C885.019 47.9787 887.859 46.5047 890.894 45.6201C893.993 44.676 896.952 44.2492 899.772 44.3395C902.102 44.4141 904.326 44.9149 906.444 45.8419C908.626 46.7095 910.519 47.9362 912.126 49.5218C913.734 51.0462 914.994 52.8969 915.906 55.074C916.818 57.2511 917.232 59.6578 917.148 62.2939C917.05 65.3592 916.066 68.2734 914.198 71.0365C912.33 73.7996 909.981 76.2405 907.152 78.3592C904.386 80.4185 901.388 82.0408 898.159 83.2261C894.991 84.4134 892.028 84.9629 889.269 84.8745Z" fill="#B035E6"/>
<path d="M965.126 190.693C962.002 190.521 959.054 189.96 956.28 189.009C953.51 187.997 951.099 186.605 949.046 184.833C947.058 183.004 945.521 180.8 944.434 178.222C943.347 175.644 942.957 172.674 943.265 169.312C943.579 165.828 944.205 162.268 945.141 158.634C946.143 154.942 947.298 151.258 948.605 147.583C949.916 143.846 951.316 140.176 952.804 136.572C954.292 132.968 955.709 129.544 957.054 126.301C957.482 125.219 958.048 123.868 958.751 122.248C959.458 120.567 960.166 118.855 960.876 117.112C961.586 115.37 962.201 113.684 962.721 112.054C963.244 110.362 963.568 108.937 963.693 107.776C963.713 107.409 963.575 107.125 963.279 106.924C963.048 106.666 962.719 106.494 962.294 106.409C961.93 106.328 961.533 106.276 961.105 106.252C960.737 106.232 960.431 106.215 960.186 106.202C958.471 106.107 956.743 106.258 955.001 106.654C953.324 106.992 951.643 107.391 949.959 107.851C948.279 108.25 946.598 108.649 944.918 109.048C943.241 109.386 941.514 109.506 939.738 109.409C937.656 109.294 935.837 108.856 934.281 108.095C932.73 107.273 931.436 106.219 930.401 104.933C929.369 103.587 928.625 102.041 928.168 100.295C927.772 98.5537 927.659 96.7046 927.828 94.7481C927.956 93.5266 928.148 92.2778 928.402 91.0018C928.66 89.6645 929.073 88.305 929.64 86.9233C930.268 85.5449 931.052 84.1444 931.99 82.7216C932.99 81.3023 934.236 79.8657 935.728 78.412C939.489 74.81 943.307 71.8562 947.181 69.5505C951.116 67.2481 955.451 65.4899 960.186 64.2758C964.922 63.0617 970.244 62.3407 976.154 62.1126C982.067 61.8232 988.943 61.894 996.783 62.3248C999.661 62.483 1002.84 62.8111 1006.31 63.3091C1009.85 63.7493 1013.41 64.4362 1016.98 65.3697C1020.61 66.3066 1024.11 67.5123 1027.47 68.9869C1030.83 70.4003 1033.77 72.1899 1036.3 74.3557C1038.82 76.4602 1040.77 78.9632 1042.15 81.8646C1043.53 84.7048 1044.06 87.9894 1043.73 91.7186C1043.52 94.3488 1042.84 96.7683 1041.67 98.9771C1040.5 101.186 1038.99 103.068 1037.12 104.624C1035.32 106.184 1033.22 107.359 1030.85 108.15C1028.53 108.944 1026.05 109.268 1023.42 109.124C1022.44 109.07 1021.56 108.929 1020.77 108.702C1020.05 108.478 1019.32 108.253 1018.6 108.029C1017.93 107.809 1017.24 107.586 1016.51 107.362C1015.85 107.141 1015.06 107.006 1014.14 106.955C1012.37 106.858 1010.96 107.302 1009.92 108.29C1008.89 109.216 1008.3 110.381 1008.16 111.787C1007.89 114.597 1007.85 117.391 1008.07 120.167C1008.35 122.885 1008.35 125.619 1008.08 128.368C1007.63 133.135 1006.85 137.853 1005.74 142.522C1004.62 147.129 1003.48 151.796 1002.29 156.523C1001.59 159.31 1000.82 162.185 999.978 165.149C999.143 168.052 998.068 170.849 996.752 173.541C995.441 176.172 993.802 178.601 991.837 180.827C989.933 183.057 987.529 184.89 984.624 186.328C981.593 187.82 978.397 188.965 975.036 189.763C971.737 190.565 968.433 190.875 965.126 190.693Z" fill="#B035E6"/>
<path d="M1064.75 197.433C1061.75 197.199 1058.76 196.566 1055.76 195.533C1052.76 194.499 1050.08 193.059 1047.7 191.213C1045.38 189.371 1043.56 187.137 1042.22 184.511C1040.89 181.884 1040.36 178.828 1040.63 175.343C1040.67 174.854 1040.71 174.364 1040.74 173.875C1040.85 173.33 1040.95 172.815 1041.05 172.33C1041.82 168.76 1042.71 164.461 1043.72 159.433C1044.73 154.344 1045.97 149.058 1047.44 143.574C1048.92 138.09 1050.69 132.692 1052.77 127.378C1054.85 122.003 1057.34 117.245 1060.25 113.103C1063.22 108.905 1066.65 105.604 1070.52 103.199C1074.41 100.733 1078.89 99.6981 1083.96 100.094C1087.75 100.389 1090.82 101.274 1093.17 102.749C1095.52 104.163 1097.28 105.992 1098.46 108.238C1099.7 110.487 1100.45 113.069 1100.72 115.981C1101.05 118.837 1101.09 121.885 1100.84 125.126C1100.38 131.058 1099.76 136.947 1099 142.794C1098.24 148.641 1097.62 154.53 1097.16 160.461C1096.92 163.519 1096.66 166.544 1096.36 169.535C1096.07 172.466 1095.6 175.413 1094.93 178.376C1094.23 181.889 1092.85 184.92 1090.81 187.467C1088.83 189.959 1086.46 191.988 1083.69 193.557C1080.92 195.125 1077.88 196.242 1074.57 196.907C1071.32 197.515 1068.05 197.69 1064.75 197.433ZM1080.62 95.5883C1078.24 95.4024 1076.06 94.9556 1074.08 94.248C1072.11 93.5403 1070.43 92.5484 1069.05 91.2721C1067.68 89.9347 1066.64 88.3153 1065.93 86.4141C1065.22 84.4516 1064.96 82.1862 1065.16 79.6179C1065.52 75.0315 1066.62 71.1798 1068.46 68.0627C1070.37 64.8892 1072.66 62.3605 1075.33 60.4768C1078.07 58.5367 1080.97 57.1942 1084.04 56.4493C1087.18 55.648 1090.16 55.357 1092.97 55.5763C1095.29 55.7574 1097.49 56.3594 1099.57 57.3824C1101.7 58.3489 1103.54 59.661 1105.07 61.3184C1106.61 62.9148 1107.78 64.8212 1108.6 67.0378C1109.41 69.2543 1109.71 71.6774 1109.51 74.3069C1109.27 77.3645 1108.15 80.2306 1106.16 82.9054C1104.17 85.5801 1101.71 87.911 1098.78 89.898C1095.93 91.8286 1092.86 93.312 1089.58 94.3484C1086.36 95.3895 1083.37 95.8028 1080.62 95.5883Z" fill="#B035E6"/>
<path d="M1155.79 202.141C1148.84 201.437 1142.41 200.077 1136.51 198.062C1130.62 195.985 1125.6 193.135 1121.47 189.511C1117.34 185.886 1114.24 181.412 1112.19 176.087C1110.21 170.769 1109.58 164.479 1110.31 157.217C1110.93 151.114 1112.3 144.903 1114.42 138.582C1116.61 132.207 1119.42 126.08 1122.85 120.201C1126.28 114.321 1130.26 108.836 1134.78 103.746C1139.3 98.6552 1144.24 94.3158 1149.6 90.7277C1155.02 87.0846 1160.78 84.3698 1166.88 82.583C1172.99 80.7352 1179.31 80.1419 1185.84 80.8031C1193.53 81.5816 1200.23 83.5552 1205.95 86.7238C1211.67 89.8925 1216.34 93.9722 1219.97 98.9631C1223.6 103.954 1226.13 109.697 1227.57 116.193C1229.07 122.634 1229.45 129.577 1228.69 137.022C1228.05 143.368 1226.72 149.491 1224.71 155.391C1222.75 161.296 1220.16 166.768 1216.94 171.805C1213.78 176.848 1210.05 181.403 1205.75 185.468C1201.53 189.479 1196.81 192.854 1191.6 195.594C1186.46 198.28 1180.87 200.21 1174.83 201.387C1168.85 202.57 1162.51 202.821 1155.79 202.141ZM1164.28 156.67C1166.97 156.942 1169.28 156.313 1171.22 154.784C1173.17 153.254 1174.78 151.352 1176.06 149.077C1177.34 146.741 1178.33 144.283 1179.02 141.702C1179.72 139.06 1180.16 136.824 1180.35 134.993C1180.42 134.322 1180.49 133.312 1180.56 131.963C1180.64 130.553 1180.57 129.159 1180.34 127.779C1180.18 126.345 1179.84 125.108 1179.33 124.07C1178.82 122.971 1178.02 122.366 1176.92 122.255C1175.58 122.119 1174.22 122.443 1172.85 123.229C1171.53 124.021 1170.25 125.124 1169 126.538C1167.81 127.898 1166.67 129.477 1165.56 131.276C1164.46 133.014 1163.48 134.795 1162.61 136.619C1161.82 138.388 1161.15 140.108 1160.61 141.78C1160.07 143.452 1159.75 144.837 1159.64 145.935C1159.54 146.85 1159.5 147.925 1159.49 149.157C1159.5 150.329 1159.63 151.452 1159.89 152.527C1160.22 153.608 1160.71 154.551 1161.36 155.358C1162.03 156.103 1163 156.541 1164.28 156.67Z" fill="#B035E6"/>
<path d="M1249.69 216.076C1246.59 215.661 1243.93 214.718 1241.72 213.246C1239.56 211.783 1237.76 209.964 1236.32 207.791C1234.94 205.626 1233.87 203.194 1233.12 200.495C1232.42 197.803 1231.96 195.049 1231.71 192.232C1231.47 189.415 1231.41 186.622 1231.53 183.854C1231.66 181.085 1231.88 178.515 1232.19 176.144C1232.58 173.226 1233.16 169.838 1233.92 165.979C1234.75 162.129 1235.69 158.078 1236.75 153.826C1237.82 149.514 1239 145.122 1240.28 140.652C1241.55 136.182 1242.85 131.837 1244.15 127.618C1245.52 123.407 1246.85 119.439 1248.16 115.714C1249.52 111.998 1250.82 108.768 1252.05 106.024C1253.55 102.697 1255.45 99.8253 1257.75 97.4101C1260.11 95.0031 1262.72 93.0622 1265.58 91.5875C1268.5 90.121 1271.63 89.147 1274.98 88.6655C1278.39 88.1313 1281.86 88.0998 1285.38 88.5709C1288.55 88.9932 1291.14 89.7417 1293.16 90.8163C1295.25 91.8383 1296.92 93.0202 1298.16 94.3622C1299.47 95.7122 1300.48 97.1474 1301.21 98.6675C1301.94 100.127 1302.53 101.475 1302.99 102.711C1303.5 103.956 1303.95 105.005 1304.33 105.861C1304.78 106.663 1305.34 107.109 1306.01 107.199C1306.68 107.288 1307.75 107.122 1309.23 106.701C1310.72 106.219 1312.44 105.614 1314.39 104.885C1316.35 104.155 1318.47 103.355 1320.75 102.485C1323.03 101.614 1325.33 100.838 1327.65 100.158C1330.03 99.4855 1332.32 98.9875 1334.53 98.6638C1336.81 98.2875 1338.86 98.2211 1340.68 98.4648C1345.12 99.0577 1348.9 100.398 1352.03 102.486C1355.21 104.583 1357.84 107.192 1359.89 110.313C1362.02 113.382 1363.64 116.816 1364.74 120.614C1365.9 124.42 1366.7 128.364 1367.15 132.446C1367.66 136.475 1367.84 140.49 1367.67 144.49C1367.57 148.499 1367.29 152.236 1366.83 155.702C1366.22 160.2 1365.19 165.137 1363.73 170.511C1362.34 175.833 1360.49 181.124 1358.18 186.385C1355.93 191.653 1353.24 196.709 1350.12 201.552C1347 206.334 1343.45 210.469 1339.46 213.958C1335.52 217.455 1331.15 220.119 1326.32 221.95C1321.57 223.728 1316.36 224.24 1310.71 223.484C1308.22 223.151 1305.62 222.463 1302.91 221.421C1300.2 220.379 1297.75 219.03 1295.56 217.376C1293.38 215.661 1291.63 213.634 1290.34 211.295C1289.04 208.956 1288.59 206.297 1288.99 203.318C1289.23 201.494 1289.69 199.729 1290.35 198.022C1291.01 196.316 1291.7 194.614 1292.42 192.916C1293.33 190.748 1294.34 188.253 1295.46 185.432C1296.65 182.559 1297.86 179.564 1299.08 176.447C1300.37 173.278 1301.6 170.04 1302.79 166.732C1304.04 163.373 1305.19 160.122 1306.23 156.981C1307.33 153.787 1308.26 150.786 1309.01 147.977C1309.76 145.108 1310.29 142.579 1310.58 140.39C1310.68 139.661 1310.73 138.771 1310.75 137.721C1310.83 136.679 1310.75 135.648 1310.51 134.626C1310.28 133.605 1309.81 132.707 1309.11 131.933C1308.48 131.106 1307.49 130.603 1306.15 130.424C1305.49 130.335 1304.58 130.369 1303.45 130.527C1302.37 130.693 1301.23 131.592 1300.03 133.225C1298.83 134.798 1297.63 136.804 1296.44 139.244C1295.24 141.683 1294.08 144.405 1292.93 147.408C1291.8 150.35 1290.73 153.27 1289.72 156.168C1288.77 159.074 1287.88 161.802 1287.05 164.351C1286.28 166.848 1285.64 168.897 1285.11 170.497C1284.26 173.168 1283.56 175.89 1283 178.662C1282.45 181.374 1281.78 184.069 1280.99 186.748C1279.98 190.201 1278.57 193.788 1276.77 197.508C1274.97 201.229 1272.77 204.554 1270.15 207.484C1267.59 210.422 1264.59 212.743 1261.14 214.449C1257.77 216.102 1253.95 216.644 1249.69 216.076Z" fill="#B035E6"/>
<path d="M1408.87 239.157C1406.15 238.708 1403.16 237.996 1399.9 237.022C1396.7 236.059 1393.49 234.843 1390.25 233.376C1387.08 231.858 1384.04 230.112 1381.13 228.14C1378.23 226.168 1375.73 223.953 1373.65 221.495C1371.58 218.978 1370.01 216.232 1368.95 213.259C1367.95 210.296 1367.73 207.089 1368.3 203.64C1368.89 200.069 1370.13 197.073 1372.03 194.65C1373.93 192.166 1376.21 190.212 1378.87 188.786C1381.59 187.371 1384.54 186.459 1387.71 186.051C1390.96 185.593 1394.22 185.634 1397.48 186.173C1400.03 186.593 1402.5 187.22 1404.91 188.054C1407.33 188.887 1409.73 189.781 1412.12 190.736C1414.58 191.64 1417.02 192.508 1419.43 193.342C1421.84 194.176 1424.32 194.802 1426.86 195.222C1427.4 195.312 1428.07 195.236 1428.85 194.992C1429.65 194.689 1430.1 194.204 1430.21 193.538C1430.27 193.175 1430.17 192.848 1429.91 192.556C1429.72 192.213 1429.42 191.916 1429.03 191.665C1428.71 191.362 1428.34 191.116 1427.94 190.925C1427.61 190.683 1427.32 190.512 1427.09 190.412C1423.77 188.682 1420.16 187.185 1416.27 185.92C1412.38 184.655 1408.49 183.36 1404.6 182.034C1400.79 180.658 1397.16 179.125 1393.71 177.436C1390.26 175.747 1387.28 173.639 1384.77 171.111C1382.34 168.533 1380.56 165.38 1379.44 161.65C1378.38 157.87 1378.3 153.287 1379.19 147.901C1380.14 142.152 1381.98 137.204 1384.72 133.055C1387.46 128.907 1390.79 125.448 1394.73 122.68C1398.68 119.851 1403.09 117.626 1407.96 116.006C1412.83 114.385 1417.86 113.259 1423.06 112.626C1428.28 111.933 1433.51 111.679 1438.76 111.863C1444.02 112.047 1448.97 112.524 1453.63 113.294C1456.42 113.754 1459.32 114.42 1462.35 115.293C1465.38 116.166 1468.33 117.276 1471.22 118.623C1474.16 119.98 1476.91 121.585 1479.47 123.437C1482.03 125.228 1484.21 127.297 1486 129.644C1487.78 131.991 1489.09 134.601 1489.92 137.473C1490.76 140.346 1490.89 143.507 1490.32 146.957C1489.84 149.861 1488.83 152.772 1487.29 155.688C1485.76 158.544 1483.85 161.088 1481.55 163.32C1479.27 165.491 1476.66 167.144 1473.74 168.277C1470.82 169.411 1467.75 169.713 1464.54 169.183C1461.52 168.683 1458.53 167.971 1455.57 167.048C1452.62 166.064 1449.68 165.049 1446.75 164.005C1443.87 162.97 1440.96 161.991 1438 161.068C1435.06 160.084 1432.04 159.337 1428.95 158.827C1428.83 158.807 1428.62 158.772 1428.32 158.722C1428.01 158.672 1427.71 158.652 1427.39 158.663C1427.09 158.613 1426.81 158.628 1426.55 158.709C1426.35 158.8 1426.26 158.972 1426.28 159.224C1426.36 160.605 1427.21 161.834 1428.84 162.911C1430.46 163.988 1432.56 165.048 1435.12 166.094C1437.68 167.139 1440.55 168.203 1443.73 169.288C1446.98 170.322 1450.23 171.512 1453.49 172.859C1456.81 174.215 1459.97 175.794 1462.97 177.595C1465.97 179.335 1468.58 181.414 1470.8 183.83C1473.01 186.247 1474.62 189.064 1475.65 192.279C1476.68 195.434 1476.85 199.099 1476.16 203.274C1475.39 207.934 1473.76 212.172 1471.26 215.987C1468.78 219.742 1465.71 223.058 1462.07 225.938C1458.48 228.827 1454.44 231.268 1449.95 233.26C1445.52 235.203 1440.92 236.742 1436.13 237.878C1431.41 238.964 1426.7 239.616 1422 239.835C1417.31 240.053 1412.93 239.827 1408.87 239.157Z" fill="#B035E6"/>
</svg>
