<svg width="1213" height="382" viewBox="0 0 1213 382" fill="none" xmlns="http://www.w3.org/2000/svg">
<g filter="url(#filter0_d_1694_11)">
<path d="M157.677 281.645C146.598 281.645 136.347 279.9 126.926 276.41C117.504 272.921 109.304 267.992 102.325 261.624C95.4338 255.169 90.0252 247.361 86.0996 238.201C82.174 229.041 80.2112 218.791 80.2112 207.451C80.2112 197.331 81.4761 187.648 84.0059 178.401C86.5358 169.154 90.1124 160.561 94.7359 152.623C99.3594 144.597 104.943 137.357 111.485 130.901C118.028 124.359 125.268 118.775 133.207 114.152C141.233 109.528 149.869 105.995 159.116 103.553C168.45 101.023 178.133 99.758 188.165 99.758C193.487 99.758 198.895 100.238 204.391 101.197C209.887 102.157 215.252 103.596 220.486 105.516C225.72 107.435 230.649 109.834 235.273 112.713C239.896 115.591 243.953 119.037 247.442 123.05C250.932 126.976 253.68 131.468 255.686 136.528C257.692 141.5 258.696 147.04 258.696 153.146C258.696 156.723 257.954 159.951 256.471 162.829C254.988 165.621 253.069 168.064 250.714 170.157C248.445 172.164 245.872 173.908 242.993 175.391C240.202 176.787 237.41 177.921 234.619 178.794C231.827 179.666 229.21 180.32 226.767 180.756C224.412 181.105 222.536 181.28 221.141 181.28C219.047 181.28 216.91 181.018 214.729 180.495C212.635 179.884 210.716 178.924 208.971 177.616C207.314 176.307 205.918 174.563 204.784 172.382C203.737 170.201 203.214 167.54 203.214 164.4C203.214 159.776 202.08 156.243 199.811 153.801C197.631 151.358 194.316 150.137 189.867 150.137C185.854 150.137 182.103 151.096 178.613 153.015C175.211 154.847 172.114 157.334 169.323 160.474C166.531 163.527 164.045 167.06 161.864 171.073C159.77 174.999 157.982 179.055 156.499 183.243C155.016 187.343 153.882 191.399 153.097 195.412C152.399 199.338 152.05 202.871 152.05 206.011C152.05 209.501 152.573 212.685 153.62 215.564C154.667 218.442 156.019 220.929 157.677 223.022C159.421 225.116 161.384 226.73 163.565 227.864C165.833 228.998 168.188 229.565 170.631 229.565C173.074 229.565 175.647 229.26 178.351 228.649C181.143 228.038 183.716 227.166 186.072 226.032C188.427 224.811 190.346 223.284 191.829 221.452C193.4 219.62 194.185 217.483 194.185 215.04C194.185 206.927 196.278 200.995 200.466 197.244C204.74 193.493 211.588 191.617 221.01 191.617C225.72 191.617 229.733 192.272 233.048 193.58C236.363 194.801 239.068 196.59 241.161 198.945C243.255 201.3 244.781 204.136 245.741 207.451C246.701 210.678 247.18 214.255 247.18 218.181C247.18 224.985 245.872 231.31 243.255 237.154C240.638 242.912 237.061 248.146 232.525 252.857C228.076 257.568 222.885 261.711 216.953 265.288C211.021 268.865 204.74 271.874 198.11 274.317C191.48 276.759 184.676 278.591 177.697 279.813C170.806 281.034 164.132 281.645 157.677 281.645ZM293.827 284.523C289.902 284.523 286.456 283.913 283.49 282.691C280.611 281.383 278.125 279.638 276.031 277.457C273.937 275.276 272.193 272.747 270.797 269.868C269.401 266.902 268.311 263.805 267.526 260.577C266.74 257.349 266.173 254.078 265.825 250.763C265.563 247.361 265.432 244.09 265.432 240.949C265.432 234.581 265.825 228.213 266.61 221.845C267.482 215.476 268.529 209.152 269.75 202.871C271.059 196.503 272.498 190.178 274.068 183.897C275.639 177.616 277.122 171.422 278.517 165.316C279.739 160.343 280.96 154.935 282.181 149.09C283.49 143.158 285.147 137.4 287.154 131.817C289.16 126.147 291.69 120.913 294.743 116.115C297.884 111.317 301.853 107.522 306.651 104.73C310.925 102.201 315.462 100.281 320.26 98.9729C325.058 97.5771 329.943 96.8792 334.915 96.8792C339.452 96.8792 343.595 97.4026 347.346 98.4495C351.185 99.4091 354.456 101.023 357.16 103.291C359.865 105.472 361.958 108.307 363.441 111.797C364.924 115.199 365.666 119.342 365.666 124.228C365.666 129.2 364.924 134.652 363.441 140.584C362.046 146.429 360.257 152.448 358.076 158.642C355.983 164.836 353.671 171.073 351.141 177.354C348.611 183.635 346.256 189.654 344.075 195.412C341.981 201.082 340.193 206.404 338.71 211.376C337.314 216.261 336.616 220.449 336.616 223.938C336.616 226.555 336.965 228.562 337.663 229.957C338.448 231.266 339.408 232.313 340.542 233.098C341.763 233.796 343.028 234.363 344.337 234.799C345.645 235.148 346.867 235.715 348.001 236.5C349.222 237.198 350.182 238.201 350.879 239.51C351.665 240.818 352.057 242.737 352.057 245.267C352.057 251.025 351.228 256.041 349.571 260.315C348.001 264.503 345.82 268.036 343.028 270.915C340.237 273.793 336.965 276.149 333.214 277.981C329.463 279.725 325.407 281.121 321.045 282.168C316.77 283.128 312.321 283.738 307.698 284C303.074 284.349 298.451 284.523 293.827 284.523ZM437.829 279.289C427.884 279.289 418.594 278.286 409.957 276.28C401.321 274.186 393.819 270.871 387.45 266.335C381.082 261.798 376.066 255.91 372.402 248.67C368.826 241.429 367.037 232.618 367.037 222.237C367.037 213.513 368.084 204.528 370.178 195.281C372.359 185.947 375.455 176.874 379.468 168.064C383.481 159.253 388.323 150.922 393.993 143.071C399.663 135.219 406.032 128.371 413.098 122.527C420.251 116.595 428.015 111.927 436.39 108.525C444.764 105.036 453.619 103.291 462.953 103.291C473.945 103.291 483.715 105.123 492.264 108.787C500.813 112.451 508.01 117.554 513.855 124.097C519.7 130.639 524.105 138.403 527.071 147.389C530.125 156.287 531.651 166.057 531.651 176.7C531.651 185.773 530.648 194.627 528.642 203.263C526.722 211.9 523.844 220.013 520.005 227.602C516.254 235.192 511.631 242.17 506.135 248.539C500.726 254.82 494.532 260.272 487.553 264.895C480.662 269.432 473.029 272.965 464.654 275.495C456.367 278.024 447.425 279.289 437.829 279.289ZM443.325 213.732C447.163 213.732 450.347 212.51 452.877 210.068C455.407 207.625 457.413 204.703 458.897 201.3C460.38 197.811 461.426 194.191 462.037 190.44C462.648 186.601 462.953 183.374 462.953 180.756C462.953 179.797 462.909 178.357 462.822 176.438C462.735 174.432 462.43 172.469 461.906 170.55C461.47 168.543 460.816 166.842 459.943 165.447C459.071 163.964 457.85 163.222 456.279 163.222C454.36 163.222 452.485 163.876 450.653 165.185C448.908 166.493 447.251 168.238 445.68 170.419C444.197 172.513 442.801 174.912 441.493 177.616C440.184 180.233 439.05 182.894 438.091 185.598C437.218 188.215 436.521 190.745 435.997 193.188C435.474 195.63 435.212 197.637 435.212 199.207C435.212 200.515 435.299 202.042 435.474 203.787C435.648 205.444 435.997 207.014 436.521 208.497C437.131 209.98 437.96 211.245 439.007 212.292C440.054 213.252 441.493 213.732 443.325 213.732ZM600.805 284.654C596.879 284.654 592.517 284.349 587.719 283.738C583.009 283.128 578.211 282.168 573.325 280.86C568.527 279.464 563.86 277.719 559.324 275.625C554.788 273.532 550.775 271.002 547.286 268.036C543.796 264.983 540.961 261.493 538.78 257.568C536.686 253.642 535.64 249.193 535.64 244.22C535.64 239.074 536.686 234.581 538.78 230.743C540.874 226.817 543.622 223.546 547.024 220.929C550.513 218.311 554.439 216.349 558.801 215.04C563.25 213.644 567.83 212.946 572.54 212.946C576.204 212.946 579.824 213.252 583.401 213.862C586.978 214.473 590.554 215.171 594.131 215.956C597.795 216.654 601.415 217.308 604.992 217.919C608.569 218.53 612.189 218.835 615.853 218.835C616.638 218.835 617.554 218.573 618.601 218.05C619.648 217.439 620.171 216.654 620.171 215.694C620.171 215.171 619.953 214.735 619.517 214.386C619.168 213.95 618.688 213.601 618.077 213.339C617.554 212.99 616.987 212.728 616.376 212.554C615.853 212.292 615.417 212.118 615.068 212.03C610.008 210.373 604.599 209.108 598.842 208.236C593.084 207.363 587.327 206.447 581.569 205.488C575.899 204.441 570.447 203.132 565.212 201.562C559.978 199.992 555.311 197.724 551.211 194.758C547.198 191.705 543.971 187.692 541.528 182.719C539.173 177.66 537.995 171.248 537.995 163.484C537.995 155.196 539.434 147.825 542.313 141.369C545.192 134.914 549.074 129.287 553.959 124.489C558.844 119.604 564.515 115.46 570.97 112.058C577.426 108.656 584.23 105.908 591.383 103.814C598.537 101.634 605.821 100.063 613.236 99.1037C620.651 98.1442 627.717 97.6644 634.434 97.6644C638.447 97.6644 642.678 97.9261 647.127 98.4495C651.576 98.9729 655.981 99.8453 660.343 101.067C664.792 102.288 669.023 103.902 673.036 105.908C677.049 107.827 680.582 110.226 683.635 113.105C686.688 115.984 689.131 119.342 690.963 123.181C692.795 127.019 693.711 131.425 693.711 136.397C693.711 140.584 692.969 144.903 691.486 149.352C690.003 153.713 687.91 157.726 685.205 161.39C682.501 164.967 679.23 167.889 675.391 170.157C671.553 172.425 667.322 173.559 662.698 173.559C658.337 173.559 653.975 173.254 649.613 172.644C645.251 171.946 640.89 171.204 636.528 170.419C632.253 169.634 627.935 168.936 623.573 168.325C619.211 167.627 614.806 167.279 610.357 167.279C610.183 167.279 609.877 167.279 609.441 167.279C609.005 167.279 608.569 167.322 608.133 167.409C607.696 167.409 607.304 167.497 606.955 167.671C606.693 167.846 606.606 168.107 606.693 168.456C607.129 170.375 608.612 171.902 611.142 173.036C613.672 174.17 616.856 175.173 620.694 176.046C624.533 176.918 628.807 177.747 633.518 178.532C638.316 179.23 643.158 180.146 648.043 181.28C653.015 182.414 657.813 183.897 662.437 185.729C667.06 187.474 671.204 189.785 674.868 192.664C678.532 195.543 681.454 199.12 683.635 203.394C685.816 207.581 686.906 212.685 686.906 218.704C686.906 225.421 685.598 231.746 682.981 237.678C680.364 243.523 676.831 248.888 672.382 253.773C668.02 258.658 662.917 263.02 657.072 266.858C651.314 270.609 645.208 273.837 638.752 276.541C632.384 279.158 625.929 281.165 619.386 282.561C612.843 283.956 606.649 284.654 600.805 284.654ZM731.459 284C727.185 284 722.867 283.433 718.505 282.299C714.143 281.165 710.174 279.42 706.597 277.065C703.108 274.709 700.273 271.743 698.092 268.167C695.911 264.59 694.82 260.315 694.82 255.343C694.82 254.645 694.82 253.947 694.82 253.249C694.908 252.464 694.995 251.723 695.082 251.025C695.78 245.878 696.565 239.684 697.438 232.444C698.31 225.116 699.488 217.483 700.971 209.544C702.454 201.606 704.373 193.755 706.728 185.991C709.084 178.139 712.093 171.117 715.757 164.923C719.508 158.642 724.001 153.582 729.235 149.744C734.469 145.819 740.706 143.856 747.947 143.856C753.356 143.856 757.805 144.772 761.294 146.604C764.784 148.348 767.488 150.747 769.407 153.801C771.413 156.854 772.766 160.431 773.464 164.531C774.249 168.543 774.641 172.862 774.641 177.485C774.641 185.947 774.423 194.365 773.987 202.74C773.551 211.114 773.333 219.533 773.333 227.995C773.333 232.356 773.289 236.675 773.202 240.949C773.115 245.136 772.766 249.367 772.155 253.642C771.544 258.702 769.93 263.151 767.313 266.989C764.784 270.74 761.643 273.881 757.892 276.41C754.141 278.94 749.953 280.86 745.33 282.168C740.794 283.389 736.17 284 731.459 284ZM742.713 137.836C739.311 137.836 736.17 137.444 733.291 136.659C730.413 135.874 727.926 134.652 725.833 132.995C723.739 131.25 722.082 129.069 720.86 126.452C719.639 123.748 719.028 120.564 719.028 116.9C719.028 110.357 720.162 104.774 722.431 100.151C724.786 95.4398 727.752 91.6015 731.329 88.6355C734.993 85.5822 738.962 83.3577 743.236 81.9619C747.598 80.4789 751.785 79.7374 755.798 79.7374C759.113 79.7374 762.297 80.3481 765.351 81.5694C768.491 82.7034 771.239 84.3609 773.594 86.5418C775.95 88.6355 777.825 91.2089 779.221 94.2622C780.617 97.3154 781.315 100.718 781.315 104.469C781.315 108.831 780.05 113.018 777.52 117.031C774.99 121.044 771.762 124.62 767.837 127.761C763.998 130.814 759.811 133.257 755.275 135.089C750.826 136.92 746.639 137.836 742.713 137.836ZM815.399 284.523C810.95 284.523 807.025 283.695 803.623 282.037C800.308 280.38 797.429 278.155 794.986 275.364C792.631 272.572 790.668 269.344 789.098 265.68C787.615 262.017 786.437 258.222 785.565 254.296C784.692 250.371 784.082 246.445 783.733 242.519C783.384 238.594 783.209 234.93 783.209 231.528C783.209 227.34 783.384 222.455 783.733 216.872C784.169 211.289 784.736 205.401 785.434 199.207C786.132 192.926 786.961 186.514 787.92 179.971C788.88 173.429 789.883 167.06 790.93 160.867C792.064 154.673 793.198 148.828 794.332 143.332C795.553 137.836 796.775 133.038 797.996 128.938C799.479 123.966 801.616 119.561 804.408 115.722C807.287 111.884 810.602 108.656 814.353 106.039C818.191 103.422 822.422 101.459 827.045 100.151C831.756 98.7548 836.641 98.0569 841.701 98.0569C846.237 98.0569 850.032 98.6239 853.085 99.758C856.226 100.805 858.799 102.157 860.806 103.814C862.899 105.472 864.6 107.304 865.909 109.31C867.218 111.23 868.308 113.018 869.18 114.675C870.14 116.333 870.969 117.729 871.667 118.863C872.452 119.909 873.324 120.433 874.284 120.433C875.243 120.433 876.726 119.997 878.733 119.124C880.739 118.165 883.051 116.987 885.668 115.591C888.285 114.196 891.12 112.669 894.173 111.011C897.227 109.354 900.324 107.827 903.464 106.432C906.692 105.036 909.832 103.902 912.885 103.029C916.026 102.07 918.905 101.59 921.522 101.59C927.89 101.59 933.473 102.768 938.271 105.123C943.156 107.478 947.344 110.662 950.833 114.675C954.41 118.601 957.332 123.137 959.6 128.284C961.956 133.431 963.831 138.84 965.227 144.51C966.71 150.093 967.713 155.72 968.237 161.39C968.847 167.06 969.153 172.382 969.153 177.354C969.153 183.81 968.629 190.963 967.582 198.814C966.623 206.578 965.009 214.386 962.741 222.237C960.56 230.088 957.725 237.721 954.235 245.136C950.746 252.464 946.515 258.963 941.542 264.634C936.657 270.304 930.987 274.884 924.531 278.373C918.163 281.775 910.923 283.477 902.81 283.477C899.233 283.477 895.438 282.997 891.425 282.037C887.413 281.078 883.705 279.638 880.303 277.719C876.901 275.713 874.066 273.183 871.797 270.13C869.529 267.076 868.395 263.412 868.395 259.138C868.395 256.521 868.701 253.947 869.311 251.417C869.922 248.888 870.576 246.358 871.274 243.828C872.146 240.6 873.106 236.893 874.153 232.705C875.287 228.431 876.421 223.982 877.555 219.358C878.776 214.648 879.91 209.85 880.957 204.964C882.091 199.992 883.094 195.194 883.967 190.57C884.926 185.86 885.668 181.454 886.191 177.354C886.715 173.167 886.976 169.503 886.976 166.363C886.976 165.316 886.889 164.051 886.715 162.568C886.628 161.085 886.322 159.645 885.799 158.25C885.275 156.854 884.447 155.676 883.313 154.717C882.266 153.67 880.783 153.146 878.864 153.146C877.904 153.146 876.639 153.364 875.069 153.801C873.586 154.237 872.146 155.72 870.751 158.25C869.355 160.692 868.046 163.745 866.825 167.409C865.604 171.073 864.47 175.13 863.423 179.579C862.376 183.941 861.416 188.259 860.544 192.533C859.759 196.808 859.017 200.821 858.319 204.572C857.709 208.236 857.185 211.245 856.749 213.601C856.051 217.526 855.572 221.496 855.31 225.508C855.048 229.434 854.612 233.36 854.001 237.285C853.216 242.345 851.908 247.666 850.076 253.249C848.244 258.832 845.758 263.936 842.617 268.559C839.564 273.183 835.769 277.021 831.233 280.074C826.784 283.04 821.506 284.523 815.399 284.523ZM1022.6 287.01C1016.85 287.01 1011.26 286.225 1005.85 284.654C1000.53 283.171 995.779 280.86 991.591 277.719C987.404 274.491 984.045 270.391 981.516 265.419C979.073 260.359 977.852 254.383 977.852 247.492C977.852 243.305 978.201 239.466 978.899 235.977C979.596 232.487 980.774 229.521 982.432 227.079C984.176 224.549 986.532 222.63 989.498 221.321C992.551 219.925 996.346 219.227 1000.88 219.227C1008.12 219.227 1014.62 219.576 1020.38 220.274C1026.14 220.885 1031.81 221.19 1037.39 221.19C1039.31 221.19 1041.4 220.71 1043.67 219.751C1046.03 218.791 1048.38 217.483 1050.74 215.825C1053.18 214.081 1055.54 212.03 1057.8 209.675C1060.16 207.32 1062.21 204.79 1063.95 202.086C1065.79 199.381 1067.22 196.546 1068.27 193.58C1069.41 190.614 1069.97 187.604 1069.97 184.551C1069.97 183.068 1069.71 181.847 1069.19 180.887C1068.66 179.84 1067.88 179.317 1066.83 179.317C1065.26 179.317 1063.26 179.971 1060.81 181.28C1058.46 182.501 1055.8 184.071 1052.83 185.991C1049.95 187.91 1046.77 190.003 1043.28 192.272C1039.88 194.54 1036.26 196.633 1032.42 198.553C1028.67 200.472 1024.78 202.086 1020.77 203.394C1016.76 204.615 1012.7 205.226 1008.6 205.226C1003.72 205.226 999.181 204.485 994.994 203.002C990.893 201.431 987.317 199.12 984.264 196.066C981.21 192.926 978.811 189.044 977.067 184.42C975.409 179.71 974.58 174.257 974.58 168.064C974.58 161.957 975.453 155.981 977.197 150.137C978.942 144.205 981.385 138.578 984.525 133.257C987.666 127.935 991.417 123.05 995.779 118.601C1000.14 114.065 1004.94 110.139 1010.17 106.824C1015.49 103.509 1021.12 100.936 1027.05 99.1037C1033.07 97.2718 1039.22 96.3558 1045.5 96.3558C1048.56 96.3558 1051.52 97.1409 1054.4 98.7112C1057.28 100.194 1060.03 101.852 1062.64 103.684C1065.26 105.516 1067.75 107.217 1070.1 108.787C1072.46 110.27 1074.6 111.011 1076.52 111.011C1078.43 111.011 1080.22 110.444 1081.88 109.31C1083.54 108.089 1085.33 106.78 1087.25 105.385C1089.25 103.902 1091.56 102.593 1094.18 101.459C1096.8 100.238 1099.98 99.6272 1103.73 99.6272C1108.62 99.6272 1112.72 100.412 1116.03 101.983C1119.35 103.553 1122.1 105.69 1124.28 108.394C1126.46 111.011 1128.12 114.108 1129.25 117.685C1130.47 121.174 1131.39 124.882 1132 128.808C1132.61 132.733 1132.96 136.746 1133.04 140.846C1133.13 144.859 1133.18 148.697 1133.18 152.361C1133.18 162.306 1132 172.556 1129.64 183.112C1127.37 193.58 1124.02 203.787 1119.57 213.732C1115.2 223.676 1109.8 233.098 1103.34 241.996C1096.97 250.894 1089.69 258.702 1081.49 265.419C1073.29 272.049 1064.26 277.326 1054.4 281.252C1044.54 285.09 1033.94 287.01 1022.6 287.01ZM1025.48 161.128C1027.23 161.128 1028.93 160.736 1030.59 159.951C1032.24 159.166 1033.68 158.119 1034.9 156.81C1036.13 155.414 1037.08 153.757 1037.78 151.838C1038.57 149.919 1038.96 147.825 1038.96 145.557C1038.96 143.55 1038.57 141.806 1037.78 140.323C1037 138.752 1035.99 137.444 1034.77 136.397C1033.55 135.35 1032.11 134.565 1030.45 134.042C1028.88 133.431 1027.23 133.126 1025.48 133.126C1023.83 133.126 1022.17 133.387 1020.51 133.911C1018.94 134.434 1017.54 135.307 1016.32 136.528C1015.1 137.662 1014.1 139.101 1013.31 140.846C1012.62 142.591 1012.27 144.728 1012.27 147.258C1012.27 149.177 1012.62 151.009 1013.31 152.754C1014.01 154.411 1014.97 155.894 1016.19 157.203C1017.41 158.424 1018.81 159.384 1020.38 160.082C1022.04 160.779 1023.74 161.128 1025.48 161.128Z" fill="#F1D1FF"/>
</g>
<g filter="url(#filter1_d_1694_11)">
<path d="M74.3607 356.612C71.8299 356.612 69.6422 356.097 67.7977 355.068C65.9533 354.038 64.3662 352.687 63.0364 351.014C61.7496 349.299 60.6772 347.347 59.8193 345.159C59.0043 342.972 58.3609 340.72 57.889 338.403C57.4172 336.087 57.0955 333.792 56.9239 331.519C56.7523 329.202 56.6665 327.1 56.6665 325.213C56.6665 320.452 57.0311 315.605 57.7604 310.672C58.5325 305.739 59.7121 300.977 61.2992 296.388C62.8863 291.755 64.9238 287.401 67.4117 283.326C69.8996 279.251 72.8593 275.691 76.2909 272.645C79.7225 269.6 83.6688 267.198 88.1299 265.439C92.591 263.68 97.6097 262.801 103.186 262.801C105.845 262.801 108.505 263.058 111.164 263.573C113.824 264.088 116.355 264.86 118.757 265.889C121.202 266.876 123.475 268.12 125.577 269.621C127.722 271.123 129.566 272.881 131.111 274.897C132.655 276.871 133.877 279.101 134.778 281.589C135.679 284.034 136.129 286.736 136.129 289.696C136.129 295.53 134.564 300.034 131.432 303.208C128.344 306.382 123.883 307.969 118.049 307.969C117.02 307.969 115.99 307.884 114.961 307.712C113.931 307.497 112.923 307.39 111.937 307.39C111.465 307.39 110.993 307.455 110.521 307.583C110.092 307.712 109.878 308.098 109.878 308.741C109.878 309.256 110.049 309.685 110.392 310.028C110.736 310.329 111.143 310.586 111.615 310.8C112.13 311.015 112.623 311.186 113.095 311.315C113.609 311.401 114.017 311.487 114.317 311.572C117.32 312.302 120.108 313.481 122.682 315.111C125.298 316.698 127.572 318.629 129.502 320.902C131.432 323.176 132.955 325.728 134.07 328.559C135.186 331.39 135.743 334.414 135.743 337.631C135.743 340.205 135.271 342.607 134.328 344.837C133.427 347.025 132.14 348.934 130.467 350.564C128.837 352.151 126.907 353.395 124.676 354.296C122.489 355.197 120.108 355.647 117.534 355.647C115.089 355.647 113.095 355.239 111.551 354.424C110.049 353.609 108.827 352.537 107.883 351.207C106.939 349.835 106.232 348.269 105.76 346.51C105.288 344.709 104.902 342.843 104.602 340.913C104.301 338.939 104.001 336.945 103.701 334.929C103.443 332.913 103.036 331.025 102.478 329.267C101.964 327.465 101.234 325.835 100.291 324.377C99.3469 322.918 98.0601 321.76 96.4301 320.902C96.0011 320.688 95.5936 320.58 95.2076 320.58C94.4355 320.58 93.7706 320.924 93.213 321.61C92.6553 322.253 92.1835 323.09 91.7974 324.119C91.4114 325.149 91.0897 326.307 90.8323 327.594C90.6178 328.838 90.4248 330.082 90.2532 331.326C90.1245 332.527 90.0387 333.642 89.9958 334.671C89.9529 335.658 89.9315 336.409 89.9315 336.923C89.9315 339.154 89.5883 341.427 88.902 343.744C88.2586 346.06 87.272 348.183 85.9423 350.114C84.6125 352.001 82.9825 353.567 81.0523 354.811C79.122 356.012 76.8915 356.612 74.3607 356.612ZM100.484 294.007C102.8 294.007 104.473 293.428 105.502 292.27C106.532 291.069 107.047 289.525 107.047 287.637C107.047 286.908 106.939 286.157 106.725 285.385C106.553 284.57 106.274 283.841 105.888 283.198C105.502 282.554 105.052 282.018 104.537 281.589C104.022 281.16 103.443 280.946 102.8 280.946C101.728 280.946 100.784 281.203 99.9689 281.718C99.1968 282.19 98.5534 282.811 98.0386 283.584C97.5239 284.356 97.1378 285.214 96.8805 286.157C96.666 287.058 96.5588 287.937 96.5588 288.795C96.5588 289.224 96.6017 289.739 96.6874 290.34C96.7732 290.94 96.9448 291.519 97.2022 292.077C97.5024 292.634 97.9099 293.106 98.4247 293.492C98.9394 293.835 99.6257 294.007 100.484 294.007ZM175.28 353.202C169.961 353.202 164.943 352.301 160.224 350.5C155.506 348.698 151.388 346.167 147.87 342.907C144.396 339.647 141.629 335.744 139.57 331.197C137.554 326.65 136.546 321.631 136.546 316.141C136.546 311.551 137.147 307.154 138.348 302.951C139.549 298.747 141.265 294.822 143.495 291.176C145.726 287.53 148.407 284.248 151.538 281.332C154.712 278.372 158.251 275.841 162.154 273.739C166.058 271.637 170.283 270.029 174.83 268.914C179.377 267.755 184.138 267.176 189.114 267.176C191.087 267.176 193.167 267.412 195.355 267.884C197.586 268.313 199.795 268.978 201.982 269.879C204.17 270.779 206.272 271.916 208.288 273.289C210.304 274.661 212.063 276.27 213.564 278.114C215.108 279.959 216.331 282.039 217.231 284.356C218.175 286.629 218.647 289.16 218.647 291.948C218.647 295.852 217.768 299.069 216.009 301.599C214.293 304.13 212.084 306.125 209.382 307.583C206.679 309.042 203.698 310.071 200.438 310.672C197.178 311.229 194.025 311.508 190.98 311.508C188.492 311.508 186.24 311.358 184.224 311.058C182.251 310.715 180.428 310.35 178.755 309.964C177.082 309.578 175.559 309.235 174.186 308.934C172.857 308.591 171.591 308.42 170.39 308.42C169.833 308.42 169.168 308.548 168.396 308.806C167.666 309.063 166.98 309.428 166.337 309.9C165.693 310.329 165.136 310.843 164.664 311.444C164.235 312.001 164.02 312.602 164.02 313.245C164.02 314.704 164.235 315.948 164.664 316.977C165.136 318.007 165.929 318.865 167.044 319.551C168.16 320.194 169.661 320.666 171.548 320.966C173.479 321.267 175.902 321.417 178.819 321.417C180.878 321.417 183.173 321.159 185.704 320.645C188.235 320.087 190.787 319.487 193.36 318.843C195.934 318.2 198.422 317.621 200.824 317.106C203.226 316.548 205.328 316.269 207.13 316.269C208.374 316.269 209.403 316.548 210.218 317.106C211.076 317.621 211.762 318.307 212.277 319.165C212.792 319.98 213.156 320.924 213.371 321.996C213.585 323.025 213.693 324.076 213.693 325.149C213.693 329.267 212.899 333.041 211.312 336.473C209.725 339.905 207.323 342.864 204.106 345.352C200.931 347.84 196.942 349.77 192.138 351.143C187.334 352.516 181.715 353.202 175.28 353.202ZM182.744 296.838C183.345 296.838 184.009 296.709 184.739 296.452C185.468 296.195 186.133 295.809 186.733 295.294C187.334 294.779 187.827 294.157 188.213 293.428C188.642 292.656 188.856 291.798 188.856 290.854C188.856 289.825 188.492 288.988 187.763 288.345C187.033 287.659 185.94 287.315 184.481 287.315C183.838 287.315 183.13 287.466 182.358 287.766C181.629 288.066 180.921 288.474 180.235 288.988C179.548 289.503 178.969 290.125 178.497 290.854C178.068 291.583 177.854 292.377 177.854 293.235C177.854 294.479 178.347 295.401 179.334 296.002C180.363 296.559 181.5 296.838 182.744 296.838ZM247.31 357.191C244.479 357.191 241.734 356.805 239.074 356.033C236.458 355.304 234.12 354.167 232.061 352.623C230.002 351.036 228.351 349.02 227.107 346.575C225.906 344.087 225.305 341.148 225.305 337.76C225.305 335.701 225.477 333.813 225.82 332.098C226.163 330.382 226.742 328.923 227.557 327.722C228.415 326.478 229.573 325.535 231.032 324.891C232.533 324.205 234.399 323.862 236.629 323.862C240.19 323.862 243.385 324.033 246.216 324.377C249.047 324.677 251.836 324.827 254.581 324.827C255.525 324.827 256.554 324.591 257.669 324.119C258.827 323.647 259.986 323.004 261.144 322.189C262.345 321.331 263.503 320.323 264.618 319.165C265.776 318.007 266.784 316.763 267.642 315.433C268.543 314.103 269.251 312.709 269.766 311.251C270.323 309.792 270.602 308.312 270.602 306.811C270.602 306.082 270.473 305.481 270.216 305.01C269.959 304.495 269.573 304.237 269.058 304.237C268.286 304.237 267.299 304.559 266.098 305.203C264.94 305.803 263.632 306.575 262.173 307.519C260.758 308.463 259.192 309.492 257.476 310.607C255.803 311.723 254.023 312.752 252.136 313.696C250.291 314.639 248.383 315.433 246.409 316.076C244.436 316.677 242.442 316.977 240.426 316.977C238.023 316.977 235.793 316.613 233.734 315.883C231.718 315.111 229.959 313.975 228.458 312.473C226.957 310.929 225.777 309.02 224.919 306.747C224.104 304.43 223.697 301.75 223.697 298.704C223.697 295.701 224.126 292.763 224.983 289.889C225.841 286.972 227.042 284.206 228.587 281.589C230.131 278.972 231.975 276.57 234.12 274.383C236.265 272.152 238.624 270.222 241.198 268.592C243.814 266.962 246.581 265.696 249.498 264.796C252.458 263.895 255.482 263.444 258.57 263.444C260.071 263.444 261.53 263.831 262.945 264.603C264.361 265.332 265.712 266.147 266.999 267.048C268.286 267.948 269.508 268.785 270.666 269.557C271.825 270.286 272.876 270.651 273.819 270.651C274.763 270.651 275.642 270.372 276.457 269.814C277.272 269.214 278.152 268.57 279.095 267.884C280.082 267.155 281.219 266.511 282.505 265.954C283.792 265.353 285.358 265.053 287.202 265.053C289.605 265.053 291.621 265.439 293.251 266.211C294.881 266.983 296.232 268.034 297.304 269.364C298.377 270.651 299.192 272.174 299.749 273.932C300.35 275.648 300.8 277.471 301.1 279.401C301.401 281.332 301.572 283.305 301.615 285.321C301.658 287.294 301.679 289.181 301.679 290.983C301.679 295.873 301.1 300.913 299.942 306.103C298.827 311.251 297.175 316.269 294.988 321.159C292.843 326.05 290.184 330.682 287.009 335.057C283.878 339.433 280.296 343.272 276.264 346.575C272.232 349.835 267.792 352.43 262.945 354.36C258.098 356.247 252.887 357.191 247.31 357.191ZM248.726 295.294C249.584 295.294 250.42 295.101 251.235 294.715C252.05 294.329 252.758 293.814 253.358 293.171C253.959 292.484 254.431 291.669 254.774 290.726C255.16 289.782 255.353 288.752 255.353 287.637C255.353 286.651 255.16 285.793 254.774 285.063C254.388 284.291 253.895 283.648 253.294 283.133C252.694 282.618 251.986 282.232 251.171 281.975C250.399 281.675 249.584 281.525 248.726 281.525C247.911 281.525 247.096 281.653 246.281 281.911C245.509 282.168 244.822 282.597 244.222 283.198C243.621 283.755 243.128 284.463 242.742 285.321C242.399 286.179 242.227 287.23 242.227 288.474C242.227 289.417 242.399 290.318 242.742 291.176C243.085 291.991 243.557 292.72 244.157 293.364C244.758 293.964 245.444 294.436 246.216 294.779C247.031 295.122 247.868 295.294 248.726 295.294ZM321.463 355.711C319.362 355.711 317.238 355.432 315.094 354.875C312.949 354.317 310.997 353.459 309.238 352.301C307.523 351.143 306.128 349.685 305.056 347.926C303.984 346.167 303.448 344.065 303.448 341.62C303.448 341.277 303.448 340.934 303.448 340.591C303.49 340.205 303.533 339.84 303.576 339.497C303.919 336.966 304.305 333.921 304.734 330.36C305.163 326.757 305.742 323.004 306.472 319.101C307.201 315.197 308.145 311.337 309.303 307.519C310.461 303.658 311.941 300.205 313.742 297.16C315.587 294.071 317.796 291.583 320.37 289.696C322.943 287.766 326.01 286.801 329.571 286.801C332.23 286.801 334.418 287.251 336.133 288.152C337.849 289.01 339.179 290.189 340.123 291.691C341.109 293.192 341.774 294.951 342.117 296.967C342.503 298.94 342.696 301.063 342.696 303.337C342.696 307.497 342.589 311.637 342.375 315.755C342.16 319.873 342.053 324.012 342.053 328.173C342.053 330.318 342.031 332.441 341.989 334.543C341.946 336.602 341.774 338.682 341.474 340.784C341.174 343.272 340.38 345.459 339.093 347.347C337.849 349.191 336.305 350.735 334.461 351.979C332.616 353.223 330.557 354.167 328.284 354.811C326.053 355.411 323.78 355.711 321.463 355.711ZM326.997 283.841C325.324 283.841 323.78 283.648 322.364 283.262C320.949 282.876 319.726 282.275 318.697 281.46C317.667 280.602 316.852 279.53 316.252 278.243C315.651 276.913 315.351 275.348 315.351 273.546C315.351 270.329 315.909 267.584 317.024 265.31C318.182 262.994 319.64 261.107 321.399 259.648C323.201 258.147 325.152 257.053 327.254 256.367C329.399 255.638 331.458 255.273 333.431 255.273C335.061 255.273 336.627 255.573 338.128 256.174C339.672 256.731 341.023 257.546 342.182 258.619C343.34 259.648 344.262 260.914 344.948 262.415C345.635 263.916 345.978 265.589 345.978 267.434C345.978 269.578 345.356 271.637 344.112 273.611C342.868 275.584 341.281 277.342 339.351 278.887C337.463 280.388 335.404 281.589 333.174 282.49C330.986 283.391 328.927 283.841 326.997 283.841ZM379.917 356.033C377.987 356.033 375.842 355.883 373.483 355.583C371.167 355.282 368.807 354.811 366.405 354.167C364.046 353.481 361.751 352.623 359.521 351.593C357.29 350.564 355.317 349.32 353.601 347.862C351.885 346.36 350.491 344.644 349.419 342.714C348.389 340.784 347.875 338.596 347.875 336.151C347.875 333.62 348.389 331.411 349.419 329.524C350.448 327.594 351.8 325.985 353.472 324.698C355.188 323.411 357.118 322.446 359.263 321.803C361.451 321.117 363.703 320.773 366.019 320.773C367.821 320.773 369.601 320.924 371.36 321.224C373.118 321.524 374.877 321.867 376.636 322.253C378.437 322.596 380.217 322.918 381.976 323.218C383.735 323.519 385.515 323.669 387.316 323.669C387.703 323.669 388.153 323.54 388.668 323.283C389.182 322.983 389.44 322.596 389.44 322.125C389.44 321.867 389.333 321.653 389.118 321.481C388.946 321.267 388.711 321.095 388.41 320.966C388.153 320.795 387.874 320.666 387.574 320.58C387.316 320.452 387.102 320.366 386.93 320.323C384.443 319.508 381.783 318.886 378.952 318.457C376.121 318.028 373.29 317.578 370.459 317.106C367.671 316.591 364.99 315.948 362.416 315.176C359.842 314.404 357.547 313.288 355.531 311.83C353.558 310.329 351.971 308.355 350.77 305.91C349.612 303.422 349.033 300.27 349.033 296.452C349.033 292.377 349.741 288.752 351.156 285.578C352.572 282.404 354.48 279.637 356.883 277.278C359.285 274.876 362.073 272.838 365.247 271.166C368.421 269.493 371.767 268.141 375.284 267.112C378.802 266.04 382.384 265.267 386.03 264.796C389.676 264.324 393.15 264.088 396.453 264.088C398.426 264.088 400.507 264.217 402.694 264.474C404.882 264.731 407.048 265.16 409.193 265.761C411.38 266.361 413.461 267.155 415.434 268.141C417.407 269.085 419.144 270.265 420.646 271.68C422.147 273.096 423.348 274.747 424.249 276.635C425.15 278.522 425.6 280.688 425.6 283.133C425.6 285.192 425.236 287.315 424.506 289.503C423.777 291.648 422.748 293.621 421.418 295.423C420.088 297.181 418.48 298.618 416.592 299.734C414.705 300.849 412.624 301.406 410.351 301.406C408.206 301.406 406.062 301.256 403.917 300.956C401.772 300.613 399.627 300.248 397.483 299.862C395.381 299.476 393.257 299.133 391.113 298.833C388.968 298.49 386.802 298.318 384.614 298.318C384.528 298.318 384.378 298.318 384.164 298.318C383.949 298.318 383.735 298.339 383.52 298.382C383.306 298.382 383.113 298.425 382.941 298.511C382.813 298.597 382.77 298.725 382.813 298.897C383.027 299.841 383.756 300.591 385 301.149C386.244 301.707 387.81 302.2 389.697 302.629C391.585 303.058 393.686 303.465 396.003 303.851C398.362 304.195 400.743 304.645 403.145 305.203C405.59 305.76 407.949 306.489 410.222 307.39C412.496 308.248 414.533 309.385 416.335 310.8C418.136 312.216 419.573 313.975 420.646 316.076C421.718 318.135 422.254 320.645 422.254 323.604C422.254 326.907 421.611 330.017 420.324 332.934C419.037 335.808 417.3 338.446 415.112 340.848C412.968 343.25 410.458 345.395 407.584 347.282C404.753 349.127 401.751 350.714 398.576 352.044C395.445 353.331 392.271 354.317 389.054 355.004C385.837 355.69 382.791 356.033 379.917 356.033ZM457.802 355.518C455.615 355.518 453.534 355.239 451.561 354.682C449.588 354.081 447.851 353.202 446.349 352.044C444.891 350.843 443.733 349.363 442.875 347.604C442.017 345.845 441.631 343.787 441.717 341.427C441.802 338.982 442.103 336.473 442.617 333.899C443.175 331.283 443.84 328.666 444.612 326.05C445.384 323.39 446.221 320.773 447.121 318.2C448.022 315.626 448.88 313.181 449.695 310.865C449.952 310.093 450.296 309.127 450.725 307.969C451.153 306.768 451.582 305.546 452.011 304.302C452.44 303.058 452.805 301.857 453.105 300.699C453.405 299.498 453.577 298.49 453.62 297.675C453.62 297.417 453.513 297.224 453.298 297.095C453.127 296.924 452.891 296.817 452.59 296.774C452.333 296.731 452.054 296.709 451.754 296.709C451.497 296.709 451.282 296.709 451.111 296.709C449.91 296.709 448.708 296.881 447.507 297.224C446.349 297.524 445.191 297.868 444.033 298.254C442.875 298.597 441.717 298.94 440.558 299.283C439.4 299.583 438.199 299.734 436.955 299.734C435.497 299.734 434.21 299.498 433.095 299.026C431.979 298.511 431.036 297.825 430.264 296.967C429.492 296.066 428.912 295.015 428.526 293.814C428.183 292.613 428.033 291.326 428.076 289.953C428.119 289.096 428.205 288.216 428.333 287.315C428.462 286.372 428.698 285.407 429.041 284.42C429.427 283.433 429.921 282.425 430.521 281.396C431.164 280.366 431.979 279.316 432.966 278.243C435.454 275.584 438.006 273.375 440.623 271.616C443.282 269.857 446.242 268.463 449.502 267.434C452.762 266.404 456.451 265.696 460.569 265.31C464.687 264.881 469.491 264.667 474.982 264.667C476.998 264.667 479.228 264.774 481.673 264.989C484.161 265.16 486.67 265.503 489.201 266.018C491.775 266.533 494.263 267.241 496.665 268.141C499.067 268.999 501.19 270.136 503.035 271.552C504.879 272.924 506.338 274.597 507.41 276.57C508.482 278.501 508.976 280.774 508.89 283.391C508.847 285.235 508.461 286.951 507.732 288.538C507.003 290.125 506.016 291.498 504.772 292.656C503.571 293.814 502.155 294.715 500.525 295.358C498.938 296.002 497.223 296.323 495.378 296.323C494.692 296.323 494.07 296.259 493.512 296.13C492.997 296.002 492.483 295.873 491.968 295.744C491.496 295.616 491.003 295.487 490.488 295.358C490.016 295.23 489.459 295.165 488.815 295.165C487.571 295.165 486.606 295.53 485.92 296.259C485.233 296.945 484.869 297.782 484.826 298.768C484.74 300.742 484.826 302.693 485.083 304.624C485.384 306.511 485.491 308.42 485.405 310.35C485.276 313.696 484.912 317.02 484.311 320.323C483.711 323.583 483.089 326.886 482.445 330.232C482.059 332.205 481.63 334.242 481.158 336.344C480.687 338.403 480.043 340.398 479.228 342.328C478.413 344.215 477.362 345.974 476.075 347.604C474.831 349.234 473.223 350.607 471.25 351.722C469.191 352.88 467.003 353.802 464.687 354.489C462.413 355.175 460.118 355.518 457.802 355.518ZM524.106 356.548C521.618 356.548 519.43 356.054 517.543 355.068C515.698 354.038 514.133 352.687 512.846 351.014C511.559 349.341 510.486 347.433 509.629 345.288C508.814 343.143 508.17 340.913 507.698 338.596C507.226 336.28 506.905 333.985 506.733 331.712C506.562 329.438 506.476 327.358 506.476 325.47C506.476 320.752 506.84 315.948 507.57 311.058C508.342 306.168 509.521 301.428 511.108 296.838C512.696 292.248 514.712 287.937 517.157 283.905C519.645 279.83 522.604 276.291 526.036 273.289C529.467 270.286 533.392 267.906 537.811 266.147C542.229 264.388 547.204 263.509 552.738 263.509C554.883 263.509 557.178 263.723 559.623 264.152C562.068 264.538 564.491 265.139 566.893 265.954C569.295 266.726 571.612 267.734 573.842 268.978C576.073 270.222 578.024 271.68 579.697 273.353C581.413 274.983 582.764 276.871 583.751 279.015C584.78 281.117 585.295 283.455 585.295 286.029C585.295 289.16 584.78 291.905 583.751 294.264C582.721 296.624 581.435 298.661 579.89 300.377C578.346 302.05 576.673 303.444 574.872 304.559C573.113 305.674 571.462 306.554 569.917 307.197C568.673 307.712 567.515 308.141 566.443 308.484C565.413 308.784 564.513 309.042 563.74 309.256C563.011 309.471 562.432 309.685 562.003 309.9C561.617 310.114 561.424 310.371 561.424 310.672C561.424 311.358 562.003 312.216 563.161 313.245C564.32 314.275 565.757 315.454 567.472 316.784C569.231 318.114 571.118 319.572 573.134 321.159C575.15 322.747 577.016 324.462 578.732 326.307C580.491 328.151 581.949 330.103 583.107 332.162C584.266 334.221 584.845 336.387 584.845 338.661C584.845 341.063 584.351 343.315 583.365 345.417C582.378 347.475 581.049 349.277 579.376 350.821C577.746 352.323 575.858 353.502 573.714 354.36C571.569 355.218 569.317 355.647 566.958 355.647C565.285 355.647 563.783 355.111 562.454 354.038C561.124 352.966 559.923 351.572 558.85 349.856C557.778 348.097 556.791 346.124 555.891 343.937C555.033 341.706 554.218 339.433 553.446 337.116C552.716 334.8 551.987 332.527 551.258 330.296C550.529 328.066 549.778 326.092 549.006 324.377C548.234 322.618 547.398 321.224 546.497 320.194C545.596 319.122 544.588 318.586 543.473 318.586C542.4 318.586 541.542 318.972 540.899 319.744C540.298 320.516 539.848 321.524 539.548 322.768C539.247 324.012 539.054 325.385 538.969 326.886C538.926 328.387 538.926 329.867 538.969 331.326C539.054 332.741 539.14 334.071 539.226 335.315C539.312 336.516 539.355 337.46 539.355 338.146C539.355 340.248 538.99 342.392 538.261 344.58C537.532 346.725 536.502 348.698 535.172 350.5C533.886 352.258 532.299 353.717 530.411 354.875C528.524 355.99 526.422 356.548 524.106 356.548ZM548.041 292.656C549.199 292.656 550.25 292.42 551.194 291.948C552.137 291.476 552.952 290.876 553.639 290.147C554.325 289.417 554.861 288.602 555.247 287.701C555.633 286.758 555.826 285.814 555.826 284.87C555.826 284.098 555.762 283.369 555.633 282.683C555.505 281.996 555.269 281.396 554.926 280.881C554.582 280.366 554.111 279.959 553.51 279.659C552.952 279.358 552.245 279.208 551.387 279.208C550.743 279.208 550.057 279.401 549.328 279.787C548.599 280.173 547.912 280.71 547.269 281.396C546.668 282.039 546.175 282.79 545.789 283.648C545.403 284.463 545.21 285.321 545.21 286.222C545.21 286.651 545.231 287.23 545.274 287.959C545.317 288.688 545.424 289.417 545.596 290.147C545.81 290.833 546.111 291.433 546.497 291.948C546.883 292.42 547.398 292.656 548.041 292.656ZM617.69 327.915C619.964 327.915 621.572 327.358 622.516 326.243C623.46 325.084 623.931 323.562 623.931 321.674C623.931 320.344 623.417 319.315 622.387 318.586C621.401 317.814 620.157 317.428 618.655 317.428C617.883 317.428 617.133 317.599 616.403 317.942C615.674 318.243 615.031 318.65 614.473 319.165C613.958 319.68 613.529 320.28 613.186 320.966C612.843 321.61 612.671 322.296 612.671 323.025C612.671 324.226 613.122 325.342 614.023 326.371C614.966 327.401 616.189 327.915 617.69 327.915ZM608.682 354.746C606.066 354.746 603.535 354.231 601.09 353.202C598.645 352.172 596.457 350.693 594.527 348.762C592.64 346.789 591.117 344.366 589.959 341.492C588.8 338.618 588.221 335.336 588.221 331.647C588.221 327.572 588.8 323.54 589.959 319.551C591.16 315.519 593.026 311.916 595.556 308.741C598.13 305.567 601.412 303.015 605.401 301.085C609.39 299.112 614.173 298.125 619.749 298.125C621.765 298.125 623.524 298.382 625.025 298.897C626.569 299.369 627.942 300.077 629.143 301.02C630.387 301.964 631.502 303.101 632.489 304.43C633.475 305.717 634.441 307.197 635.384 308.87C635.47 308.999 635.556 309.17 635.642 309.385C635.77 309.556 635.942 309.642 636.156 309.642C636.542 309.642 636.843 309.321 637.057 308.677C637.315 308.034 637.508 307.304 637.636 306.489C637.765 305.674 637.851 304.902 637.894 304.173C637.979 303.401 638.022 302.886 638.022 302.629C638.022 300.827 637.679 299.176 636.993 297.675C636.307 296.13 635.363 294.822 634.162 293.75C633.004 292.634 631.631 291.777 630.044 291.176C628.5 290.575 626.848 290.275 625.09 290.275C623.631 290.275 622.173 290.425 620.714 290.726C619.256 290.983 617.797 291.283 616.339 291.626C614.923 291.927 613.486 292.227 612.028 292.527C610.613 292.785 609.154 292.913 607.653 292.913C605.122 292.913 603.127 292.141 601.669 290.597C600.211 289.01 599.481 286.972 599.481 284.484C599.481 281.525 600.082 278.951 601.283 276.763C602.527 274.576 604.157 272.71 606.173 271.166C608.189 269.621 610.484 268.356 613.058 267.369C615.674 266.34 618.334 265.546 621.036 264.989C623.738 264.388 626.398 263.981 629.014 263.766C631.674 263.552 634.055 263.444 636.156 263.444C641.304 263.444 646.151 264.131 650.698 265.503C655.288 266.876 659.298 268.956 662.73 271.745C666.204 274.49 668.928 277.943 670.901 282.104C672.917 286.265 673.925 291.112 673.925 296.645C673.925 298.876 673.797 301.385 673.539 304.173C673.282 306.918 672.874 309.814 672.317 312.859C671.759 315.905 671.03 318.993 670.129 322.125C669.271 325.213 668.22 328.216 666.976 331.133C665.732 334.049 664.317 336.795 662.73 339.368C661.143 341.942 659.341 344.194 657.325 346.124C655.352 348.012 653.143 349.513 650.698 350.628C648.253 351.744 645.593 352.301 642.719 352.301C641.218 352.301 639.974 352.172 638.987 351.915C638.044 351.658 637.229 351.336 636.542 350.95C635.899 350.564 635.341 350.156 634.87 349.727C634.441 349.256 633.99 348.827 633.518 348.441C633.089 348.055 632.596 347.733 632.039 347.475C631.481 347.218 630.752 347.089 629.851 347.089C628.821 347.089 627.706 347.497 626.505 348.312C625.304 349.084 623.888 349.963 622.258 350.95C620.671 351.894 618.763 352.773 616.532 353.588C614.344 354.36 611.728 354.746 608.682 354.746ZM710.889 355.518C708.701 355.518 706.621 355.239 704.648 354.682C702.674 354.081 700.937 353.202 699.436 352.044C697.977 350.843 696.819 349.363 695.961 347.604C695.103 345.845 694.717 343.787 694.803 341.427C694.889 338.982 695.189 336.473 695.704 333.899C696.262 331.283 696.926 328.666 697.699 326.05C698.471 323.39 699.307 320.773 700.208 318.2C701.109 315.626 701.967 313.181 702.782 310.865C703.039 310.093 703.382 309.127 703.811 307.969C704.24 306.768 704.669 305.546 705.098 304.302C705.527 303.058 705.891 301.857 706.192 300.699C706.492 299.498 706.664 298.49 706.706 297.675C706.706 297.417 706.599 297.224 706.385 297.095C706.213 296.924 705.977 296.817 705.677 296.774C705.42 296.731 705.141 296.709 704.841 296.709C704.583 296.709 704.369 296.709 704.197 296.709C702.996 296.709 701.795 296.881 700.594 297.224C699.436 297.524 698.278 297.868 697.119 298.254C695.961 298.597 694.803 298.94 693.645 299.283C692.487 299.583 691.286 299.734 690.042 299.734C688.583 299.734 687.297 299.498 686.181 299.026C685.066 298.511 684.122 297.825 683.35 296.967C682.578 296.066 681.999 295.015 681.613 293.814C681.27 292.613 681.12 291.326 681.163 289.953C681.205 289.096 681.291 288.216 681.42 287.315C681.549 286.372 681.785 285.407 682.128 284.42C682.514 283.433 683.007 282.425 683.608 281.396C684.251 280.366 685.066 279.316 686.053 278.243C688.541 275.584 691.093 273.375 693.709 271.616C696.369 269.857 699.329 268.463 702.589 267.434C705.849 266.404 709.538 265.696 713.655 265.31C717.773 264.881 722.578 264.667 728.068 264.667C730.084 264.667 732.315 264.774 734.76 264.989C737.248 265.16 739.757 265.503 742.288 266.018C744.861 266.533 747.349 267.241 749.751 268.141C752.154 268.999 754.277 270.136 756.121 271.552C757.966 272.924 759.424 274.597 760.497 276.57C761.569 278.501 762.062 280.774 761.977 283.391C761.934 285.235 761.548 286.951 760.818 288.538C760.089 290.125 759.103 291.498 757.859 292.656C756.658 293.814 755.242 294.715 753.612 295.358C752.025 296.002 750.309 296.323 748.465 296.323C747.778 296.323 747.156 296.259 746.599 296.13C746.084 296.002 745.569 295.873 745.055 295.744C744.583 295.616 744.089 295.487 743.575 295.358C743.103 295.23 742.545 295.165 741.902 295.165C740.658 295.165 739.693 295.53 739.006 296.259C738.32 296.945 737.955 297.782 737.913 298.768C737.827 300.742 737.913 302.693 738.17 304.624C738.47 306.511 738.577 308.42 738.492 310.35C738.363 313.696 737.998 317.02 737.398 320.323C736.797 323.583 736.175 326.886 735.532 330.232C735.146 332.205 734.717 334.242 734.245 336.344C733.773 338.403 733.13 340.398 732.315 342.328C731.5 344.215 730.449 345.974 729.162 347.604C727.918 349.234 726.309 350.607 724.336 351.722C722.277 352.88 720.09 353.802 717.773 354.489C715.5 355.175 713.205 355.518 710.889 355.518ZM773.846 355.711C771.745 355.711 769.621 355.432 767.476 354.875C765.332 354.317 763.38 353.459 761.621 352.301C759.906 351.143 758.511 349.685 757.439 347.926C756.367 346.167 755.831 344.065 755.831 341.62C755.831 341.277 755.831 340.934 755.831 340.591C755.873 340.205 755.916 339.84 755.959 339.497C756.302 336.966 756.688 333.921 757.117 330.36C757.546 326.757 758.125 323.004 758.855 319.101C759.584 315.197 760.528 311.337 761.686 307.519C762.844 303.658 764.324 300.205 766.125 297.16C767.97 294.071 770.179 291.583 772.753 289.696C775.326 287.766 778.393 286.801 781.953 286.801C784.613 286.801 786.801 287.251 788.516 288.152C790.232 289.01 791.562 290.189 792.506 291.691C793.492 293.192 794.157 294.951 794.5 296.967C794.886 298.94 795.079 301.063 795.079 303.337C795.079 307.497 794.972 311.637 794.758 315.755C794.543 319.873 794.436 324.012 794.436 328.173C794.436 330.318 794.414 332.441 794.372 334.543C794.329 336.602 794.157 338.682 793.857 340.784C793.557 343.272 792.763 345.459 791.476 347.347C790.232 349.191 788.688 350.735 786.844 351.979C784.999 353.223 782.94 354.167 780.667 354.811C778.436 355.411 776.163 355.711 773.846 355.711ZM779.38 283.841C777.707 283.841 776.163 283.648 774.747 283.262C773.332 282.876 772.109 282.275 771.08 281.46C770.05 280.602 769.235 279.53 768.635 278.243C768.034 276.913 767.734 275.348 767.734 273.546C767.734 270.329 768.291 267.584 769.407 265.31C770.565 262.994 772.023 261.107 773.782 259.648C775.584 258.147 777.535 257.053 779.637 256.367C781.782 255.638 783.841 255.273 785.814 255.273C787.444 255.273 789.01 255.573 790.511 256.174C792.055 256.731 793.406 257.546 794.565 258.619C795.723 259.648 796.645 260.914 797.331 262.415C798.018 263.916 798.361 265.589 798.361 267.434C798.361 269.578 797.739 271.637 796.495 273.611C795.251 275.584 793.664 277.342 791.734 278.887C789.846 280.388 787.787 281.589 785.557 282.49C783.369 283.391 781.31 283.841 779.38 283.841ZM835.71 353.395C830.82 353.395 826.252 352.902 822.005 351.915C817.759 350.886 814.07 349.256 810.938 347.025C807.807 344.795 805.341 341.899 803.539 338.339C801.78 334.779 800.901 330.446 800.901 325.342C800.901 321.052 801.416 316.634 802.445 312.087C803.518 307.497 805.04 303.036 807.014 298.704C808.987 294.372 811.367 290.275 814.156 286.415C816.944 282.554 820.075 279.187 823.55 276.313C827.067 273.396 830.885 271.101 835.002 269.428C839.12 267.712 843.474 266.855 848.064 266.855C853.469 266.855 858.273 267.755 862.477 269.557C866.68 271.359 870.219 273.868 873.093 277.085C875.967 280.302 878.133 284.12 879.592 288.538C881.093 292.913 881.844 297.717 881.844 302.951C881.844 307.412 881.35 311.766 880.364 316.012C879.42 320.259 878.005 324.248 876.117 327.98C874.273 331.712 871.999 335.143 869.297 338.275C866.637 341.363 863.592 344.044 860.16 346.317C856.772 348.548 853.018 350.285 848.9 351.529C844.825 352.773 840.429 353.395 835.71 353.395ZM838.413 321.159C840.3 321.159 841.866 320.559 843.11 319.358C844.354 318.157 845.34 316.72 846.069 315.047C846.799 313.331 847.313 311.551 847.614 309.707C847.914 307.819 848.064 306.232 848.064 304.945C848.064 304.473 848.042 303.766 848 302.822C847.957 301.835 847.807 300.87 847.549 299.927C847.335 298.94 847.013 298.103 846.584 297.417C846.155 296.688 845.555 296.323 844.782 296.323C843.839 296.323 842.917 296.645 842.016 297.288C841.158 297.932 840.343 298.79 839.571 299.862C838.842 300.892 838.155 302.071 837.512 303.401C836.868 304.688 836.311 305.996 835.839 307.326C835.41 308.613 835.067 309.857 834.809 311.058C834.552 312.259 834.423 313.245 834.423 314.017C834.423 314.661 834.466 315.412 834.552 316.269C834.638 317.084 834.809 317.857 835.067 318.586C835.367 319.315 835.775 319.937 836.289 320.452C836.804 320.924 837.512 321.159 838.413 321.159ZM900.212 355.969C898.024 355.969 896.094 355.561 894.421 354.746C892.791 353.931 891.376 352.837 890.175 351.465C889.017 350.092 888.051 348.505 887.279 346.703C886.55 344.902 885.971 343.036 885.542 341.106C885.113 339.175 884.813 337.245 884.641 335.315C884.47 333.385 884.384 331.583 884.384 329.91C884.384 327.851 884.47 325.449 884.641 322.704C884.856 319.958 885.135 317.063 885.478 314.017C885.821 310.929 886.228 307.776 886.7 304.559C887.172 301.342 887.665 298.211 888.18 295.165C888.738 292.12 889.295 289.246 889.853 286.543C890.454 283.841 891.054 281.482 891.655 279.466C892.384 277.021 893.435 274.854 894.807 272.967C896.223 271.08 897.853 269.493 899.697 268.206C901.585 266.919 903.665 265.954 905.939 265.31C908.255 264.624 910.657 264.281 913.145 264.281C915.375 264.281 917.241 264.56 918.743 265.117C920.287 265.632 921.552 266.297 922.539 267.112C923.568 267.927 924.405 268.828 925.048 269.814C925.692 270.758 926.228 271.637 926.657 272.452C927.129 273.267 927.536 273.954 927.879 274.511C928.265 275.026 928.694 275.283 929.166 275.283C929.638 275.283 930.367 275.069 931.354 274.64C932.34 274.168 933.477 273.589 934.764 272.903C936.051 272.216 937.445 271.466 938.946 270.651C940.447 269.836 941.97 269.085 943.514 268.399C945.102 267.712 946.646 267.155 948.147 266.726C949.691 266.254 951.107 266.018 952.394 266.018C955.525 266.018 958.27 266.597 960.63 267.755C963.032 268.914 965.091 270.479 966.806 272.452C968.565 274.383 970.002 276.613 971.117 279.144C972.275 281.675 973.198 284.334 973.884 287.122C974.613 289.868 975.107 292.634 975.364 295.423C975.664 298.211 975.814 300.827 975.814 303.272C975.814 306.447 975.557 309.964 975.042 313.824C974.57 317.642 973.777 321.481 972.662 325.342C971.589 329.202 970.195 332.956 968.479 336.602C966.763 340.205 964.683 343.4 962.238 346.189C959.836 348.977 957.048 351.229 953.874 352.945C950.742 354.617 947.182 355.454 943.193 355.454C941.434 355.454 939.568 355.218 937.595 354.746C935.622 354.274 933.799 353.567 932.126 352.623C930.453 351.636 929.059 350.392 927.944 348.891C926.828 347.39 926.271 345.588 926.271 343.486C926.271 342.199 926.421 340.934 926.721 339.69C927.021 338.446 927.343 337.202 927.686 335.958C928.115 334.371 928.587 332.548 929.102 330.489C929.659 328.387 930.217 326.2 930.775 323.926C931.375 321.61 931.933 319.251 932.448 316.849C933.005 314.404 933.499 312.044 933.927 309.771C934.399 307.455 934.764 305.288 935.021 303.272C935.279 301.213 935.407 299.412 935.407 297.868C935.407 297.353 935.364 296.731 935.279 296.002C935.236 295.272 935.086 294.565 934.828 293.878C934.571 293.192 934.163 292.613 933.606 292.141C933.091 291.626 932.362 291.369 931.418 291.369C930.946 291.369 930.324 291.476 929.552 291.691C928.823 291.905 928.115 292.634 927.429 293.878C926.743 295.079 926.099 296.581 925.499 298.382C924.898 300.184 924.34 302.179 923.826 304.366C923.311 306.511 922.839 308.634 922.41 310.736C922.024 312.838 921.66 314.811 921.316 316.656C921.016 318.457 920.759 319.937 920.544 321.095C920.201 323.025 919.965 324.977 919.837 326.95C919.708 328.881 919.493 330.811 919.193 332.741C918.807 335.229 918.164 337.846 917.263 340.591C916.362 343.336 915.14 345.845 913.595 348.119C912.094 350.392 910.228 352.28 907.998 353.781C905.81 355.239 903.215 355.969 900.212 355.969ZM1035.01 355.776C1029.52 355.776 1025.46 354.167 1022.85 350.95C1020.27 347.69 1018.99 342.628 1018.99 335.765C1018.99 333.32 1019.11 330.704 1019.37 327.915C1019.67 325.084 1020.04 322.189 1020.47 319.229C1020.94 316.269 1021.45 313.288 1022.01 310.286C1022.57 307.283 1023.1 304.409 1023.62 301.664C1024.13 298.919 1024.6 296.366 1025.03 294.007C1025.51 291.605 1025.87 289.503 1026.13 287.701C1028.4 271.401 1035.24 263.251 1046.65 263.251C1051.89 263.251 1055.92 264.881 1058.75 268.141C1061.58 271.401 1063 276.098 1063 282.232C1063 284.635 1062.78 287.187 1062.35 289.889C1061.97 292.592 1061.45 295.38 1060.81 298.254C1060.21 301.128 1059.54 304.044 1058.81 307.004C1058.08 309.964 1057.4 312.924 1056.75 315.883C1056.15 318.843 1055.64 321.76 1055.21 324.634C1054.82 327.465 1054.63 330.21 1054.63 332.87C1054.63 340.248 1052.94 345.91 1049.55 349.856C1046.16 353.802 1041.31 355.776 1035.01 355.776ZM1079.43 355.969C1077.25 355.969 1075.32 355.561 1073.64 354.746C1072.01 353.931 1070.6 352.837 1069.4 351.465C1068.24 350.092 1067.27 348.505 1066.5 346.703C1065.77 344.902 1065.19 343.036 1064.76 341.106C1064.33 339.175 1064.03 337.245 1063.86 335.315C1063.69 333.385 1063.61 331.583 1063.61 329.91C1063.61 327.851 1063.69 325.449 1063.86 322.704C1064.08 319.958 1064.36 317.063 1064.7 314.017C1065.04 310.929 1065.45 307.776 1065.92 304.559C1066.39 301.342 1066.89 298.211 1067.4 295.165C1067.96 292.12 1068.52 289.246 1069.07 286.543C1069.68 283.841 1070.28 281.482 1070.88 279.466C1071.61 277.021 1072.66 274.854 1074.03 272.967C1075.44 271.08 1077.07 269.493 1078.92 268.206C1080.81 266.919 1082.89 265.954 1085.16 265.31C1087.48 264.624 1089.88 264.281 1092.37 264.281C1094.6 264.281 1096.46 264.56 1097.96 265.117C1099.51 265.632 1100.77 266.297 1101.76 267.112C1102.79 267.927 1103.63 268.828 1104.27 269.814C1104.91 270.758 1105.45 271.637 1105.88 272.452C1106.35 273.267 1106.76 273.954 1107.1 274.511C1107.49 275.026 1107.92 275.283 1108.39 275.283C1108.86 275.283 1109.59 275.069 1110.58 274.64C1111.56 274.168 1112.7 273.589 1113.99 272.903C1115.27 272.216 1116.67 271.466 1118.17 270.651C1119.67 269.836 1121.19 269.085 1122.74 268.399C1124.32 267.712 1125.87 267.155 1127.37 266.726C1128.91 266.254 1130.33 266.018 1131.62 266.018C1134.75 266.018 1137.49 266.597 1139.85 267.755C1142.25 268.914 1144.31 270.479 1146.03 272.452C1147.79 274.383 1149.22 276.613 1150.34 279.144C1151.5 281.675 1152.42 284.334 1153.11 287.122C1153.83 289.868 1154.33 292.634 1154.59 295.423C1154.89 298.211 1155.04 300.827 1155.04 303.272C1155.04 306.447 1154.78 309.964 1154.26 313.824C1153.79 317.642 1153 321.481 1151.88 325.342C1150.81 329.202 1149.42 332.956 1147.7 336.602C1145.99 340.205 1143.9 343.4 1141.46 346.189C1139.06 348.977 1136.27 351.229 1133.1 352.945C1129.96 354.617 1126.4 355.454 1122.41 355.454C1120.66 355.454 1118.79 355.218 1116.82 354.746C1114.84 354.274 1113.02 353.567 1111.35 352.623C1109.67 351.636 1108.28 350.392 1107.17 348.891C1106.05 347.39 1105.49 345.588 1105.49 343.486C1105.49 342.199 1105.64 340.934 1105.94 339.69C1106.24 338.446 1106.56 337.202 1106.91 335.958C1107.34 334.371 1107.81 332.548 1108.32 330.489C1108.88 328.387 1109.44 326.2 1110 323.926C1110.6 321.61 1111.15 319.251 1111.67 316.849C1112.23 314.404 1112.72 312.044 1113.15 309.771C1113.62 307.455 1113.99 305.288 1114.24 303.272C1114.5 301.213 1114.63 299.412 1114.63 297.868C1114.63 297.353 1114.59 296.731 1114.5 296.002C1114.46 295.272 1114.31 294.565 1114.05 293.878C1113.79 293.192 1113.38 292.613 1112.83 292.141C1112.31 291.626 1111.58 291.369 1110.64 291.369C1110.17 291.369 1109.55 291.476 1108.77 291.691C1108.04 291.905 1107.34 292.634 1106.65 293.878C1105.96 295.079 1105.32 296.581 1104.72 298.382C1104.12 300.184 1103.56 302.179 1103.05 304.366C1102.53 306.511 1102.06 308.634 1101.63 310.736C1101.25 312.838 1100.88 314.811 1100.54 316.656C1100.24 318.457 1099.98 319.937 1099.77 321.095C1099.42 323.025 1099.19 324.977 1099.06 326.95C1098.93 328.881 1098.71 330.811 1098.41 332.741C1098.03 335.229 1097.39 337.846 1096.48 340.591C1095.58 343.336 1094.36 345.845 1092.82 348.119C1091.32 350.392 1089.45 352.28 1087.22 353.781C1085.03 355.239 1082.44 355.969 1079.43 355.969Z" fill="#FEFBFF"/>
</g>
<path d="M30.632 85.2318C52.1337 86.687 65.1529 72.0056 70.3086 62.057C70.479 61.7281 71.2166 61.9708 71.1652 62.3376C67.9673 85.1458 80.7302 99.2589 88.8856 104.349C89.1674 104.525 89.0013 105.009 88.6699 104.987C68.4309 103.635 54.8479 118.326 49.2331 128.067C49.0498 128.385 48.3756 128.128 48.4414 127.767C52.4276 105.908 38.9631 91.2878 30.4159 85.8479C30.1395 85.672 30.3051 85.2096 30.632 85.2318Z" fill="white"/>
<path d="M1163.69 272.699C1172.68 264.843 1172.03 253.986 1170.15 248.067C1170.09 247.871 1170.47 247.677 1170.6 247.841C1178.28 258.033 1188.82 258.562 1194.01 257.361C1194.19 257.319 1194.31 257.574 1194.17 257.695C1185.71 265.097 1186.15 276.179 1187.76 282.197C1187.82 282.393 1187.45 282.557 1187.34 282.39C1180.33 272.26 1169.32 271.807 1163.84 273.025C1163.66 273.065 1163.55 272.819 1163.69 272.699Z" fill="white"/>
<defs>
<filter id="filter0_d_1694_11" x="0.596069" y="0.122559" width="1212.19" height="366.502" filterUnits="userSpaceOnUse" color-interpolation-filters="sRGB">
<feFlood flood-opacity="0" result="BackgroundImageFix"/>
<feColorMatrix in="SourceAlpha" type="matrix" values="0 0 0 0 0 0 0 0 0 0 0 0 0 0 0 0 0 0 127 0" result="hardAlpha"/>
<feOffset/>
<feGaussianBlur stdDeviation="39.8074"/>
<feComposite in2="hardAlpha" operator="out"/>
<feColorMatrix type="matrix" values="0 0 0 0 0.454902 0 0 0 0 0.0117647 0 0 0 0 0.913725 0 0 0 0.25 0"/>
<feBlend mode="normal" in2="BackgroundImageFix" result="effect1_dropShadow_1694_11"/>
<feBlend mode="normal" in="SourceGraphic" in2="effect1_dropShadow_1694_11" result="shape"/>
</filter>
<filter id="filter1_d_1694_11" x="17.9203" y="202.01" width="1175.86" height="179.412" filterUnits="userSpaceOnUse" color-interpolation-filters="sRGB">
<feFlood flood-opacity="0" result="BackgroundImageFix"/>
<feColorMatrix in="SourceAlpha" type="matrix" values="0 0 0 0 0 0 0 0 0 0 0 0 0 0 0 0 0 0 127 0" result="hardAlpha"/>
<feOffset dy="-14.516"/>
<feGaussianBlur stdDeviation="19.3733"/>
<feComposite in2="hardAlpha" operator="out"/>
<feColorMatrix type="matrix" values="0 0 0 0 0.454902 0 0 0 0 0.0117647 0 0 0 0 0.913725 0 0 0 0.25 0"/>
<feBlend mode="normal" in2="BackgroundImageFix" result="effect1_dropShadow_1694_11"/>
<feBlend mode="normal" in="SourceGraphic" in2="effect1_dropShadow_1694_11" result="shape"/>
</filter>
</defs>
</svg>
