<svg width="1025" height="266" viewBox="0 0 1025 266" fill="none" xmlns="http://www.w3.org/2000/svg">
<path d="M93.0783 195.17C89.7906 195.17 86.9488 194.502 84.5527 193.164C82.1566 191.827 80.0949 190.072 78.3674 187.898C76.6958 185.669 75.3027 183.134 74.1882 180.292C73.1295 177.45 72.2937 174.525 71.6807 171.516C71.0677 168.507 70.6498 165.526 70.4269 162.572C70.204 159.563 70.0926 156.833 70.0926 154.381C70.0926 148.196 70.5662 141.899 71.5135 135.491C72.5165 129.083 74.0489 122.898 76.1107 116.935C78.1724 110.917 80.8193 105.261 84.0512 99.9676C87.2831 94.6739 91.128 90.0489 95.5858 86.0926C100.044 82.1363 105.17 79.0158 110.965 76.7312C116.761 74.4465 123.28 73.3042 130.524 73.3042C133.979 73.3042 137.434 73.6386 140.889 74.3072C144.343 74.9759 147.631 75.9789 150.751 77.3163C153.928 78.5979 156.881 80.2139 159.611 82.1642C162.398 84.1145 164.794 86.3991 166.8 89.0181C168.806 91.5813 170.394 94.4789 171.564 97.7108C172.734 100.887 173.319 104.398 173.319 108.242C173.319 115.821 171.285 121.672 167.218 125.795C163.206 129.919 157.41 131.98 149.832 131.98C148.495 131.98 147.157 131.869 145.82 131.646C144.483 131.367 143.173 131.228 141.892 131.228C141.279 131.228 140.666 131.312 140.053 131.479C139.495 131.646 139.217 132.148 139.217 132.983C139.217 133.652 139.44 134.209 139.886 134.655C140.331 135.045 140.861 135.38 141.474 135.658C142.142 135.937 142.783 136.16 143.396 136.327C144.065 136.438 144.594 136.55 144.984 136.661C148.885 137.608 152.507 139.141 155.85 141.258C159.249 143.32 162.203 145.828 164.71 148.781C167.218 151.734 169.196 155.05 170.645 158.727C172.093 162.405 172.818 166.334 172.818 170.513C172.818 173.856 172.205 176.977 170.979 179.874C169.809 182.716 168.137 185.196 165.964 187.313C163.846 189.375 161.339 190.991 158.441 192.161C155.599 193.331 152.507 193.916 149.163 193.916C145.987 193.916 143.396 193.387 141.39 192.328C139.44 191.27 137.852 189.877 136.626 188.149C135.4 186.366 134.48 184.332 133.867 182.047C133.254 179.707 132.753 177.283 132.363 174.776C131.973 172.212 131.583 169.621 131.193 167.002C130.858 164.383 130.329 161.931 129.605 159.647C128.936 157.306 127.989 155.189 126.763 153.294C125.537 151.4 123.865 149.895 121.748 148.781C121.19 148.502 120.661 148.363 120.16 148.363C119.157 148.363 118.293 148.809 117.569 149.7C116.844 150.536 116.231 151.623 115.73 152.96C115.228 154.297 114.81 155.802 114.476 157.474C114.197 159.09 113.947 160.706 113.724 162.322C113.556 163.882 113.445 165.331 113.389 166.668C113.334 167.95 113.306 168.925 113.306 169.593C113.306 172.491 112.86 175.444 111.968 178.453C111.133 181.462 109.851 184.221 108.123 186.728C106.396 189.18 104.279 191.214 101.771 192.83C99.2635 194.39 96.3659 195.17 93.0783 195.17ZM127.014 113.843C130.023 113.843 132.196 113.09 133.533 111.586C134.87 110.026 135.539 108.02 135.539 105.568C135.539 104.62 135.4 103.645 135.121 102.642C134.898 101.584 134.536 100.636 134.035 99.8005C133.533 98.9646 132.948 98.2681 132.279 97.7108C131.611 97.1536 130.858 96.875 130.023 96.875C128.629 96.875 127.404 97.2093 126.345 97.878C125.342 98.491 124.506 99.2989 123.837 100.302C123.169 101.305 122.667 102.419 122.333 103.645C122.054 104.816 121.915 105.958 121.915 107.072C121.915 107.63 121.971 108.298 122.082 109.078C122.194 109.858 122.416 110.611 122.751 111.335C123.141 112.059 123.67 112.672 124.339 113.174C125.008 113.62 125.899 113.843 127.014 113.843ZM224.222 194C216.087 194 208.954 193.136 202.825 191.409C196.695 189.626 191.568 186.617 187.445 182.382C183.377 178.091 180.312 172.407 178.251 165.331C176.189 158.198 175.158 149.255 175.158 138.5C175.158 134.934 175.465 130.894 176.078 126.38C176.69 121.811 177.638 117.158 178.919 112.422C180.201 107.685 181.845 103.032 183.851 98.4631C185.857 93.8938 188.253 89.8261 191.039 86.2598C193.825 82.6935 197.029 79.8238 200.651 77.6506C204.273 75.4774 208.313 74.3908 212.771 74.3908C215.78 74.3908 218.761 74.948 221.715 76.0625C224.668 77.1212 227.315 78.5979 229.655 80.4925C231.995 82.387 233.89 84.616 235.339 87.1792C236.788 89.7425 237.512 92.4729 237.512 95.3705C237.512 97.7666 237.178 100.33 236.509 103.06C235.896 105.735 235.116 108.493 234.169 111.335C233.221 114.121 232.19 116.963 231.076 119.861C229.962 122.703 228.931 125.517 227.983 128.303C227.036 131.089 226.228 133.819 225.559 136.494C224.947 139.169 224.64 141.704 224.64 144.1C224.64 145.828 224.863 147.499 225.309 149.115C225.81 150.675 226.562 152.069 227.565 153.294C228.568 154.52 229.822 155.495 231.327 156.22C232.887 156.944 234.698 157.306 236.76 157.306C238.877 157.306 240.633 156.694 242.026 155.468C243.419 154.186 244.561 152.542 245.453 150.536C246.344 148.474 246.985 146.19 247.375 143.682C247.821 141.119 248.127 138.556 248.294 135.992C248.462 133.429 248.545 130.977 248.545 128.637C248.545 126.297 248.545 124.346 248.545 122.786V97.6273C248.545 94.2839 248.991 91.2191 249.883 88.433C250.774 85.5911 252.056 83.1393 253.727 81.0776C255.455 78.9601 257.572 77.3163 260.08 76.1461C262.643 74.9759 265.568 74.3908 268.856 74.3908C271.865 74.3908 274.484 74.8923 276.713 75.8953C278.998 76.8983 280.92 78.2636 282.48 79.991C284.096 81.7184 285.434 83.7244 286.492 86.009C287.551 88.238 288.359 90.6062 288.916 93.1137C289.529 95.6212 289.947 98.1566 290.17 100.72C290.449 103.283 290.588 105.763 290.588 108.159C290.588 120.697 289.223 132.231 286.492 142.763C283.762 153.294 279.639 162.349 274.122 169.928C268.605 177.506 261.696 183.413 253.393 187.648C245.09 191.883 235.367 194 224.222 194ZM322.35 194.251C318.672 194.251 315.44 193.638 312.654 192.412C309.868 191.13 307.472 189.431 305.466 187.313C303.516 185.196 301.9 182.772 300.618 180.041C299.337 177.255 298.306 174.33 297.526 171.265C296.801 168.145 296.3 164.996 296.021 161.82C295.742 158.644 295.603 155.607 295.603 152.709C295.603 148.92 295.854 144.351 296.355 139.002C296.913 133.652 297.776 128.08 298.947 122.285C300.172 116.434 301.733 110.666 303.627 104.983C305.578 99.2432 307.974 94.0889 310.815 89.5196C313.713 84.9503 317.056 81.2726 320.846 78.4864C324.69 75.6446 329.093 74.2236 334.052 74.2236C337.34 74.2236 340.432 75.0595 343.33 76.7312C346.227 78.4029 348.986 80.5761 351.605 83.2508C354.279 85.8697 356.787 88.7952 359.127 92.0271C361.468 95.2033 363.724 98.3238 365.898 101.389C368.126 104.398 370.244 107.156 372.25 109.663C374.256 112.171 376.234 114.038 378.184 115.264C379.132 115.877 379.94 116.322 380.608 116.601C381.277 116.824 381.834 116.935 382.28 116.935C383.339 116.935 383.98 116.462 384.203 115.514C384.425 114.567 384.537 113.564 384.537 112.505C384.537 109.831 384.258 107.239 383.701 104.732C383.2 102.169 382.949 99.5776 382.949 96.9586C382.949 92.5008 383.534 88.6559 384.704 85.4239C385.874 82.1363 387.462 79.4337 389.468 77.3163C391.474 75.1988 393.815 73.6107 396.489 72.552C399.22 71.4932 402.117 70.9639 405.182 70.9639C408.247 70.9639 410.95 71.4096 413.29 72.3012C415.686 73.1928 417.776 74.4187 419.559 75.9789C421.342 77.5392 422.819 79.4059 423.989 81.5791C425.215 83.6965 426.19 86.009 426.914 88.5166C427.694 91.0241 428.251 93.6709 428.586 96.4571C428.92 99.2432 429.087 102.057 429.087 104.899C429.087 107.852 428.92 110.778 428.586 113.675C428.251 116.573 427.834 119.443 427.332 122.285C426.831 125.071 426.273 128.247 425.66 131.813C425.047 135.324 424.295 139.029 423.404 142.93C422.568 146.775 421.565 150.731 420.395 154.799C419.224 158.811 417.859 162.712 416.299 166.501C414.794 170.29 413.067 173.856 411.117 177.2C409.166 180.543 406.937 183.468 404.43 185.976C401.978 188.483 399.22 190.462 396.155 191.91C393.146 193.359 389.775 194.084 386.041 194.084C380.971 194.084 376.791 193.498 373.504 192.328C370.216 191.158 367.569 189.486 365.563 187.313C363.613 185.14 362.192 182.521 361.3 179.456C360.465 176.392 359.935 172.992 359.712 169.259C359.545 166.584 359.322 163.91 359.044 161.235C358.765 158.56 358.319 156.025 357.706 153.629C357.149 151.177 356.369 148.92 355.366 146.858C354.363 144.797 353.053 143.014 351.437 141.509C350.546 140.673 349.71 140.255 348.93 140.255C348.206 140.255 347.593 140.617 347.091 141.342C346.645 142.066 346.283 142.902 346.004 143.849C345.782 144.741 345.614 145.633 345.503 146.524C345.392 147.416 345.336 148.029 345.336 148.363C345.336 151.316 345.475 154.242 345.754 157.139C346.032 159.981 346.172 162.879 346.172 165.832C346.172 169.454 345.67 172.992 344.667 176.447C343.72 179.846 342.243 182.883 340.237 185.558C338.287 188.177 335.807 190.294 332.798 191.91C329.845 193.471 326.362 194.251 322.35 194.251ZM483.919 152.709C486.203 152.709 488.07 151.957 489.519 150.453C491.023 148.892 492.193 147.026 493.029 144.852C493.921 142.679 494.534 140.422 494.868 138.082C495.258 135.686 495.453 133.652 495.453 131.98C495.453 131.145 495.425 130.03 495.37 128.637C495.314 127.244 495.203 125.767 495.035 124.207C494.868 122.591 494.59 121.003 494.2 119.443C493.865 117.827 493.392 116.378 492.779 115.096C492.166 113.759 491.386 112.7 490.438 111.92C489.547 111.084 488.432 110.666 487.095 110.666C485.869 110.666 484.81 111.252 483.919 112.422C483.027 113.536 482.275 114.985 481.662 116.768C481.049 118.551 480.575 120.529 480.241 122.703C479.907 124.876 479.656 126.993 479.489 129.055C479.322 131.117 479.21 132.983 479.154 134.655C479.099 136.327 479.071 137.553 479.071 138.333C479.071 139.559 479.043 141.008 478.987 142.679C478.931 144.295 479.015 145.855 479.238 147.36C479.461 148.864 479.907 150.146 480.575 151.205C481.3 152.208 482.414 152.709 483.919 152.709ZM466.784 195.17C464.221 195.17 461.518 195.142 458.676 195.087C455.89 195.031 453.132 194.808 450.401 194.418C447.727 194.028 445.163 193.443 442.712 192.663C440.315 191.827 438.198 190.629 436.359 189.069C434.52 187.508 433.044 185.558 431.929 183.218C430.87 180.822 430.341 177.896 430.341 174.441C430.341 169.593 430.926 164.829 432.096 160.148C433.267 155.412 434.548 150.703 435.941 146.023C437.39 141.342 438.7 136.633 439.87 131.897C441.04 127.105 441.625 122.257 441.625 117.353C441.625 113.731 441.318 110.137 440.706 106.571C440.093 102.949 439.786 99.3547 439.786 95.7884C439.786 92.9465 440.26 90.439 441.207 88.2658C442.154 86.0926 443.436 84.198 445.052 82.5821C446.724 80.9661 448.646 79.6288 450.819 78.57C452.992 77.5113 455.277 76.6755 457.673 76.0625C460.069 75.3938 462.493 74.9202 464.945 74.6416C467.453 74.363 469.876 74.2236 472.217 74.2236C477.789 74.2236 483.194 74.8923 488.432 76.2297C493.67 77.567 498.602 79.4895 503.227 81.997C507.907 84.5045 512.17 87.5414 516.015 91.1077C519.916 94.6182 523.259 98.5745 526.045 102.977C528.887 107.379 531.088 112.171 532.648 117.353C534.209 122.48 534.989 127.913 534.989 133.652C534.989 140.283 534.153 146.413 532.481 152.041C530.865 157.669 528.553 162.767 525.544 167.337C522.59 171.906 519.024 175.918 514.845 179.373C510.721 182.828 506.124 185.725 501.053 188.066C496.038 190.406 490.633 192.189 484.838 193.415C479.043 194.585 473.025 195.17 466.784 195.17ZM589.653 194C582.799 194 576.335 193.136 570.261 191.409C564.243 189.626 558.95 186.951 554.38 183.385C549.867 179.819 546.3 175.305 543.681 169.844C541.062 164.383 539.753 157.947 539.753 150.536C539.753 144.351 540.505 138.11 542.01 131.813C543.514 125.517 545.66 119.471 548.446 113.675C551.232 107.825 554.631 102.364 558.643 97.2929C562.655 92.1664 567.141 87.7086 572.1 83.9194C577.059 80.1303 582.465 77.1491 588.316 74.9759C594.222 72.8027 600.463 71.7161 607.038 71.7161C614.672 71.7161 621.582 73.0813 627.767 75.8117C634.008 78.5422 639.33 82.3035 643.732 87.0956C648.19 91.8878 651.617 97.5437 654.013 104.063C656.409 110.527 657.607 117.548 657.607 125.127C657.607 135.157 655.935 144.379 652.592 152.793C649.304 161.207 644.651 168.479 638.633 174.608C632.671 180.682 625.511 185.447 617.152 188.901C608.849 192.3 599.683 194 589.653 194ZM596.005 152.709C598.011 152.709 599.739 152.236 601.187 151.288C602.692 150.341 603.946 149.115 604.949 147.611C606.008 146.106 606.843 144.379 607.456 142.428C608.125 140.478 608.627 138.5 608.961 136.494C609.351 134.488 609.602 132.538 609.713 130.643C609.88 128.693 609.964 126.993 609.964 125.544C609.964 124.486 609.908 123.12 609.797 121.449C609.685 119.721 609.407 118.05 608.961 116.434C608.571 114.762 607.93 113.341 607.038 112.171C606.147 111.001 604.949 110.416 603.444 110.416C601.661 110.416 600.045 110.917 598.596 111.92C597.203 112.867 595.95 114.149 594.835 115.765C593.776 117.381 592.857 119.22 592.077 121.282C591.297 123.288 590.656 125.322 590.154 127.383C589.653 129.445 589.291 131.451 589.068 133.401C588.845 135.352 588.733 137.023 588.733 138.416C588.733 139.587 588.789 141.008 588.901 142.679C589.068 144.295 589.402 145.855 589.904 147.36C590.405 148.809 591.13 150.062 592.077 151.121C593.024 152.18 594.334 152.709 596.005 152.709ZM777.049 194C774.43 194 772.173 193.498 770.279 192.495C768.44 191.437 766.852 190.072 765.514 188.4C764.177 186.672 763.035 184.75 762.087 182.633C761.14 180.459 760.276 178.258 759.496 176.029C758.716 173.745 757.936 171.544 757.156 169.426C756.376 167.253 755.456 165.331 754.398 163.659C753.395 161.931 752.196 160.566 750.803 159.563C749.41 158.505 747.711 157.975 745.705 157.975C743.03 157.975 740.328 158.867 737.597 160.65C734.922 162.433 732.164 164.662 729.322 167.337C726.536 170.011 723.666 172.909 720.713 176.029C717.76 179.094 714.695 181.964 711.519 184.639C708.398 187.313 705.111 189.542 701.656 191.325C698.257 193.108 694.69 194 690.957 194C685.218 194 680.425 192.83 676.581 190.489C672.736 188.093 669.643 184.973 667.303 181.128C665.018 177.283 663.374 172.965 662.371 168.172C661.424 163.38 660.95 158.56 660.95 153.712C660.95 150.648 661.145 147.165 661.535 143.264C661.925 139.308 662.51 135.184 663.291 130.894C664.071 126.547 665.074 122.117 666.3 117.604C667.526 113.09 668.974 108.716 670.646 104.481C672.318 100.246 674.212 96.262 676.33 92.5286C678.503 88.7395 680.927 85.4518 683.602 82.6657C686.276 79.8795 689.202 77.6785 692.378 76.0625C695.554 74.4465 699.009 73.6386 702.742 73.6386C705.696 73.6386 708.398 74.1122 710.85 75.0595C713.302 75.9511 715.392 77.2605 717.119 78.988C718.902 80.6596 720.295 82.6935 721.298 85.0896C722.301 87.4857 722.803 90.1883 722.803 93.1973C722.803 95.4262 722.468 97.9059 721.8 100.636C721.131 103.367 720.267 106.181 719.209 109.078C718.206 111.92 717.119 114.79 715.949 117.687C714.779 120.529 713.664 123.26 712.605 125.879C711.602 128.442 710.767 130.81 710.098 132.983C709.429 135.101 709.095 136.884 709.095 138.333C709.095 139.447 709.29 140.2 709.68 140.59C710.07 140.98 710.85 141.175 712.02 141.175C713.358 141.175 714.779 140.757 716.283 139.921C717.843 139.029 719.376 137.831 720.88 136.327C722.44 134.767 723.917 132.956 725.31 130.894C726.759 128.832 728.013 126.603 729.071 124.207C730.186 121.811 731.05 119.303 731.663 116.684C732.331 114.066 732.666 111.447 732.666 108.828C732.666 106.877 732.833 105.094 733.167 103.478C733.501 101.862 734.059 100.497 734.839 99.3825C735.675 98.2123 736.733 97.3208 738.015 96.7078C739.352 96.0392 741.024 95.7048 743.03 95.7048C745.036 95.7048 746.68 95.9834 747.962 96.5407C749.299 97.0422 750.385 97.683 751.221 98.4631C752.057 99.2432 752.698 100.079 753.144 100.971C753.645 101.862 754.035 102.698 754.314 103.478C754.871 104.983 755.345 106.682 755.735 108.577C756.181 110.416 756.599 112.282 756.989 114.177C757.379 116.016 757.797 117.827 758.242 119.61C758.688 121.393 759.19 122.981 759.747 124.374C760.36 125.767 761.084 126.882 761.92 127.718C762.812 128.553 763.843 128.971 765.013 128.971C766.517 128.971 767.548 128.665 768.105 128.052C768.718 127.383 769.025 126.38 769.025 125.043C769.025 122.703 768.941 120.418 768.774 118.189C768.607 115.96 768.412 113.759 768.189 111.586C768.022 109.357 767.855 107.128 767.687 104.899C767.52 102.614 767.437 100.246 767.437 97.7944C767.437 94.1724 767.799 90.8569 768.523 87.8479C769.248 84.8389 770.446 82.2477 772.117 80.0745C773.789 77.9014 776.018 76.2018 778.804 74.9759C781.59 73.75 785.045 73.137 789.169 73.137C794.685 73.137 799.143 74.6694 802.542 77.7342C805.941 80.7432 808.56 84.8946 810.399 90.1883C812.238 95.4262 813.464 101.584 814.077 108.66C814.745 115.737 815.08 123.316 815.08 131.395C815.08 135.407 814.857 139.754 814.411 144.434C813.965 149.059 813.185 153.684 812.071 158.309C810.956 162.934 809.452 167.42 807.557 171.767C805.718 176.057 803.378 179.846 800.536 183.134C797.75 186.422 794.407 189.069 790.506 191.075C786.661 193.025 782.175 194 777.049 194ZM847.928 194.251C844.251 194.251 841.019 193.638 838.233 192.412C835.447 191.13 833.05 189.431 831.044 187.313C829.094 185.196 827.478 182.772 826.197 180.041C824.915 177.255 823.884 174.33 823.104 171.265C822.379 168.145 821.878 164.996 821.599 161.82C821.321 158.644 821.181 155.607 821.181 152.709C821.181 148.92 821.432 144.351 821.934 139.002C822.491 133.652 823.355 128.08 824.525 122.285C825.751 116.434 827.311 110.666 829.206 104.983C831.156 99.2432 833.552 94.0889 836.394 89.5196C839.291 84.9503 842.635 81.2726 846.424 78.4864C850.269 75.6446 854.671 74.2236 859.63 74.2236C862.918 74.2236 866.011 75.0595 868.908 76.7312C871.806 78.4029 874.564 80.5761 877.183 83.2508C879.858 85.8697 882.365 88.7952 884.706 92.0271C887.046 95.2033 889.303 98.3238 891.476 101.389C893.705 104.398 895.822 107.156 897.828 109.663C899.834 112.171 901.812 114.038 903.763 115.264C904.71 115.877 905.518 116.322 906.187 116.601C906.855 116.824 907.413 116.935 907.858 116.935C908.917 116.935 909.558 116.462 909.781 115.514C910.004 114.567 910.115 113.564 910.115 112.505C910.115 109.831 909.837 107.239 909.279 104.732C908.778 102.169 908.527 99.5776 908.527 96.9586C908.527 92.5008 909.112 88.6559 910.282 85.4239C911.453 82.1363 913.041 79.4337 915.047 77.3163C917.053 75.1988 919.393 73.6107 922.068 72.552C924.798 71.4932 927.696 70.9639 930.761 70.9639C933.825 70.9639 936.528 71.4096 938.868 72.3012C941.264 73.1928 943.354 74.4187 945.137 75.9789C946.92 77.5392 948.397 79.4059 949.567 81.5791C950.793 83.6965 951.768 86.009 952.492 88.5166C953.273 91.0241 953.83 93.6709 954.164 96.4571C954.498 99.2432 954.666 102.057 954.666 104.899C954.666 107.852 954.498 110.778 954.164 113.675C953.83 116.573 953.412 119.443 952.91 122.285C952.409 125.071 951.852 128.247 951.239 131.813C950.626 135.324 949.873 139.029 948.982 142.93C948.146 146.775 947.143 150.731 945.973 154.799C944.803 158.811 943.437 162.712 941.877 166.501C940.373 170.29 938.645 173.856 936.695 177.2C934.745 180.543 932.516 183.468 930.008 185.976C927.556 188.483 924.798 190.462 921.733 191.91C918.724 193.359 915.353 194.084 911.62 194.084C906.549 194.084 902.37 193.498 899.082 192.328C895.794 191.158 893.148 189.486 891.142 187.313C889.191 185.14 887.77 182.521 886.879 179.456C886.043 176.392 885.514 172.992 885.291 169.259C885.123 166.584 884.901 163.91 884.622 161.235C884.343 158.56 883.898 156.025 883.285 153.629C882.727 151.177 881.947 148.92 880.944 146.858C879.941 144.797 878.632 143.014 877.016 141.509C876.124 140.673 875.288 140.255 874.508 140.255C873.784 140.255 873.171 140.617 872.669 141.342C872.224 142.066 871.861 142.902 871.583 143.849C871.36 144.741 871.193 145.633 871.081 146.524C870.97 147.416 870.914 148.029 870.914 148.363C870.914 151.316 871.053 154.242 871.332 157.139C871.611 159.981 871.75 162.879 871.75 165.832C871.75 169.454 871.248 172.992 870.245 176.447C869.298 179.846 867.822 182.883 865.815 185.558C863.865 188.177 861.386 190.294 858.376 191.91C855.423 193.471 851.94 194.251 847.928 194.251Z" fill="#E8D5FF"/>
<g filter="url(#filter0_f_1651_228)">
<path d="M93.0783 195.17C89.7906 195.17 86.9488 194.502 84.5527 193.164C82.1566 191.827 80.0949 190.072 78.3674 187.898C76.6958 185.669 75.3027 183.134 74.1882 180.292C73.1295 177.45 72.2937 174.525 71.6807 171.516C71.0677 168.507 70.6498 165.526 70.4269 162.572C70.204 159.563 70.0926 156.833 70.0926 154.381C70.0926 148.196 70.5662 141.899 71.5135 135.491C72.5165 129.083 74.0489 122.898 76.1107 116.935C78.1724 110.917 80.8193 105.261 84.0512 99.9676C87.2831 94.6739 91.128 90.0489 95.5858 86.0926C100.044 82.1363 105.17 79.0158 110.965 76.7312C116.761 74.4465 123.28 73.3042 130.524 73.3042C133.979 73.3042 137.434 73.6386 140.889 74.3072C144.343 74.9759 147.631 75.9789 150.751 77.3163C153.928 78.5979 156.881 80.2139 159.611 82.1642C162.398 84.1145 164.794 86.3991 166.8 89.0181C168.806 91.5813 170.394 94.4789 171.564 97.7108C172.734 100.887 173.319 104.398 173.319 108.242C173.319 115.821 171.285 121.672 167.218 125.795C163.206 129.919 157.41 131.98 149.832 131.98C148.495 131.98 147.157 131.869 145.82 131.646C144.483 131.367 143.173 131.228 141.892 131.228C141.279 131.228 140.666 131.312 140.053 131.479C139.495 131.646 139.217 132.148 139.217 132.983C139.217 133.652 139.44 134.209 139.886 134.655C140.331 135.045 140.861 135.38 141.474 135.658C142.142 135.937 142.783 136.16 143.396 136.327C144.065 136.438 144.594 136.55 144.984 136.661C148.885 137.608 152.507 139.141 155.85 141.258C159.249 143.32 162.203 145.828 164.71 148.781C167.218 151.734 169.196 155.05 170.645 158.727C172.093 162.405 172.818 166.334 172.818 170.513C172.818 173.856 172.205 176.977 170.979 179.874C169.809 182.716 168.137 185.196 165.964 187.313C163.846 189.375 161.339 190.991 158.441 192.161C155.599 193.331 152.507 193.916 149.163 193.916C145.987 193.916 143.396 193.387 141.39 192.328C139.44 191.27 137.852 189.877 136.626 188.149C135.4 186.366 134.48 184.332 133.867 182.047C133.254 179.707 132.753 177.283 132.363 174.776C131.973 172.212 131.583 169.621 131.193 167.002C130.858 164.383 130.329 161.931 129.605 159.647C128.936 157.306 127.989 155.189 126.763 153.294C125.537 151.4 123.865 149.895 121.748 148.781C121.19 148.502 120.661 148.363 120.16 148.363C119.157 148.363 118.293 148.809 117.569 149.7C116.844 150.536 116.231 151.623 115.73 152.96C115.228 154.297 114.81 155.802 114.476 157.474C114.197 159.09 113.947 160.706 113.724 162.322C113.556 163.882 113.445 165.331 113.389 166.668C113.334 167.95 113.306 168.925 113.306 169.593C113.306 172.491 112.86 175.444 111.968 178.453C111.133 181.462 109.851 184.221 108.123 186.728C106.396 189.18 104.279 191.214 101.771 192.83C99.2635 194.39 96.3659 195.17 93.0783 195.17ZM127.014 113.843C130.023 113.843 132.196 113.09 133.533 111.586C134.87 110.026 135.539 108.02 135.539 105.568C135.539 104.62 135.4 103.645 135.121 102.642C134.898 101.584 134.536 100.636 134.035 99.8005C133.533 98.9646 132.948 98.2681 132.279 97.7108C131.611 97.1536 130.858 96.875 130.023 96.875C128.629 96.875 127.404 97.2093 126.345 97.878C125.342 98.491 124.506 99.2989 123.837 100.302C123.169 101.305 122.667 102.419 122.333 103.645C122.054 104.816 121.915 105.958 121.915 107.072C121.915 107.63 121.971 108.298 122.082 109.078C122.194 109.858 122.416 110.611 122.751 111.335C123.141 112.059 123.67 112.672 124.339 113.174C125.008 113.62 125.899 113.843 127.014 113.843ZM224.222 194C216.087 194 208.954 193.136 202.825 191.409C196.695 189.626 191.568 186.617 187.445 182.382C183.377 178.091 180.312 172.407 178.251 165.331C176.189 158.198 175.158 149.255 175.158 138.5C175.158 134.934 175.465 130.894 176.078 126.38C176.69 121.811 177.638 117.158 178.919 112.422C180.201 107.685 181.845 103.032 183.851 98.4631C185.857 93.8938 188.253 89.8261 191.039 86.2598C193.825 82.6935 197.029 79.8238 200.651 77.6506C204.273 75.4774 208.313 74.3908 212.771 74.3908C215.78 74.3908 218.761 74.948 221.715 76.0625C224.668 77.1212 227.315 78.5979 229.655 80.4925C231.995 82.387 233.89 84.616 235.339 87.1792C236.788 89.7425 237.512 92.4729 237.512 95.3705C237.512 97.7666 237.178 100.33 236.509 103.06C235.896 105.735 235.116 108.493 234.169 111.335C233.221 114.121 232.19 116.963 231.076 119.861C229.962 122.703 228.931 125.517 227.983 128.303C227.036 131.089 226.228 133.819 225.559 136.494C224.947 139.169 224.64 141.704 224.64 144.1C224.64 145.828 224.863 147.499 225.309 149.115C225.81 150.675 226.562 152.069 227.565 153.294C228.568 154.52 229.822 155.495 231.327 156.22C232.887 156.944 234.698 157.306 236.76 157.306C238.877 157.306 240.633 156.694 242.026 155.468C243.419 154.186 244.561 152.542 245.453 150.536C246.344 148.474 246.985 146.19 247.375 143.682C247.821 141.119 248.127 138.556 248.294 135.992C248.462 133.429 248.545 130.977 248.545 128.637C248.545 126.297 248.545 124.346 248.545 122.786V97.6273C248.545 94.2839 248.991 91.2191 249.883 88.433C250.774 85.5911 252.056 83.1393 253.727 81.0776C255.455 78.9601 257.572 77.3163 260.08 76.1461C262.643 74.9759 265.568 74.3908 268.856 74.3908C271.865 74.3908 274.484 74.8923 276.713 75.8953C278.998 76.8983 280.92 78.2636 282.48 79.991C284.096 81.7184 285.434 83.7244 286.492 86.009C287.551 88.238 288.359 90.6062 288.916 93.1137C289.529 95.6212 289.947 98.1566 290.17 100.72C290.449 103.283 290.588 105.763 290.588 108.159C290.588 120.697 289.223 132.231 286.492 142.763C283.762 153.294 279.639 162.349 274.122 169.928C268.605 177.506 261.696 183.413 253.393 187.648C245.09 191.883 235.367 194 224.222 194ZM322.35 194.251C318.672 194.251 315.44 193.638 312.654 192.412C309.868 191.13 307.472 189.431 305.466 187.313C303.516 185.196 301.9 182.772 300.618 180.041C299.337 177.255 298.306 174.33 297.526 171.265C296.801 168.145 296.3 164.996 296.021 161.82C295.742 158.644 295.603 155.607 295.603 152.709C295.603 148.92 295.854 144.351 296.355 139.002C296.913 133.652 297.776 128.08 298.947 122.285C300.172 116.434 301.733 110.666 303.627 104.983C305.578 99.2432 307.974 94.0889 310.815 89.5196C313.713 84.9503 317.056 81.2726 320.846 78.4864C324.69 75.6446 329.093 74.2236 334.052 74.2236C337.34 74.2236 340.432 75.0595 343.33 76.7312C346.227 78.4029 348.986 80.5761 351.605 83.2508C354.279 85.8697 356.787 88.7952 359.127 92.0271C361.468 95.2033 363.724 98.3238 365.898 101.389C368.126 104.398 370.244 107.156 372.25 109.663C374.256 112.171 376.234 114.038 378.184 115.264C379.132 115.877 379.94 116.322 380.608 116.601C381.277 116.824 381.834 116.935 382.28 116.935C383.339 116.935 383.98 116.462 384.203 115.514C384.425 114.567 384.537 113.564 384.537 112.505C384.537 109.831 384.258 107.239 383.701 104.732C383.2 102.169 382.949 99.5776 382.949 96.9586C382.949 92.5008 383.534 88.6559 384.704 85.4239C385.874 82.1363 387.462 79.4337 389.468 77.3163C391.474 75.1988 393.815 73.6107 396.489 72.552C399.22 71.4932 402.117 70.9639 405.182 70.9639C408.247 70.9639 410.95 71.4096 413.29 72.3012C415.686 73.1928 417.776 74.4187 419.559 75.9789C421.342 77.5392 422.819 79.4059 423.989 81.5791C425.215 83.6965 426.19 86.009 426.914 88.5166C427.694 91.0241 428.251 93.6709 428.586 96.4571C428.92 99.2432 429.087 102.057 429.087 104.899C429.087 107.852 428.92 110.778 428.586 113.675C428.251 116.573 427.834 119.443 427.332 122.285C426.831 125.071 426.273 128.247 425.66 131.813C425.047 135.324 424.295 139.029 423.404 142.93C422.568 146.775 421.565 150.731 420.395 154.799C419.224 158.811 417.859 162.712 416.299 166.501C414.794 170.29 413.067 173.856 411.117 177.2C409.166 180.543 406.937 183.468 404.43 185.976C401.978 188.483 399.22 190.462 396.155 191.91C393.146 193.359 389.775 194.084 386.041 194.084C380.971 194.084 376.791 193.498 373.504 192.328C370.216 191.158 367.569 189.486 365.563 187.313C363.613 185.14 362.192 182.521 361.3 179.456C360.465 176.392 359.935 172.992 359.712 169.259C359.545 166.584 359.322 163.91 359.044 161.235C358.765 158.56 358.319 156.025 357.706 153.629C357.149 151.177 356.369 148.92 355.366 146.858C354.363 144.797 353.053 143.014 351.437 141.509C350.546 140.673 349.71 140.255 348.93 140.255C348.206 140.255 347.593 140.617 347.091 141.342C346.645 142.066 346.283 142.902 346.004 143.849C345.782 144.741 345.614 145.633 345.503 146.524C345.392 147.416 345.336 148.029 345.336 148.363C345.336 151.316 345.475 154.242 345.754 157.139C346.032 159.981 346.172 162.879 346.172 165.832C346.172 169.454 345.67 172.992 344.667 176.447C343.72 179.846 342.243 182.883 340.237 185.558C338.287 188.177 335.807 190.294 332.798 191.91C329.845 193.471 326.362 194.251 322.35 194.251ZM483.919 152.709C486.203 152.709 488.07 151.957 489.519 150.453C491.023 148.892 492.193 147.026 493.029 144.852C493.921 142.679 494.534 140.422 494.868 138.082C495.258 135.686 495.453 133.652 495.453 131.98C495.453 131.145 495.425 130.03 495.37 128.637C495.314 127.244 495.203 125.767 495.035 124.207C494.868 122.591 494.59 121.003 494.2 119.443C493.865 117.827 493.392 116.378 492.779 115.096C492.166 113.759 491.386 112.7 490.438 111.92C489.547 111.084 488.432 110.666 487.095 110.666C485.869 110.666 484.81 111.252 483.919 112.422C483.027 113.536 482.275 114.985 481.662 116.768C481.049 118.551 480.575 120.529 480.241 122.703C479.907 124.876 479.656 126.993 479.489 129.055C479.322 131.117 479.21 132.983 479.154 134.655C479.099 136.327 479.071 137.553 479.071 138.333C479.071 139.559 479.043 141.008 478.987 142.679C478.931 144.295 479.015 145.855 479.238 147.36C479.461 148.864 479.907 150.146 480.575 151.205C481.3 152.208 482.414 152.709 483.919 152.709ZM466.784 195.17C464.221 195.17 461.518 195.142 458.676 195.087C455.89 195.031 453.132 194.808 450.401 194.418C447.727 194.028 445.163 193.443 442.712 192.663C440.315 191.827 438.198 190.629 436.359 189.069C434.52 187.508 433.044 185.558 431.929 183.218C430.87 180.822 430.341 177.896 430.341 174.441C430.341 169.593 430.926 164.829 432.096 160.148C433.267 155.412 434.548 150.703 435.941 146.023C437.39 141.342 438.7 136.633 439.87 131.897C441.04 127.105 441.625 122.257 441.625 117.353C441.625 113.731 441.318 110.137 440.706 106.571C440.093 102.949 439.786 99.3547 439.786 95.7884C439.786 92.9465 440.26 90.439 441.207 88.2658C442.154 86.0926 443.436 84.198 445.052 82.5821C446.724 80.9661 448.646 79.6288 450.819 78.57C452.992 77.5113 455.277 76.6755 457.673 76.0625C460.069 75.3938 462.493 74.9202 464.945 74.6416C467.453 74.363 469.876 74.2236 472.217 74.2236C477.789 74.2236 483.194 74.8923 488.432 76.2297C493.67 77.567 498.602 79.4895 503.227 81.997C507.907 84.5045 512.17 87.5414 516.015 91.1077C519.916 94.6182 523.259 98.5745 526.045 102.977C528.887 107.379 531.088 112.171 532.648 117.353C534.209 122.48 534.989 127.913 534.989 133.652C534.989 140.283 534.153 146.413 532.481 152.041C530.865 157.669 528.553 162.767 525.544 167.337C522.59 171.906 519.024 175.918 514.845 179.373C510.721 182.828 506.124 185.725 501.053 188.066C496.038 190.406 490.633 192.189 484.838 193.415C479.043 194.585 473.025 195.17 466.784 195.17ZM589.653 194C582.799 194 576.335 193.136 570.261 191.409C564.243 189.626 558.95 186.951 554.38 183.385C549.867 179.819 546.3 175.305 543.681 169.844C541.062 164.383 539.753 157.947 539.753 150.536C539.753 144.351 540.505 138.11 542.01 131.813C543.514 125.517 545.66 119.471 548.446 113.675C551.232 107.825 554.631 102.364 558.643 97.2929C562.655 92.1664 567.141 87.7086 572.1 83.9194C577.059 80.1303 582.465 77.1491 588.316 74.9759C594.222 72.8027 600.463 71.7161 607.038 71.7161C614.672 71.7161 621.582 73.0813 627.767 75.8117C634.008 78.5422 639.33 82.3035 643.732 87.0956C648.19 91.8878 651.617 97.5437 654.013 104.063C656.409 110.527 657.607 117.548 657.607 125.127C657.607 135.157 655.935 144.379 652.592 152.793C649.304 161.207 644.651 168.479 638.633 174.608C632.671 180.682 625.511 185.447 617.152 188.901C608.849 192.3 599.683 194 589.653 194ZM596.005 152.709C598.011 152.709 599.739 152.236 601.187 151.288C602.692 150.341 603.946 149.115 604.949 147.611C606.008 146.106 606.843 144.379 607.456 142.428C608.125 140.478 608.627 138.5 608.961 136.494C609.351 134.488 609.602 132.538 609.713 130.643C609.88 128.693 609.964 126.993 609.964 125.544C609.964 124.486 609.908 123.12 609.797 121.449C609.685 119.721 609.407 118.05 608.961 116.434C608.571 114.762 607.93 113.341 607.038 112.171C606.147 111.001 604.949 110.416 603.444 110.416C601.661 110.416 600.045 110.917 598.596 111.92C597.203 112.867 595.95 114.149 594.835 115.765C593.776 117.381 592.857 119.22 592.077 121.282C591.297 123.288 590.656 125.322 590.154 127.383C589.653 129.445 589.291 131.451 589.068 133.401C588.845 135.352 588.733 137.023 588.733 138.416C588.733 139.587 588.789 141.008 588.901 142.679C589.068 144.295 589.402 145.855 589.904 147.36C590.405 148.809 591.13 150.062 592.077 151.121C593.024 152.18 594.334 152.709 596.005 152.709ZM777.049 194C774.43 194 772.173 193.498 770.279 192.495C768.44 191.437 766.852 190.072 765.514 188.4C764.177 186.672 763.035 184.75 762.087 182.633C761.14 180.459 760.276 178.258 759.496 176.029C758.716 173.745 757.936 171.544 757.156 169.426C756.376 167.253 755.456 165.331 754.398 163.659C753.395 161.931 752.196 160.566 750.803 159.563C749.41 158.505 747.711 157.975 745.705 157.975C743.03 157.975 740.328 158.867 737.597 160.65C734.922 162.433 732.164 164.662 729.322 167.337C726.536 170.011 723.666 172.909 720.713 176.029C717.76 179.094 714.695 181.964 711.519 184.639C708.398 187.313 705.111 189.542 701.656 191.325C698.257 193.108 694.69 194 690.957 194C685.218 194 680.425 192.83 676.581 190.489C672.736 188.093 669.643 184.973 667.303 181.128C665.018 177.283 663.374 172.965 662.371 168.172C661.424 163.38 660.95 158.56 660.95 153.712C660.95 150.648 661.145 147.165 661.535 143.264C661.925 139.308 662.51 135.184 663.291 130.894C664.071 126.547 665.074 122.117 666.3 117.604C667.526 113.09 668.974 108.716 670.646 104.481C672.318 100.246 674.212 96.262 676.33 92.5286C678.503 88.7395 680.927 85.4518 683.602 82.6657C686.276 79.8795 689.202 77.6785 692.378 76.0625C695.554 74.4465 699.009 73.6386 702.742 73.6386C705.696 73.6386 708.398 74.1122 710.85 75.0595C713.302 75.9511 715.392 77.2605 717.119 78.988C718.902 80.6596 720.295 82.6935 721.298 85.0896C722.301 87.4857 722.803 90.1883 722.803 93.1973C722.803 95.4262 722.468 97.9059 721.8 100.636C721.131 103.367 720.267 106.181 719.209 109.078C718.206 111.92 717.119 114.79 715.949 117.687C714.779 120.529 713.664 123.26 712.605 125.879C711.602 128.442 710.767 130.81 710.098 132.983C709.429 135.101 709.095 136.884 709.095 138.333C709.095 139.447 709.29 140.2 709.68 140.59C710.07 140.98 710.85 141.175 712.02 141.175C713.358 141.175 714.779 140.757 716.283 139.921C717.843 139.029 719.376 137.831 720.88 136.327C722.44 134.767 723.917 132.956 725.31 130.894C726.759 128.832 728.013 126.603 729.071 124.207C730.186 121.811 731.05 119.303 731.663 116.684C732.331 114.066 732.666 111.447 732.666 108.828C732.666 106.877 732.833 105.094 733.167 103.478C733.501 101.862 734.059 100.497 734.839 99.3825C735.675 98.2123 736.733 97.3208 738.015 96.7078C739.352 96.0392 741.024 95.7048 743.03 95.7048C745.036 95.7048 746.68 95.9834 747.962 96.5407C749.299 97.0422 750.385 97.683 751.221 98.4631C752.057 99.2432 752.698 100.079 753.144 100.971C753.645 101.862 754.035 102.698 754.314 103.478C754.871 104.983 755.345 106.682 755.735 108.577C756.181 110.416 756.599 112.282 756.989 114.177C757.379 116.016 757.797 117.827 758.242 119.61C758.688 121.393 759.19 122.981 759.747 124.374C760.36 125.767 761.084 126.882 761.92 127.718C762.812 128.553 763.843 128.971 765.013 128.971C766.517 128.971 767.548 128.665 768.105 128.052C768.718 127.383 769.025 126.38 769.025 125.043C769.025 122.703 768.941 120.418 768.774 118.189C768.607 115.96 768.412 113.759 768.189 111.586C768.022 109.357 767.855 107.128 767.687 104.899C767.52 102.614 767.437 100.246 767.437 97.7944C767.437 94.1724 767.799 90.8569 768.523 87.8479C769.248 84.8389 770.446 82.2477 772.117 80.0745C773.789 77.9014 776.018 76.2018 778.804 74.9759C781.59 73.75 785.045 73.137 789.169 73.137C794.685 73.137 799.143 74.6694 802.542 77.7342C805.941 80.7432 808.56 84.8946 810.399 90.1883C812.238 95.4262 813.464 101.584 814.077 108.66C814.745 115.737 815.08 123.316 815.08 131.395C815.08 135.407 814.857 139.754 814.411 144.434C813.965 149.059 813.185 153.684 812.071 158.309C810.956 162.934 809.452 167.42 807.557 171.767C805.718 176.057 803.378 179.846 800.536 183.134C797.75 186.422 794.407 189.069 790.506 191.075C786.661 193.025 782.175 194 777.049 194ZM847.928 194.251C844.251 194.251 841.019 193.638 838.233 192.412C835.447 191.13 833.05 189.431 831.044 187.313C829.094 185.196 827.478 182.772 826.197 180.041C824.915 177.255 823.884 174.33 823.104 171.265C822.379 168.145 821.878 164.996 821.599 161.82C821.321 158.644 821.181 155.607 821.181 152.709C821.181 148.92 821.432 144.351 821.934 139.002C822.491 133.652 823.355 128.08 824.525 122.285C825.751 116.434 827.311 110.666 829.206 104.983C831.156 99.2432 833.552 94.0889 836.394 89.5196C839.291 84.9503 842.635 81.2726 846.424 78.4864C850.269 75.6446 854.671 74.2236 859.63 74.2236C862.918 74.2236 866.011 75.0595 868.908 76.7312C871.806 78.4029 874.564 80.5761 877.183 83.2508C879.858 85.8697 882.365 88.7952 884.706 92.0271C887.046 95.2033 889.303 98.3238 891.476 101.389C893.705 104.398 895.822 107.156 897.828 109.663C899.834 112.171 901.812 114.038 903.763 115.264C904.71 115.877 905.518 116.322 906.187 116.601C906.855 116.824 907.413 116.935 907.858 116.935C908.917 116.935 909.558 116.462 909.781 115.514C910.004 114.567 910.115 113.564 910.115 112.505C910.115 109.831 909.837 107.239 909.279 104.732C908.778 102.169 908.527 99.5776 908.527 96.9586C908.527 92.5008 909.112 88.6559 910.282 85.4239C911.453 82.1363 913.041 79.4337 915.047 77.3163C917.053 75.1988 919.393 73.6107 922.068 72.552C924.798 71.4932 927.696 70.9639 930.761 70.9639C933.825 70.9639 936.528 71.4096 938.868 72.3012C941.264 73.1928 943.354 74.4187 945.137 75.9789C946.92 77.5392 948.397 79.4059 949.567 81.5791C950.793 83.6965 951.768 86.009 952.492 88.5166C953.273 91.0241 953.83 93.6709 954.164 96.4571C954.498 99.2432 954.666 102.057 954.666 104.899C954.666 107.852 954.498 110.778 954.164 113.675C953.83 116.573 953.412 119.443 952.91 122.285C952.409 125.071 951.852 128.247 951.239 131.813C950.626 135.324 949.873 139.029 948.982 142.93C948.146 146.775 947.143 150.731 945.973 154.799C944.803 158.811 943.437 162.712 941.877 166.501C940.373 170.29 938.645 173.856 936.695 177.2C934.745 180.543 932.516 183.468 930.008 185.976C927.556 188.483 924.798 190.462 921.733 191.91C918.724 193.359 915.353 194.084 911.62 194.084C906.549 194.084 902.37 193.498 899.082 192.328C895.794 191.158 893.148 189.486 891.142 187.313C889.191 185.14 887.77 182.521 886.879 179.456C886.043 176.392 885.514 172.992 885.291 169.259C885.123 166.584 884.901 163.91 884.622 161.235C884.343 158.56 883.898 156.025 883.285 153.629C882.727 151.177 881.947 148.92 880.944 146.858C879.941 144.797 878.632 143.014 877.016 141.509C876.124 140.673 875.288 140.255 874.508 140.255C873.784 140.255 873.171 140.617 872.669 141.342C872.224 142.066 871.861 142.902 871.583 143.849C871.36 144.741 871.193 145.633 871.081 146.524C870.97 147.416 870.914 148.029 870.914 148.363C870.914 151.316 871.053 154.242 871.332 157.139C871.611 159.981 871.75 162.879 871.75 165.832C871.75 169.454 871.248 172.992 870.245 176.447C869.298 179.846 867.822 182.883 865.815 185.558C863.865 188.177 861.386 190.294 858.376 191.91C855.423 193.471 851.94 194.251 847.928 194.251Z" fill="white" fill-opacity="0.69"/>
</g>
<defs>
<filter id="filter0_f_1651_228" x="0.0926514" y="0.963867" width="1024.57" height="264.207" filterUnits="userSpaceOnUse" color-interpolation-filters="sRGB">
<feFlood flood-opacity="0" result="BackgroundImageFix"/>
<feBlend mode="normal" in="SourceGraphic" in2="BackgroundImageFix" result="shape"/>
<feGaussianBlur stdDeviation="35" result="effect1_foregroundBlur_1651_228"/>
</filter>
</defs>
</svg>
