<svg width="841" height="263" viewBox="0 0 841 263" fill="none" xmlns="http://www.w3.org/2000/svg">
<path d="M112.916 190.749C110.074 190.749 107.343 190.387 104.724 189.663C102.105 188.883 99.765 187.74 97.7033 186.236C95.6973 184.675 94.0813 182.753 92.8554 180.468C91.6852 178.128 91.1001 175.398 91.1001 172.277C91.1001 168.878 91.4066 165.423 92.0196 161.913C92.6882 158.402 93.4962 154.947 94.4435 151.548C95.4465 148.093 96.5053 144.778 97.6197 141.602C98.7342 138.37 99.765 135.389 100.712 132.658C101.715 129.872 102.523 127.392 103.136 125.219C103.805 122.99 104.139 121.179 104.139 119.786C104.139 117.39 103.638 115.663 102.635 114.604C101.687 113.489 100.406 112.932 98.7899 112.932C96.2824 112.932 93.8306 112.904 91.4345 112.849C89.0941 112.737 86.3637 112.681 83.2432 112.681C81.3486 112.681 79.6212 112.375 78.061 111.762C76.5565 111.093 75.2748 110.202 74.2161 109.087C73.1574 107.917 72.3494 106.552 71.7922 104.992C71.2349 103.376 70.9563 101.648 70.9563 99.8095C70.9563 92.8998 72.2937 87.5226 74.9684 83.6777C77.6988 79.8328 81.6272 76.991 86.7537 75.1521C91.8803 73.3133 98.1491 72.1988 105.56 71.8087C112.971 71.4187 121.413 71.2236 130.886 71.2236C137.183 71.2236 142.672 71.363 147.352 71.6416C152.089 71.8645 156.129 72.3102 159.472 72.9789C162.815 73.6476 165.574 74.567 167.747 75.7372C169.92 76.9074 171.62 78.4119 172.846 80.2508C174.127 82.0896 175.019 84.2907 175.52 86.8539C176.022 89.4172 176.273 92.4541 176.273 95.9646C176.273 98.3607 175.827 100.59 174.935 102.651C174.044 104.713 172.818 106.524 171.258 108.084C169.753 109.589 167.942 110.787 165.825 111.678C163.763 112.514 161.534 112.932 159.138 112.932C158.636 112.932 157.995 112.877 157.215 112.765C156.435 112.598 155.572 112.431 154.624 112.264C153.677 112.041 152.702 111.873 151.699 111.762C150.751 111.595 149.804 111.511 148.857 111.511C147.408 111.511 146.182 111.79 145.179 112.347C144.232 112.849 143.758 113.852 143.758 115.356C143.758 116.248 143.898 117.334 144.176 118.616C144.455 119.842 144.761 121.319 145.096 123.046C145.486 124.718 145.82 126.696 146.099 128.98C146.377 131.265 146.517 133.912 146.517 136.921C146.517 139.93 146.405 143.357 146.182 147.202C145.959 150.991 145.458 154.892 144.678 158.904C143.898 162.916 142.783 166.816 141.334 170.605C139.886 174.395 137.907 177.794 135.4 180.803C132.892 183.812 129.8 186.236 126.122 188.075C122.5 189.858 118.098 190.749 112.916 190.749ZM195.748 192.17C192.46 192.17 189.618 191.502 187.222 190.164C184.826 188.827 182.764 187.072 181.037 184.898C179.365 182.669 177.972 180.134 176.858 177.292C175.799 174.45 174.963 171.525 174.35 168.516C173.737 165.507 173.319 162.526 173.096 159.572C172.873 156.563 172.762 153.833 172.762 151.381C172.762 145.196 173.236 138.899 174.183 132.491C175.186 126.083 176.718 119.898 178.78 113.935C180.842 107.917 183.489 102.261 186.721 96.9676C189.953 91.6739 193.797 87.0489 198.255 83.0926C202.713 79.1363 207.84 76.0158 213.635 73.7312C219.43 71.4465 225.95 70.3042 233.194 70.3042C236.648 70.3042 240.103 70.6386 243.558 71.3072C247.013 71.9759 250.3 72.9789 253.421 74.3163C256.597 75.5979 259.55 77.2139 262.281 79.1642C265.067 81.1145 267.463 83.3991 269.469 86.0181C271.475 88.5813 273.063 91.4789 274.233 94.7108C275.404 97.887 275.989 101.398 275.989 105.242C275.989 112.821 273.955 118.672 269.887 122.795C265.875 126.919 260.08 128.98 252.501 128.98C251.164 128.98 249.827 128.869 248.489 128.646C247.152 128.367 245.843 128.228 244.561 128.228C243.948 128.228 243.335 128.312 242.722 128.479C242.165 128.646 241.886 129.148 241.886 129.983C241.886 130.652 242.109 131.209 242.555 131.655C243.001 132.045 243.53 132.38 244.143 132.658C244.812 132.937 245.453 133.16 246.065 133.327C246.734 133.438 247.264 133.55 247.654 133.661C251.554 134.608 255.176 136.141 258.52 138.258C261.919 140.32 264.872 142.828 267.38 145.781C269.887 148.734 271.865 152.05 273.314 155.727C274.763 159.405 275.487 163.334 275.487 167.513C275.487 170.856 274.874 173.977 273.648 176.874C272.478 179.716 270.806 182.196 268.633 184.313C266.516 186.375 264.008 187.991 261.111 189.161C258.269 190.331 255.176 190.916 251.833 190.916C248.657 190.916 246.065 190.387 244.059 189.328C242.109 188.27 240.521 186.877 239.295 185.149C238.069 183.366 237.15 181.332 236.537 179.047C235.924 176.707 235.422 174.283 235.032 171.776C234.642 169.212 234.252 166.621 233.862 164.002C233.528 161.383 232.998 158.931 232.274 156.647C231.605 154.306 230.658 152.189 229.432 150.294C228.206 148.4 226.535 146.895 224.417 145.781C223.86 145.502 223.331 145.363 222.829 145.363C221.826 145.363 220.962 145.809 220.238 146.7C219.514 147.536 218.901 148.623 218.399 149.96C217.898 151.297 217.48 152.802 217.145 154.474C216.867 156.09 216.616 157.706 216.393 159.322C216.226 160.882 216.114 162.331 216.059 163.668C216.003 164.95 215.975 165.925 215.975 166.593C215.975 169.491 215.529 172.444 214.638 175.453C213.802 178.462 212.52 181.221 210.793 183.728C209.065 186.18 206.948 188.214 204.44 189.83C201.933 191.39 199.035 192.17 195.748 192.17ZM229.683 110.843C232.692 110.843 234.865 110.09 236.203 108.586C237.54 107.026 238.209 105.02 238.209 102.568C238.209 101.62 238.069 100.645 237.791 99.6423C237.568 98.5836 237.206 97.6363 236.704 96.8005C236.203 95.9646 235.617 95.2681 234.949 94.7108C234.28 94.1536 233.528 93.875 232.692 93.875C231.299 93.875 230.073 94.2093 229.014 94.878C228.011 95.491 227.175 96.2989 226.507 97.302C225.838 98.305 225.337 99.4194 225.002 100.645C224.724 101.816 224.584 102.958 224.584 104.072C224.584 104.63 224.64 105.298 224.751 106.078C224.863 106.858 225.086 107.611 225.42 108.335C225.81 109.059 226.34 109.672 227.008 110.174C227.677 110.62 228.569 110.843 229.683 110.843ZM366.761 192.505C363.028 192.505 359.545 192.031 356.313 191.084C353.081 190.136 350.267 188.855 347.871 187.239C345.475 185.567 343.581 183.617 342.187 181.388C340.85 179.103 340.181 176.679 340.181 174.116C340.181 172.611 340.376 171.246 340.767 170.02C341.212 168.739 341.686 167.541 342.187 166.426C342.745 165.312 343.218 164.197 343.608 163.083C344.054 161.913 344.277 160.687 344.277 159.405C344.277 158.402 344.138 157.26 343.859 155.978C343.636 154.697 343.246 153.498 342.689 152.384C342.187 151.214 341.491 150.239 340.599 149.459C339.708 148.678 338.621 148.288 337.34 148.288C335.835 148.288 334.526 148.567 333.411 149.124C332.352 149.681 331.461 150.434 330.736 151.381C330.012 152.273 329.483 153.331 329.148 154.557C328.814 155.783 328.647 157.093 328.647 158.486C328.647 159.879 328.981 161.244 329.65 162.581C330.374 163.863 331.154 165.2 331.99 166.593C332.826 167.931 333.578 169.38 334.247 170.94C334.971 172.5 335.334 174.227 335.334 176.122C335.334 177.961 334.47 179.855 332.742 181.806C331.071 183.7 328.786 185.428 325.889 186.988C322.991 188.492 319.62 189.746 315.775 190.749C311.986 191.697 307.974 192.17 303.739 192.17C295.046 192.17 288.666 189.83 284.598 185.149C280.53 180.468 278.496 173.113 278.496 163.083C278.496 155.727 279.499 148.372 281.505 141.017C283.567 133.605 286.353 126.501 289.864 119.703C293.374 112.849 297.526 106.496 302.318 100.645C307.11 94.7387 312.264 89.6122 317.781 85.2658C323.297 80.8637 329.037 77.4367 334.999 74.9849C341.017 72.4774 347.008 71.2236 352.97 71.2236C356.648 71.2236 360.409 71.7251 364.254 72.7282C368.099 73.6755 371.776 75.0685 375.287 76.9074C384.593 81.811 391.502 89.1943 396.016 99.0572C400.529 108.864 402.786 121.43 402.786 136.754C402.786 145.781 402.006 153.777 400.446 160.742C398.886 167.652 396.573 173.475 393.508 178.212C390.444 182.892 386.682 186.459 382.224 188.91C377.767 191.306 372.612 192.505 366.761 192.505ZM348.791 119.368C354.642 119.368 357.567 115.691 357.567 108.335C357.567 105.159 357.038 102.679 355.979 100.896C354.92 99.113 353.499 98.2214 351.716 98.2214C350.49 98.2214 349.209 98.6393 347.871 99.4751C346.59 100.311 345.392 101.398 344.277 102.735C343.218 104.072 342.355 105.577 341.686 107.248C341.017 108.864 340.683 110.48 340.683 112.096C340.683 114.381 341.407 116.164 342.856 117.446C344.305 118.727 346.283 119.368 348.791 119.368ZM429.282 191.084C422.15 191.084 416.884 188.994 413.485 184.815C410.142 180.58 408.47 174.005 408.47 165.089C408.47 161.913 408.637 158.514 408.971 154.892C409.361 151.214 409.835 147.453 410.392 143.608C411.005 139.763 411.674 135.89 412.398 131.989C413.123 128.089 413.819 124.355 414.488 120.789C415.157 117.223 415.77 113.907 416.327 110.843C416.94 107.722 417.413 104.992 417.748 102.651C420.701 81.4767 429.589 70.8893 444.411 70.8893C451.209 70.8893 456.447 73.0068 460.125 77.2417C463.803 81.4767 465.642 87.5783 465.642 95.5467C465.642 98.6672 465.363 101.983 464.806 105.493C464.304 109.004 463.636 112.626 462.8 116.359C462.02 120.093 461.156 123.882 460.209 127.727C459.261 131.572 458.37 135.416 457.534 139.261C456.754 143.106 456.085 146.895 455.528 150.629C455.026 154.306 454.776 157.873 454.776 161.328C454.776 170.912 452.575 178.267 448.172 183.394C443.77 188.52 437.474 191.084 429.282 191.084ZM520.139 191C512.059 191 504.843 189.746 498.49 187.239C492.194 184.675 486.872 181.081 482.526 176.456C478.179 171.831 474.864 166.287 472.579 159.823C470.294 153.303 469.152 146.087 469.152 138.175C469.152 134.218 469.57 129.844 470.406 125.052C471.242 120.204 472.495 115.3 474.167 110.341C475.839 105.382 477.901 100.562 480.352 95.881C482.86 91.1446 485.758 86.9654 489.045 83.3434C492.333 79.6657 496.011 76.7402 500.078 74.567C504.146 72.3381 508.604 71.2236 513.452 71.2236C516.628 71.2236 519.498 71.8087 522.061 72.9789C524.624 74.1491 526.797 75.7372 528.581 77.7432C530.419 79.7492 531.812 82.1175 532.76 84.8479C533.707 87.5226 534.181 90.3923 534.181 93.4571C534.181 96.9676 533.623 100.339 532.509 103.571C531.45 106.747 530.252 109.923 528.915 113.099C527.633 116.276 526.435 119.48 525.321 122.712C524.262 125.944 523.733 129.343 523.733 132.909C523.733 134.692 523.9 136.419 524.234 138.091C524.569 139.707 525.126 141.156 525.906 142.437C526.742 143.663 527.828 144.666 529.166 145.447C530.503 146.171 532.203 146.533 534.264 146.533C535.992 146.533 537.58 146.282 539.029 145.781C540.477 145.224 541.87 144.639 543.208 144.026C544.601 143.413 545.966 142.855 547.303 142.354C548.641 141.797 550.062 141.518 551.566 141.518C553.907 141.518 555.996 142.103 557.835 143.273C559.674 144.444 561.234 145.948 562.516 147.787C563.853 149.57 564.856 151.576 565.525 153.805C566.194 155.978 566.528 158.096 566.528 160.157C566.528 163.835 565.776 167.151 564.271 170.104C562.822 173.057 560.872 175.676 558.42 177.961C555.968 180.245 553.154 182.224 549.978 183.895C546.802 185.511 543.486 186.849 540.032 187.907C536.577 188.966 533.122 189.746 529.667 190.248C526.268 190.749 523.092 191 520.139 191ZM608.153 190.164C605.422 190.164 602.469 189.969 599.293 189.579C596.117 189.189 592.941 188.548 589.764 187.657C586.644 186.765 583.607 185.623 580.654 184.23C577.756 182.837 575.193 181.165 572.964 179.215C570.735 177.264 568.952 175.008 567.614 172.444C566.277 169.825 565.608 166.9 565.608 163.668C565.608 160.547 565.887 157.928 566.444 155.811C567.001 153.638 567.754 151.799 568.701 150.294C569.704 148.734 570.874 147.369 572.212 146.199C573.549 145.029 574.998 143.858 576.558 142.688C578.174 141.462 579.873 140.181 581.657 138.843C583.44 137.45 585.251 135.751 587.09 133.745C587.703 133.076 588.065 132.519 588.176 132.073C588.288 131.627 588.204 131.209 587.925 130.819C587.535 130.262 586.783 129.816 585.669 129.482C584.554 129.092 583.273 128.674 581.824 128.228C580.431 127.782 578.954 127.253 577.394 126.64C575.889 125.971 574.496 125.108 573.215 124.049C571.989 122.934 570.958 121.541 570.122 119.87C569.286 118.198 568.868 116.136 568.868 113.684C568.868 108.056 569.676 103.097 571.292 98.8065C572.908 94.5158 575.165 90.8102 578.062 87.6898C581.016 84.5136 584.498 81.8667 588.511 79.7492C592.578 77.5761 597.064 75.8486 601.968 74.567C606.871 73.2854 612.081 72.3938 617.598 71.8923C623.17 71.3351 628.91 71.0565 634.816 71.0565C636.822 71.0565 638.94 71.1401 641.169 71.3072C643.453 71.4744 645.71 71.8087 647.939 72.3102C650.168 72.756 652.285 73.3968 654.291 74.2327C656.353 75.0685 658.136 76.1551 659.641 77.4925C661.201 78.8298 662.427 80.4458 663.319 82.3404C664.266 84.2349 664.739 86.4917 664.739 89.1107C664.739 91.6739 664.294 94.0143 663.402 96.1318C662.511 98.2492 661.257 100.06 659.641 101.565C658.081 103.014 656.186 104.156 653.957 104.992C651.728 105.772 649.276 106.162 646.602 106.162C644.094 106.162 641.587 105.967 639.079 105.577C636.627 105.131 634.148 104.657 631.64 104.156C629.133 103.654 626.625 103.209 624.117 102.819C621.61 102.373 619.102 102.15 616.595 102.15C615.87 102.15 614.951 102.178 613.837 102.233C612.778 102.289 611.719 102.428 610.66 102.651C609.657 102.874 608.794 103.209 608.069 103.654C607.345 104.1 606.983 104.713 606.983 105.493C606.983 105.995 608.014 106.413 610.075 106.747C612.193 107.026 614.812 107.36 617.932 107.75C621.053 108.084 624.424 108.53 628.046 109.087C631.724 109.645 635.123 110.453 638.243 111.511C641.364 112.514 643.955 113.852 646.017 115.523C648.134 117.139 649.193 119.229 649.193 121.792C649.193 123.854 648.608 125.47 647.437 126.64C646.323 127.755 644.819 128.702 642.924 129.482C641.029 130.206 638.856 130.875 636.404 131.488C634.008 132.045 631.529 132.797 628.965 133.745C626.012 134.803 623.114 136.057 620.273 137.506C617.431 138.955 614.951 140.431 612.834 141.936C610.716 143.441 609.128 144.889 608.069 146.282C607.066 147.675 606.871 148.901 607.484 149.96C608.209 151.186 609.49 151.799 611.329 151.799C612.778 151.799 614.477 151.465 616.428 150.796C618.434 150.127 620.579 149.291 622.864 148.288C625.148 147.285 627.517 146.199 629.968 145.029C632.42 143.858 634.872 142.772 637.324 141.769C639.776 140.766 642.144 139.93 644.428 139.261C646.713 138.593 648.831 138.258 650.781 138.258C654.737 138.258 657.663 139.317 659.557 141.434C661.508 143.552 662.483 146.533 662.483 150.378C662.483 154.836 661.675 158.931 660.059 162.665C658.443 166.398 656.242 169.742 653.456 172.695C650.725 175.593 647.521 178.156 643.843 180.385C640.221 182.558 636.404 184.369 632.392 185.818C628.38 187.267 624.285 188.353 620.105 189.078C615.926 189.802 611.942 190.164 608.153 190.164ZM690.567 192.17C687.279 192.17 684.438 191.502 682.041 190.164C679.645 188.827 677.584 187.072 675.856 184.898C674.184 182.669 672.791 180.134 671.677 177.292C670.618 174.45 669.782 171.525 669.169 168.516C668.556 165.507 668.139 162.526 667.916 159.572C667.693 156.563 667.581 153.833 667.581 151.381C667.581 145.196 668.055 138.899 669.002 132.491C670.005 126.083 671.538 119.898 673.599 113.935C675.661 107.917 678.308 102.261 681.54 96.9676C684.772 91.6739 688.617 87.0489 693.075 83.0926C697.532 79.1363 702.659 76.0158 708.454 73.7312C714.249 71.4465 720.769 70.3042 728.013 70.3042C731.468 70.3042 734.922 70.6386 738.377 71.3072C741.832 71.9759 745.12 72.9789 748.24 74.3163C751.416 75.5979 754.37 77.2139 757.1 79.1642C759.886 81.1145 762.282 83.3991 764.288 86.0181C766.294 88.5813 767.883 91.4789 769.053 94.7108C770.223 97.887 770.808 101.398 770.808 105.242C770.808 112.821 768.774 118.672 764.706 122.795C760.694 126.919 754.899 128.98 747.321 128.98C745.983 128.98 744.646 128.869 743.309 128.646C741.971 128.367 740.662 128.228 739.38 128.228C738.767 128.228 738.154 128.312 737.541 128.479C736.984 128.646 736.706 129.148 736.706 129.983C736.706 130.652 736.928 131.209 737.374 131.655C737.82 132.045 738.349 132.38 738.962 132.658C739.631 132.937 740.272 133.16 740.885 133.327C741.553 133.438 742.083 133.55 742.473 133.661C746.374 134.608 749.995 136.141 753.339 138.258C756.738 140.32 759.691 142.828 762.199 145.781C764.706 148.734 766.684 152.05 768.133 155.727C769.582 159.405 770.306 163.334 770.306 167.513C770.306 170.856 769.694 173.977 768.468 176.874C767.297 179.716 765.626 182.196 763.453 184.313C761.335 186.375 758.828 187.991 755.93 189.161C753.088 190.331 749.995 190.916 746.652 190.916C743.476 190.916 740.885 190.387 738.879 189.328C736.928 188.27 735.34 186.877 734.114 185.149C732.889 183.366 731.969 181.332 731.356 179.047C730.743 176.707 730.242 174.283 729.852 171.776C729.462 169.212 729.072 166.621 728.681 164.002C728.347 161.383 727.818 158.931 727.093 156.647C726.425 154.306 725.477 152.189 724.252 150.294C723.026 148.4 721.354 146.895 719.236 145.781C718.679 145.502 718.15 145.363 717.648 145.363C716.645 145.363 715.782 145.809 715.057 146.7C714.333 147.536 713.72 148.623 713.218 149.96C712.717 151.297 712.299 152.802 711.965 154.474C711.686 156.09 711.435 157.706 711.212 159.322C711.045 160.882 710.934 162.331 710.878 163.668C710.822 164.95 710.794 165.925 710.794 166.593C710.794 169.491 710.349 172.444 709.457 175.453C708.621 178.462 707.34 181.221 705.612 183.728C703.885 186.18 701.767 188.214 699.26 189.83C696.752 191.39 693.855 192.17 690.567 192.17ZM724.502 110.843C727.511 110.843 729.684 110.09 731.022 108.586C732.359 107.026 733.028 105.02 733.028 102.568C733.028 101.62 732.889 100.645 732.61 99.6423C732.387 98.5836 732.025 97.6363 731.523 96.8005C731.022 95.9646 730.437 95.2681 729.768 94.7108C729.099 94.1536 728.347 93.875 727.511 93.875C726.118 93.875 724.892 94.2093 723.834 94.878C722.831 95.491 721.995 96.2989 721.326 97.302C720.657 98.305 720.156 99.4194 719.822 100.645C719.543 101.816 719.404 102.958 719.404 104.072C719.404 104.63 719.459 105.298 719.571 106.078C719.682 106.858 719.905 107.611 720.239 108.335C720.63 109.059 721.159 109.672 721.828 110.174C722.496 110.62 723.388 110.843 724.502 110.843Z" fill="#E8D5FF"/>
<g filter="url(#filter0_f_1651_238)">
<path d="M112.916 190.749C110.074 190.749 107.343 190.387 104.724 189.663C102.105 188.883 99.765 187.74 97.7033 186.236C95.6973 184.675 94.0813 182.753 92.8554 180.468C91.6852 178.128 91.1001 175.398 91.1001 172.277C91.1001 168.878 91.4066 165.423 92.0196 161.913C92.6882 158.402 93.4962 154.947 94.4435 151.548C95.4465 148.093 96.5053 144.778 97.6197 141.602C98.7342 138.37 99.765 135.389 100.712 132.658C101.715 129.872 102.523 127.392 103.136 125.219C103.805 122.99 104.139 121.179 104.139 119.786C104.139 117.39 103.638 115.663 102.635 114.604C101.687 113.489 100.406 112.932 98.7899 112.932C96.2824 112.932 93.8306 112.904 91.4345 112.849C89.0941 112.737 86.3637 112.681 83.2432 112.681C81.3486 112.681 79.6212 112.375 78.061 111.762C76.5565 111.093 75.2748 110.202 74.2161 109.087C73.1574 107.917 72.3494 106.552 71.7922 104.992C71.2349 103.376 70.9563 101.648 70.9563 99.8095C70.9563 92.8998 72.2937 87.5226 74.9684 83.6777C77.6988 79.8328 81.6272 76.991 86.7537 75.1521C91.8803 73.3133 98.1491 72.1988 105.56 71.8087C112.971 71.4187 121.413 71.2236 130.886 71.2236C137.183 71.2236 142.672 71.363 147.352 71.6416C152.089 71.8645 156.129 72.3102 159.472 72.9789C162.815 73.6476 165.574 74.567 167.747 75.7372C169.92 76.9074 171.62 78.4119 172.846 80.2508C174.127 82.0896 175.019 84.2907 175.52 86.8539C176.022 89.4172 176.273 92.4541 176.273 95.9646C176.273 98.3607 175.827 100.59 174.935 102.651C174.044 104.713 172.818 106.524 171.258 108.084C169.753 109.589 167.942 110.787 165.825 111.678C163.763 112.514 161.534 112.932 159.138 112.932C158.636 112.932 157.995 112.877 157.215 112.765C156.435 112.598 155.572 112.431 154.624 112.264C153.677 112.041 152.702 111.873 151.699 111.762C150.751 111.595 149.804 111.511 148.857 111.511C147.408 111.511 146.182 111.79 145.179 112.347C144.232 112.849 143.758 113.852 143.758 115.356C143.758 116.248 143.898 117.334 144.176 118.616C144.455 119.842 144.761 121.319 145.096 123.046C145.486 124.718 145.82 126.696 146.099 128.98C146.377 131.265 146.517 133.912 146.517 136.921C146.517 139.93 146.405 143.357 146.182 147.202C145.959 150.991 145.458 154.892 144.678 158.904C143.898 162.916 142.783 166.816 141.334 170.605C139.886 174.395 137.907 177.794 135.4 180.803C132.892 183.812 129.8 186.236 126.122 188.075C122.5 189.858 118.098 190.749 112.916 190.749ZM195.748 192.17C192.46 192.17 189.618 191.502 187.222 190.164C184.826 188.827 182.764 187.072 181.037 184.898C179.365 182.669 177.972 180.134 176.858 177.292C175.799 174.45 174.963 171.525 174.35 168.516C173.737 165.507 173.319 162.526 173.096 159.572C172.873 156.563 172.762 153.833 172.762 151.381C172.762 145.196 173.236 138.899 174.183 132.491C175.186 126.083 176.718 119.898 178.78 113.935C180.842 107.917 183.489 102.261 186.721 96.9676C189.953 91.6739 193.797 87.0489 198.255 83.0926C202.713 79.1363 207.84 76.0158 213.635 73.7312C219.43 71.4465 225.95 70.3042 233.194 70.3042C236.648 70.3042 240.103 70.6386 243.558 71.3072C247.013 71.9759 250.3 72.9789 253.421 74.3163C256.597 75.5979 259.55 77.2139 262.281 79.1642C265.067 81.1145 267.463 83.3991 269.469 86.0181C271.475 88.5813 273.063 91.4789 274.233 94.7108C275.404 97.887 275.989 101.398 275.989 105.242C275.989 112.821 273.955 118.672 269.887 122.795C265.875 126.919 260.08 128.98 252.501 128.98C251.164 128.98 249.827 128.869 248.489 128.646C247.152 128.367 245.843 128.228 244.561 128.228C243.948 128.228 243.335 128.312 242.722 128.479C242.165 128.646 241.886 129.148 241.886 129.983C241.886 130.652 242.109 131.209 242.555 131.655C243.001 132.045 243.53 132.38 244.143 132.658C244.812 132.937 245.453 133.16 246.065 133.327C246.734 133.438 247.264 133.55 247.654 133.661C251.554 134.608 255.176 136.141 258.52 138.258C261.919 140.32 264.872 142.828 267.38 145.781C269.887 148.734 271.865 152.05 273.314 155.727C274.763 159.405 275.487 163.334 275.487 167.513C275.487 170.856 274.874 173.977 273.648 176.874C272.478 179.716 270.806 182.196 268.633 184.313C266.516 186.375 264.008 187.991 261.111 189.161C258.269 190.331 255.176 190.916 251.833 190.916C248.657 190.916 246.065 190.387 244.059 189.328C242.109 188.27 240.521 186.877 239.295 185.149C238.069 183.366 237.15 181.332 236.537 179.047C235.924 176.707 235.422 174.283 235.032 171.776C234.642 169.212 234.252 166.621 233.862 164.002C233.528 161.383 232.998 158.931 232.274 156.647C231.605 154.306 230.658 152.189 229.432 150.294C228.206 148.4 226.535 146.895 224.417 145.781C223.86 145.502 223.331 145.363 222.829 145.363C221.826 145.363 220.962 145.809 220.238 146.7C219.514 147.536 218.901 148.623 218.399 149.96C217.898 151.297 217.48 152.802 217.145 154.474C216.867 156.09 216.616 157.706 216.393 159.322C216.226 160.882 216.114 162.331 216.059 163.668C216.003 164.95 215.975 165.925 215.975 166.593C215.975 169.491 215.529 172.444 214.638 175.453C213.802 178.462 212.52 181.221 210.793 183.728C209.065 186.18 206.948 188.214 204.44 189.83C201.933 191.39 199.035 192.17 195.748 192.17ZM229.683 110.843C232.692 110.843 234.865 110.09 236.203 108.586C237.54 107.026 238.209 105.02 238.209 102.568C238.209 101.62 238.069 100.645 237.791 99.6423C237.568 98.5836 237.206 97.6363 236.704 96.8005C236.203 95.9646 235.617 95.2681 234.949 94.7108C234.28 94.1536 233.528 93.875 232.692 93.875C231.299 93.875 230.073 94.2093 229.014 94.878C228.011 95.491 227.175 96.2989 226.507 97.302C225.838 98.305 225.337 99.4194 225.002 100.645C224.724 101.816 224.584 102.958 224.584 104.072C224.584 104.63 224.64 105.298 224.751 106.078C224.863 106.858 225.086 107.611 225.42 108.335C225.81 109.059 226.34 109.672 227.008 110.174C227.677 110.62 228.569 110.843 229.683 110.843ZM366.761 192.505C363.028 192.505 359.545 192.031 356.313 191.084C353.081 190.136 350.267 188.855 347.871 187.239C345.475 185.567 343.581 183.617 342.187 181.388C340.85 179.103 340.181 176.679 340.181 174.116C340.181 172.611 340.376 171.246 340.767 170.02C341.212 168.739 341.686 167.541 342.187 166.426C342.745 165.312 343.218 164.197 343.608 163.083C344.054 161.913 344.277 160.687 344.277 159.405C344.277 158.402 344.138 157.26 343.859 155.978C343.636 154.697 343.246 153.498 342.689 152.384C342.187 151.214 341.491 150.239 340.599 149.459C339.708 148.678 338.621 148.288 337.34 148.288C335.835 148.288 334.526 148.567 333.411 149.124C332.352 149.681 331.461 150.434 330.736 151.381C330.012 152.273 329.483 153.331 329.148 154.557C328.814 155.783 328.647 157.093 328.647 158.486C328.647 159.879 328.981 161.244 329.65 162.581C330.374 163.863 331.154 165.2 331.99 166.593C332.826 167.931 333.578 169.38 334.247 170.94C334.971 172.5 335.334 174.227 335.334 176.122C335.334 177.961 334.47 179.855 332.742 181.806C331.071 183.7 328.786 185.428 325.889 186.988C322.991 188.492 319.62 189.746 315.775 190.749C311.986 191.697 307.974 192.17 303.739 192.17C295.046 192.17 288.666 189.83 284.598 185.149C280.53 180.468 278.496 173.113 278.496 163.083C278.496 155.727 279.499 148.372 281.505 141.017C283.567 133.605 286.353 126.501 289.864 119.703C293.374 112.849 297.526 106.496 302.318 100.645C307.11 94.7387 312.264 89.6122 317.781 85.2658C323.297 80.8637 329.037 77.4367 334.999 74.9849C341.017 72.4774 347.008 71.2236 352.97 71.2236C356.648 71.2236 360.409 71.7251 364.254 72.7282C368.099 73.6755 371.776 75.0685 375.287 76.9074C384.593 81.811 391.502 89.1943 396.016 99.0572C400.529 108.864 402.786 121.43 402.786 136.754C402.786 145.781 402.006 153.777 400.446 160.742C398.886 167.652 396.573 173.475 393.508 178.212C390.444 182.892 386.682 186.459 382.224 188.91C377.767 191.306 372.612 192.505 366.761 192.505ZM348.791 119.368C354.642 119.368 357.567 115.691 357.567 108.335C357.567 105.159 357.038 102.679 355.979 100.896C354.92 99.113 353.499 98.2214 351.716 98.2214C350.49 98.2214 349.209 98.6393 347.871 99.4751C346.59 100.311 345.392 101.398 344.277 102.735C343.218 104.072 342.355 105.577 341.686 107.248C341.017 108.864 340.683 110.48 340.683 112.096C340.683 114.381 341.407 116.164 342.856 117.446C344.305 118.727 346.283 119.368 348.791 119.368ZM429.282 191.084C422.15 191.084 416.884 188.994 413.485 184.815C410.142 180.58 408.47 174.005 408.47 165.089C408.47 161.913 408.637 158.514 408.971 154.892C409.361 151.214 409.835 147.453 410.392 143.608C411.005 139.763 411.674 135.89 412.398 131.989C413.123 128.089 413.819 124.355 414.488 120.789C415.157 117.223 415.77 113.907 416.327 110.843C416.94 107.722 417.413 104.992 417.748 102.651C420.701 81.4767 429.589 70.8893 444.411 70.8893C451.209 70.8893 456.447 73.0068 460.125 77.2417C463.803 81.4767 465.642 87.5783 465.642 95.5467C465.642 98.6672 465.363 101.983 464.806 105.493C464.304 109.004 463.636 112.626 462.8 116.359C462.02 120.093 461.156 123.882 460.209 127.727C459.261 131.572 458.37 135.416 457.534 139.261C456.754 143.106 456.085 146.895 455.528 150.629C455.026 154.306 454.776 157.873 454.776 161.328C454.776 170.912 452.575 178.267 448.172 183.394C443.77 188.52 437.474 191.084 429.282 191.084ZM520.139 191C512.059 191 504.843 189.746 498.49 187.239C492.194 184.675 486.872 181.081 482.526 176.456C478.179 171.831 474.864 166.287 472.579 159.823C470.294 153.303 469.152 146.087 469.152 138.175C469.152 134.218 469.57 129.844 470.406 125.052C471.242 120.204 472.495 115.3 474.167 110.341C475.839 105.382 477.901 100.562 480.352 95.881C482.86 91.1446 485.758 86.9654 489.045 83.3434C492.333 79.6657 496.011 76.7402 500.078 74.567C504.146 72.3381 508.604 71.2236 513.452 71.2236C516.628 71.2236 519.498 71.8087 522.061 72.9789C524.624 74.1491 526.797 75.7372 528.581 77.7432C530.419 79.7492 531.812 82.1175 532.76 84.8479C533.707 87.5226 534.181 90.3923 534.181 93.4571C534.181 96.9676 533.623 100.339 532.509 103.571C531.45 106.747 530.252 109.923 528.915 113.099C527.633 116.276 526.435 119.48 525.321 122.712C524.262 125.944 523.733 129.343 523.733 132.909C523.733 134.692 523.9 136.419 524.234 138.091C524.569 139.707 525.126 141.156 525.906 142.437C526.742 143.663 527.828 144.666 529.166 145.447C530.503 146.171 532.203 146.533 534.264 146.533C535.992 146.533 537.58 146.282 539.029 145.781C540.477 145.224 541.87 144.639 543.208 144.026C544.601 143.413 545.966 142.855 547.303 142.354C548.641 141.797 550.062 141.518 551.566 141.518C553.907 141.518 555.996 142.103 557.835 143.273C559.674 144.444 561.234 145.948 562.516 147.787C563.853 149.57 564.856 151.576 565.525 153.805C566.194 155.978 566.528 158.096 566.528 160.157C566.528 163.835 565.776 167.151 564.271 170.104C562.822 173.057 560.872 175.676 558.42 177.961C555.968 180.245 553.154 182.224 549.978 183.895C546.802 185.511 543.486 186.849 540.032 187.907C536.577 188.966 533.122 189.746 529.667 190.248C526.268 190.749 523.092 191 520.139 191ZM608.153 190.164C605.422 190.164 602.469 189.969 599.293 189.579C596.117 189.189 592.941 188.548 589.764 187.657C586.644 186.765 583.607 185.623 580.654 184.23C577.756 182.837 575.193 181.165 572.964 179.215C570.735 177.264 568.952 175.008 567.614 172.444C566.277 169.825 565.608 166.9 565.608 163.668C565.608 160.547 565.887 157.928 566.444 155.811C567.001 153.638 567.754 151.799 568.701 150.294C569.704 148.734 570.874 147.369 572.212 146.199C573.549 145.029 574.998 143.858 576.558 142.688C578.174 141.462 579.873 140.181 581.657 138.843C583.44 137.45 585.251 135.751 587.09 133.745C587.703 133.076 588.065 132.519 588.176 132.073C588.288 131.627 588.204 131.209 587.925 130.819C587.535 130.262 586.783 129.816 585.669 129.482C584.554 129.092 583.273 128.674 581.824 128.228C580.431 127.782 578.954 127.253 577.394 126.64C575.889 125.971 574.496 125.108 573.215 124.049C571.989 122.934 570.958 121.541 570.122 119.87C569.286 118.198 568.868 116.136 568.868 113.684C568.868 108.056 569.676 103.097 571.292 98.8065C572.908 94.5158 575.165 90.8102 578.062 87.6898C581.016 84.5136 584.498 81.8667 588.511 79.7492C592.578 77.5761 597.064 75.8486 601.968 74.567C606.871 73.2854 612.081 72.3938 617.598 71.8923C623.17 71.3351 628.91 71.0565 634.816 71.0565C636.822 71.0565 638.94 71.1401 641.169 71.3072C643.453 71.4744 645.71 71.8087 647.939 72.3102C650.168 72.756 652.285 73.3968 654.291 74.2327C656.353 75.0685 658.136 76.1551 659.641 77.4925C661.201 78.8298 662.427 80.4458 663.319 82.3404C664.266 84.2349 664.739 86.4917 664.739 89.1107C664.739 91.6739 664.294 94.0143 663.402 96.1318C662.511 98.2492 661.257 100.06 659.641 101.565C658.081 103.014 656.186 104.156 653.957 104.992C651.728 105.772 649.276 106.162 646.602 106.162C644.094 106.162 641.587 105.967 639.079 105.577C636.627 105.131 634.148 104.657 631.64 104.156C629.133 103.654 626.625 103.209 624.117 102.819C621.61 102.373 619.102 102.15 616.595 102.15C615.87 102.15 614.951 102.178 613.837 102.233C612.778 102.289 611.719 102.428 610.66 102.651C609.657 102.874 608.794 103.209 608.069 103.654C607.345 104.1 606.983 104.713 606.983 105.493C606.983 105.995 608.014 106.413 610.075 106.747C612.193 107.026 614.812 107.36 617.932 107.75C621.053 108.084 624.424 108.53 628.046 109.087C631.724 109.645 635.123 110.453 638.243 111.511C641.364 112.514 643.955 113.852 646.017 115.523C648.134 117.139 649.193 119.229 649.193 121.792C649.193 123.854 648.608 125.47 647.437 126.64C646.323 127.755 644.819 128.702 642.924 129.482C641.029 130.206 638.856 130.875 636.404 131.488C634.008 132.045 631.529 132.797 628.965 133.745C626.012 134.803 623.114 136.057 620.273 137.506C617.431 138.955 614.951 140.431 612.834 141.936C610.716 143.441 609.128 144.889 608.069 146.282C607.066 147.675 606.871 148.901 607.484 149.96C608.209 151.186 609.49 151.799 611.329 151.799C612.778 151.799 614.477 151.465 616.428 150.796C618.434 150.127 620.579 149.291 622.864 148.288C625.148 147.285 627.517 146.199 629.968 145.029C632.42 143.858 634.872 142.772 637.324 141.769C639.776 140.766 642.144 139.93 644.428 139.261C646.713 138.593 648.831 138.258 650.781 138.258C654.737 138.258 657.663 139.317 659.557 141.434C661.508 143.552 662.483 146.533 662.483 150.378C662.483 154.836 661.675 158.931 660.059 162.665C658.443 166.398 656.242 169.742 653.456 172.695C650.725 175.593 647.521 178.156 643.843 180.385C640.221 182.558 636.404 184.369 632.392 185.818C628.38 187.267 624.285 188.353 620.105 189.078C615.926 189.802 611.942 190.164 608.153 190.164ZM690.567 192.17C687.279 192.17 684.438 191.502 682.041 190.164C679.645 188.827 677.584 187.072 675.856 184.898C674.184 182.669 672.791 180.134 671.677 177.292C670.618 174.45 669.782 171.525 669.169 168.516C668.556 165.507 668.139 162.526 667.916 159.572C667.693 156.563 667.581 153.833 667.581 151.381C667.581 145.196 668.055 138.899 669.002 132.491C670.005 126.083 671.538 119.898 673.599 113.935C675.661 107.917 678.308 102.261 681.54 96.9676C684.772 91.6739 688.617 87.0489 693.075 83.0926C697.532 79.1363 702.659 76.0158 708.454 73.7312C714.249 71.4465 720.769 70.3042 728.013 70.3042C731.468 70.3042 734.922 70.6386 738.377 71.3072C741.832 71.9759 745.12 72.9789 748.24 74.3163C751.416 75.5979 754.37 77.2139 757.1 79.1642C759.886 81.1145 762.282 83.3991 764.288 86.0181C766.294 88.5813 767.883 91.4789 769.053 94.7108C770.223 97.887 770.808 101.398 770.808 105.242C770.808 112.821 768.774 118.672 764.706 122.795C760.694 126.919 754.899 128.98 747.321 128.98C745.983 128.98 744.646 128.869 743.309 128.646C741.971 128.367 740.662 128.228 739.38 128.228C738.767 128.228 738.154 128.312 737.541 128.479C736.984 128.646 736.706 129.148 736.706 129.983C736.706 130.652 736.928 131.209 737.374 131.655C737.82 132.045 738.349 132.38 738.962 132.658C739.631 132.937 740.272 133.16 740.885 133.327C741.553 133.438 742.083 133.55 742.473 133.661C746.374 134.608 749.995 136.141 753.339 138.258C756.738 140.32 759.691 142.828 762.199 145.781C764.706 148.734 766.684 152.05 768.133 155.727C769.582 159.405 770.306 163.334 770.306 167.513C770.306 170.856 769.694 173.977 768.468 176.874C767.297 179.716 765.626 182.196 763.453 184.313C761.335 186.375 758.828 187.991 755.93 189.161C753.088 190.331 749.995 190.916 746.652 190.916C743.476 190.916 740.885 190.387 738.879 189.328C736.928 188.27 735.34 186.877 734.114 185.149C732.889 183.366 731.969 181.332 731.356 179.047C730.743 176.707 730.242 174.283 729.852 171.776C729.462 169.212 729.072 166.621 728.681 164.002C728.347 161.383 727.818 158.931 727.093 156.647C726.425 154.306 725.477 152.189 724.252 150.294C723.026 148.4 721.354 146.895 719.236 145.781C718.679 145.502 718.15 145.363 717.648 145.363C716.645 145.363 715.782 145.809 715.057 146.7C714.333 147.536 713.72 148.623 713.218 149.96C712.717 151.297 712.299 152.802 711.965 154.474C711.686 156.09 711.435 157.706 711.212 159.322C711.045 160.882 710.934 162.331 710.878 163.668C710.822 164.95 710.794 165.925 710.794 166.593C710.794 169.491 710.349 172.444 709.457 175.453C708.621 178.462 707.34 181.221 705.612 183.728C703.885 186.18 701.767 188.214 699.26 189.83C696.752 191.39 693.855 192.17 690.567 192.17ZM724.502 110.843C727.511 110.843 729.684 110.09 731.022 108.586C732.359 107.026 733.028 105.02 733.028 102.568C733.028 101.62 732.889 100.645 732.61 99.6423C732.387 98.5836 732.025 97.6363 731.523 96.8005C731.022 95.9646 730.437 95.2681 729.768 94.7108C729.099 94.1536 728.347 93.875 727.511 93.875C726.118 93.875 724.892 94.2093 723.834 94.878C722.831 95.491 721.995 96.2989 721.326 97.302C720.657 98.305 720.156 99.4194 719.822 100.645C719.543 101.816 719.404 102.958 719.404 104.072C719.404 104.63 719.459 105.298 719.571 106.078C719.682 106.858 719.905 107.611 720.239 108.335C720.63 109.059 721.159 109.672 721.828 110.174C722.496 110.62 723.388 110.843 724.502 110.843Z" fill="white" fill-opacity="0.69"/>
</g>
<defs>
<filter id="filter0_f_1651_238" x="0.956299" y="0.304688" width="839.852" height="262.2" filterUnits="userSpaceOnUse" color-interpolation-filters="sRGB">
<feFlood flood-opacity="0" result="BackgroundImageFix"/>
<feBlend mode="normal" in="SourceGraphic" in2="BackgroundImageFix" result="shape"/>
<feGaussianBlur stdDeviation="35" result="effect1_foregroundBlur_1651_238"/>
</filter>
</defs>
</svg>
